<?xml version="1.0" encoding="UTF-8" standalone="no"?>
<!-- Generator: Adobe Illustrator 24.0.0, SVG Export Plug-In . SVG Version: 6.00 Build 0)  -->
<svg id="圖層_1" style="enable-background:new 0 0 453 159" xmlns="http://www.w3.org/2000/svg" xml:space="preserve" viewBox="0 0 453 159" version="1.1" y="0px" x="0px" xmlns:xlink="http://www.w3.org/1999/xlink">
<style type="text/css">
	.st0{fill:none;stroke:#046575;stroke-width:2;stroke-miterlimit:10;}
	.st1{fill:#DE9835;}
	.st2{fill:#B06229;}
	.st3{fill:#C57435;}
	.st4{fill:#C93D42;}
	.st5{fill:none;stroke:#004E5C;stroke-miterlimit:10;}
	.st6{fill:#046575;}
	.st7{fill:#8C85A0;}
	.st8{fill:#014C6E;}
	.st9{fill:#CD9A50;}
	.st10{fill:#208FA1;}
	.st11{fill:#9C673E;}
	.st12{fill:#FAEEEF;}
	.st13{fill:#801B1F;}
	.st14{fill:#A7232D;}
	.st15{fill:#D96875;}
	.st16{fill:#FFFFFF;}
</style>
<path class="st0" d="m273.4 102.2s-99.5 11.9-156-19.5"/>
		<path class="st1" d="m220 44c1.8-1.6 4.1-2.6 6-4.1 2-1.6 3.3-3.9 3.9-6.4 0.4-1.8 0.4-3.8 1.6-5.2 0.5 0.8 0.3 1.8 0.1 2.8-0.5 3.2-1.2 6.6-3.3 9-1.5 1.8-3.7 2.9-5.7 4.2s-3.9 3-4.4 5.3c-0.3 1.2-0.1 2.4-0.2 3.6-0.1 0.9-0.6 3.7-2 3.3-1.2-0.3-0.2-3.4 0-4.3 0.6-3 1.7-6.1 4-8.2z"/>
		<path class="st1" d="m224.4 30.9c0.1 1.3-0.1 2.6 0.1 3.9 0.1 1.3 0.6 2.7 1.7 3.4 0.4 0.3 1.1 0.6 1 1.1 0 0.2-0.2 0.4-0.4 0.5-0.5 0.3-1.3 0.2-1.8-0.1-0.5-0.4-0.9-0.9-1.2-1.5-1.1-2.3-1.3-6.1 0.5-8.1 0.1 0.3 0.1 0.5 0.1 0.8z"/>
		<path class="st2" d="m215.1 48.6c-0.5-1.4-0.1-3.1 0.9-4.2-1.2 0.2-2.3 1-3.1 1.9-0.8 1-1.4 2.1-1.7 3.3-0.2 0.7-0.4 1.5-0.3 2.2 0.2 1.7 2.5 3.2 4 1.9 1.4-1.2 0.7-3.7 0.2-5.1z"/>
		<path class="st2" d="m274.7 113.1c3.1 3 7.5 4.9 10.9 6.6 8.7 4.3 16.6 11 21.7 19.3 0.2 0.4 0.5 0.8 0.9 1.1 0.4 0.2 1 0.2 1.3-0.2 0.2-0.3 0.1-0.8 0.4-1s0.7 0 1 0c0.5 0 0.9-0.6 0.9-1.1s-0.3-1-0.5-1.4c-2.2-3.9-4.4-8-7.1-11.6-1.7-2.3-4-5-6.5-6.6-2.7-1.7-4.6-3.4-6.4-6.2s-3.4-5.8-5.9-8c-2.4-2-5.6-3.1-8.7-3-1.2 0.1-2.5 0.3-3.4 1-3.8 3.2-1.3 8.5 1.4 11.1z"/>
		<path class="st2" d="m179.3 99.6c-2.3 0.8-4.6 1.7-6.2 3.6-0.1 0.1-0.1 0.2-0.1 0.3 0 0.2 0.1 0.3 0.3 0.4 0.3 0.3 0.7 0.5 1 0.8 0.2 0.2 0.4 0.3 0.6 0.6 0.3 0.5 0 1.2 0.2 1.7 0.5 1.2 5.8-0.9 7-1.1 2.6-0.5 5.3-0.8 8-1 5.4-0.3 10.8 0 16 1 4.1 0.8 8.3 2 12.3 1 1.2-0.3 2.4-0.9 3.2-1.9 1.6-2.3-0.1-5.9-2.1-7.4-2.2-1.6-6.5-1.4-9.2-1.6-6-0.5-12.5-0.5-18.4 0.3-3.5 0.5-7 1.5-10.3 2.7-0.8 0.1-1.6 0.3-2.3 0.6z"/>
		<path class="st3" d="m229 77.1c0.9 2.7 2.4 5.6 5.1 6.6 1.4 0.5 3 0.4 4.5 0.3 16.5-0.9 33.7 1.9 47.1 11.5 2.5 1.8 5 4 5.6 7 0.6 2.7-0.4 5.4-1.7 7.8-4.6 8.3-13.4 13.8-22.6 16.1-13.8 3.6-29.1 0.7-40.7-7.5-8-5.7-14.3-14-16.6-23.5s-0.3-20.3 6.2-27.7c1.5-1.8 3.3-3.3 5.4-4.4 1.3-0.7 4.7-2.3 6.2-1.2 1.3 0.9 0.2 5.3 0.2 6.8 0 2.8 0.5 5.6 1.3 8.2z"/>
		<path class="st3" d="m212.7 53c-2.1 1.2-4 2.9-5.7 4.5-3.6 3.3-7.4 6.9-12.3 7.6-1.5 0.2-3 0.2-4.5 0-0.4-0.1-0.8-0.1-1.1 0.2-0.4 0.4-0.1 1.1 0.3 1.6 3 3.8 7.7 5.9 12.4 6.5 4.8 0.6 9.6-0.2 14.2-1.5 2.9-0.8 5.8-1.8 8.2-3.6s4.2-4.6 4.2-7.7c0-3-2.6-6.1-5-7.7-3.3-2-7.4-1.7-10.7 0.1z"/>
		<path class="st4" d="m193.8 65.3c-1.2 0.1-2.5 0-3.7-0.1-0.4-0.1-0.8-0.1-1.1 0.2-0.4 0.4-0.1 1.1 0.3 1.6 1.2 1.5 2.6 2.7 4.2 3.7 0.5-0.4 1-0.9 1.2-1.5 0.4-1 0-2.1-0.5-3-0.1-0.4-0.2-0.7-0.4-0.9z"/>
		<path class="st3" d="m223.7 56c0.5-1.4 1.4-2.7 2.5-3.8 0.5-0.5 1-0.9 1.5-1.2 2.1-1.1 5.1-0.6 6.8-2.3-0.6 4.5-4.2 8.5-8.6 9.5-0.5 0.1-1 0.2-1.5 0-1.1-0.3-1-1.4-0.7-2.2z"/>
		<path class="st1" d="m227.7 43.8c2.4-1.2 5.2-1.4 7.6-2.5 2.6-1.1 4.8-3.1 6.1-5.6 1-1.8 1.6-3.9 3.3-5 0.2 1-0.3 2-0.7 3-1.6 3.2-3.3 6.6-6.3 8.5-2.2 1.4-4.9 1.9-7.4 2.7s-5.1 2-6.4 4.3c-0.7 1.2-0.9 2.5-1.4 3.8-0.3 0.9-1.8 3.7-3.1 2.9-1.1-0.7 0.9-3.7 1.4-4.5 1.7-3.1 3.8-6 6.9-7.6z"/>
		<path class="st1" d="m239.6 32.1c-0.5 1.4-1.3 2.6-1.7 4-0.5 1.4-0.6 3 0.2 4.2 0.3 0.5 0.8 1.1 0.5 1.6-0.1 0.2-0.4 0.3-0.6 0.3-0.7 0.1-1.4-0.3-1.8-0.9s-0.5-1.3-0.5-2.1c-0.1-2.8 1.4-6.7 4.2-8l-0.3 0.9z"/>
		<path class="st5" d="m212 63.3c0-0.8 0.3-1.7 0.9-2.3 0.6-0.5 1.7-0.7 2.3-0.1 0.7 0.6 0.7 1.6 0.6 2.6"/>
		<path class="st5" d="m205.4 69c0.3 0.7 1.1 1.2 1.9 1.3s1.6-0.3 2.1-0.9"/>
		<path class="st3" d="m284.8 97.7c-0.1 0.9 0 1.8 0.4 2.6 0.9 1.8 3 2.7 4.9 3 2.9 0.5 6.1-0.6 8.1-2.9s2.6-5.5 1.7-8.4c-0.1-0.3-0.4-0.7-0.7-0.6-0.2 0-0.3 0.2-0.4 0.4-1.5 2.2-4.3 3.6-7 3.3-1.4-0.1-2.8-0.6-4.2-0.4-1.6 0.4-2.6 1.6-2.8 3z"/>
		<path class="st6" d="m229.2 81.1c1.2-0.2 2.3-0.3 3.2 0.6 0.4 0.4 0.9 0.9 1.5 1 0.5 0.1 1.2 0 1.4 0.5 0.1 0.1 0.1 0.3 0.1 0.4 0 1.7-1.1 3.1-2.4 4-5.2 3.6-12.6 2.6-18.3 1.2-2.2-0.6-4.5-1.4-6-3.1-1.1-1.3-1.8-3.9-0.6-5.4 1.4-1.7 3.7-0.5 5.4 0 4.9 1.3 10.4 1.7 15.7 0.8z"/>
		<path class="st3" d="m188.3 117.3c-2.3 1.7-4.5 3.5-5.5 6.1 0 0.1-0.1 0.3-0.1 0.4 0.1 0.2 0.3 0.3 0.4 0.3 0.5 0.2 0.9 0.3 1.4 0.5 0.3 0.1 0.6 0.2 0.8 0.4 0.5 0.5 0.4 1.3 0.8 1.8 0.9 1.2 6.1-3 7.3-3.6 2.7-1.5 5.5-2.8 8.4-3.9 5.8-2.2 11.8-3.7 18-4.4 4.8-0.5 9.8-0.7 13.9-3.2 1.2-0.8 2.4-1.8 2.8-3.2 0.9-3-2.1-6.5-4.9-7.4-3-1-7.7 0.7-10.7 1.4-6.8 1.6-13.9 3.7-20.2 6.7-3.7 1.8-7.1 4.1-10.4 6.6-0.5 0.4-1.3 0.9-2 1.5z"/>
		<path class="st1" d="m196.6 121.6v0c-2.3-2.1-3.3-4.5-4.8-6.9-0.5 0.3-0.9 0.7-1.4 1-0.7 0.5-1.4 1-2.1 1.6-2.3 1.7-4.5 3.5-5.5 6.1 0 0.1-0.1 0.3-0.1 0.4 0.1 0.2 0.3 0.3 0.4 0.3 0.5 0.2 0.9 0.3 1.4 0.5 0.3 0.1 0.6 0.2 0.8 0.4 0.5 0.5 0.4 1.3 0.8 1.8 0.9 1.2 6.1-3 7.3-3.6 1.1-0.6 2.2-1.1 3.2-1.6z"/>
		<path class="st1" d="m185.1 105.3c-0.1 0-0.1 0 0 0-1.4-2.3-1.6-4.6-2.2-7-0.5 0.2-0.9 0.3-1.4 0.5-0.7 0.3-1.4 0.5-2.2 0.8-2.3 0.8-4.6 1.7-6.2 3.6-0.1 0.1-0.1 0.2-0.1 0.3 0 0.2 0.1 0.3 0.3 0.4 0.3 0.3 0.7 0.5 1 0.8 0.2 0.2 0.4 0.3 0.6 0.6 0.3 0.5 0 1.2 0.2 1.7 0.5 1.2 5.8-0.9 7-1.1 1-0.3 2-0.4 3-0.6z"/>
		<path class="st3" d="m264.9 120.7c3.3 3.2 8.2 5.4 11.8 7.2 9.4 4.7 18 11.9 23.5 21 0.3 0.4 0.6 0.9 1 1.2 0.5 0.3 1.1 0.2 1.4-0.2 0.2-0.3 0.1-0.8 0.5-1.1 0.3-0.2 0.7 0 1.1 0 0.6 0 0.9-0.6 0.9-1.2s-0.3-1.1-0.6-1.6c-2.4-4.2-4.8-8.6-7.7-12.5-1.9-2.5-4.4-5.4-7-7.1-2.9-1.9-5-3.7-6.9-6.7-2-3-3.6-6.3-6.4-8.7-2.6-2.2-6-3.4-9.4-3.2-1.3 0.1-2.7 0.3-3.7 1.1-4.2 3.3-1.5 8.9 1.5 11.8z"/>
		<path class="st1" d="m304.5 146c-1-1.9-2.1-3.8-3.2-5.6-1.7 0.7-3.4 1.8-4.8 3.3 1.3 1.6 2.5 3.4 3.6 5.2 0.3 0.4 0.6 0.9 1 1.2 0.5 0.3 1.1 0.2 1.4-0.2 0.2-0.3 0.1-0.8 0.5-1.1 0.3-0.2 0.7 0 1.1 0 0.6 0 0.9-0.6 0.9-1.2 0.1-0.6-0.2-1.1-0.5-1.6z"/>
		<path class="st1" d="m311.3 136.5c-1-1.7-1.9-3.5-2.9-5.2-1.6 0.6-3.2 1.7-4.4 3.1 1.2 1.5 2.3 3.1 3.3 4.8 0.2 0.4 0.5 0.8 0.9 1.1 0.4 0.2 1 0.2 1.3-0.2 0.2-0.3 0.1-0.8 0.4-1s0.7 0 1 0c0.5 0 0.9-0.6 0.9-1.1 0-0.6-0.2-1.1-0.5-1.5z"/>
		<path class="st7" d="m251.8 98.8c-0.7 4.5-1.5 9-2.4 13.5-0.8 3.9-1.7 7.8-3.7 11.2-0.8 1.4-2.1 3.1-0.4 4.4 0.5 0.4 1.1 0.5 1.6 0.7 0.6 0.2 1.2 0.3 1.9 0.5 0.5 0.1 1 0.3 1.5 0.2s0.9-0.3 1.3-0.5c2.8-1.6 4.5-5.3 5.9-8.2 1.6-3.5 2.7-7.2 3.3-11 1.2-7.6 0.7-15.4-0.6-23-0.2-0.9-0.4-1.9-1-2.6-1-1.3-2.9-1.5-4.5-1.5-0.5 0-1.1 0-1.6 0.2-1.5 0.7-0.5 3.1-0.5 4.3 0.3 4.1-0.2 8-0.8 11.8z"/>
		<path class="st8" d="m254.9 88.9c-0.1 0.3-0.1 0.7 0.1 1 0.2 0.4 0.6 0.7 1.1 0.9s1.1 0.4 1.6 0.2c1-0.3 1.5-1.5 1.2-2.5-0.9-2.1-3.7-1.8-4 0.4z"/>
		<path class="st8" d="m253.9 100.7c-0.2 2 2.3 3.2 3.9 2.1 0.3-0.2 0.4-0.4 0.6-0.7 0.3-0.4 0.6-0.9 0.6-1.4 0.1-1.4-1.5-3-2.8-2.8-1.3 0.1-2.2 1.5-2.3 2.8z"/>
		<path class="st8" d="m253.5 108.7c-0.3 0.4-0.4 1-0.6 1.5-0.1 0.6-0.3 1.2 0 1.8 0.2 0.4 0.6 0.7 1.1 0.9s1 0.3 1.6 0.2c0.4 0 0.8-0.1 1.1-0.3s0.5-0.4 0.6-0.6c0.5-0.8 0.5-2 0-2.8-0.8-1.3-2.9-2-3.8-0.7z"/>
		<path class="st8" d="m250.6 123.8c0.6 0.3 1.3 0.3 1.9 0.1 2.1-1 1.5-4.9-0.9-4.7-2.2 0.1-2.7 3.6-1 4.6z"/>
		<path class="st9" d="m240.3 89.6c-0.7-0.2-1.6-0.3-2.2 0.1-0.2 0.1-0.3 0.3-0.2 0.5s0.3 0.2 0.4 0.2c0.4 0.1 0.9 0.2 1.3 0.3s0.9 0.2 1.3 0c0.2-0.1 0.3-0.2 0.3-0.4 0-0.3-0.2-0.5-0.5-0.6s-0.6-0.1-0.7-0.4"/>
		<path class="st9" d="m246.5 87.3c-0.7-0.5-1.8-0.4-2.5 0.1-0.1 0.1-0.2 0.2-0.2 0.3s0.2 0.2 0.3 0.3c0.7 0.2 1.4 0.3 2.1 0.3 0.2 0 0.5 0 0.6-0.2 0.2-0.1 0.2-0.4 0.1-0.6s-0.4-0.3-0.6-0.2"/>
		<path class="st9" d="m244.6 91.9c-0.1 0-0.1 0.1-0.2 0.2-0.1 0.2 0.2 0.3 0.4 0.4 1.3 0.5 2.7 0.6 4.1 0.3s-0.7-1.3-1.2-1.4c-1.1-0.1-2.2-0.2-3.1 0.5z"/>
		<path class="st9" d="m250.7 88.2c-0.2-0.1-0.4-0.2-0.6-0.2s-0.5 0.1-0.5 0.4c-0.1 0.4 0.4 0.7 0.7 0.7s0.6 0 0.8-0.1c0.1 0 0.2-0.1 0.3-0.1 0.2-0.2-0.1-0.6-0.3-0.7-0.3-0.1-0.6-0.1-0.8-0.2"/>
		<path class="st9" d="m264.6 88.7c-0.4 0.1-1.8-0.6-1.7 0.5 0 0.9 2.1 0.4 2.6 0.4 0.1 0 0.2 0 0.3-0.1 0.2-0.2 0.1-0.5-0.1-0.6s-0.4-0.2-0.7-0.2c-0.4-0.2 0.1-0.1-0.4 0z"/>
		<path class="st9" d="m266.3 92.7c-0.5 0-0.9-0.1-1.4 0-0.4 0.1-0.9 0.3-1.1 0.7 0 0.1-0.1 0.2 0 0.3 0 0.1 0.1 0.1 0.2 0.2 1 0.4 2.1 0.6 3.1 0.7 0.5 0 1 0 1.2-0.5s-0.3-1-0.8-1.2-1.1-0.2-1.5-0.5"/>
		<path class="st9" d="m269.1 90.4c-0.3 0-0.6 0-0.9 0.1s-0.5 0.4-0.5 0.7c0.5 0.2 1 0.4 1.5 0.5 0.4 0.1 0.9 0.1 1.2-0.2 0.1-0.1 0.1-0.2 0.1-0.2 0-0.1-0.1-0.2-0.2-0.3-0.4-0.3-0.9-0.5-1.4-0.6"/>
		<path class="st10" d="m217.3 83.6c3.7-2 7.4-4.1 10.1-7.3 0.4-0.5 0.9-1.1 1.6-1.2 1.1-0.1 1.8 1.1 2 2.1 0.5 2.3-0.2 4.8-1.4 6.8s-3 3.7-4.9 5c-4.2 3.1-9.5 5.1-14.6 4-1-0.2-2.1-0.6-2.9-1.4-1.5-1.5-1.6-5.7 0.9-6 1.4-0.2 2.8 0.3 4.3-0.1 1.8-0.3 3.3-1.1 4.9-1.9z"/>
				<path class="st11" d="m208.9 92.9c-0.1 1.9 0.2 3.9 0.8 5.7 0.3 0.9 0.6 1.8 1 2.7 0.3 0.8 0.7 1.8 1.5 2.3 0.2 0.1 0.5 0 0.5-0.3-0.1-0.8-0.7-1.6-1-2.3-0.4-0.8-0.7-1.7-1-2.6-0.6-1.8-0.9-3.6-1.1-5.4-0.2-0.4-0.7-0.5-0.7-0.1z"/>
			<path class="st2" d="m193.5 71c7.2 3.6 16.1 3.2 23.5 0.4 0.3-0.1 0.2-0.5-0.1-0.4-7.7 2.5-15.7 2.8-23.3-0.3-0.1 0-0.2 0.2-0.1 0.3z"/>
			<path class="st2" d="m212.4 72.6c-1.4 1.9-2.5 4.2-2.8 6.6 0 0.2 0.3 0.2 0.3 0.1 0.6-2.3 1.4-4.4 2.7-6.5 0.1-0.2-0.1-0.4-0.2-0.2z"/>
			<path class="st2" d="m226.2 113.8c-0.2 0.4-0.3 0.8-0.4 1.2-0.1 0.3-0.1 0.7 0 1 0.1 0.1 0.2 0.1 0.2 0 0.2-0.3 0.1-0.6 0.2-0.9 0.1-0.4 0.1-0.8 0.3-1.1 0.1-0.3-0.2-0.4-0.3-0.2z"/>
			<path class="st2" d="m227.2 115.7c-0.1 0.6-0.2 1.7 0.3 2.1 0.1 0.1 0.2 0 0.2-0.1 0-0.3-0.2-0.6-0.2-0.9-0.1-0.3 0-0.7 0-1 0.1-0.3-0.3-0.3-0.3-0.1z"/>
			<path class="st2" d="m228.2 115.9c0.2 1.4 0.7 3.5 2.1 4.2 0.1 0.1 0.2-0.1 0.2-0.2-0.3-0.6-0.8-1.1-1.1-1.7-0.4-0.7-0.7-1.5-0.9-2.4 0-0.1-0.3-0.1-0.3 0.1z"/>
			<path class="st2" d="m230.6 118.3c0.2 0.7 0.6 1.4 1 1.9s0.8 1.1 1.4 1.2c0.1 0 0.2-0.1 0.1-0.2-0.3-0.5-0.9-0.9-1.3-1.3-0.4-0.5-0.8-1.1-1-1.7 0.1-0.2-0.2-0.1-0.2 0.1z"/>
			<path class="st2" d="m233.5 120c0.4 0.4 0.7 0.8 1.1 1.2 0.3 0.3 0.6 0.8 1 1 0.2 0.1 0.3-0.1 0.3-0.3-0.1-0.4-0.6-0.8-0.9-1-0.4-0.4-0.8-0.7-1.2-1.1-0.2-0.2-0.4 0.1-0.3 0.2z"/>
			<path class="st2" d="m236.9 121.9c0.2 0.2 0.5 0.3 0.7 0.5 0.2 0.1 0.5 0.2 0.7 0.1 0.1 0 0.1-0.1 0-0.2-0.1-0.2-0.3-0.2-0.5-0.3s-0.5-0.3-0.7-0.4c-0.1-0.2-0.4 0.1-0.2 0.3z"/>
			<path class="st2" d="m213.7 73.3c-0.3 0.2-0.6 0.3-0.9 0.5-0.2 0.1-0.5 0.2-0.6 0.5 0 0.1 0 0.1 0.1 0.1 0.3 0 0.5-0.2 0.7-0.4 0.3-0.2 0.6-0.4 0.8-0.6 0.2 0 0-0.2-0.1-0.1z"/>
			<path class="st2" d="m213.7 74c-0.4 0.3-0.8 0.6-1.1 1-0.2 0.3-0.7 0.7-0.7 1.1 0 0.1 0.1 0.2 0.2 0.1 0.3-0.1 0.6-0.6 0.8-0.9 0.3-0.4 0.6-0.7 1-1.1 0.2-0.1 0-0.3-0.2-0.2z"/>
			<path class="st2" d="m213.4 75.4c-0.4 0.3-0.7 0.7-1 1.1-0.2 0.3-0.6 0.8-0.6 1.2 0 0.2 0.2 0.2 0.3 0.1 0.3-0.3 0.4-0.8 0.6-1.1 0.2-0.4 0.5-0.7 0.9-1 0.2-0.2 0-0.4-0.2-0.3z"/>
			<path class="st2" d="m213.1 77.2c0 0.3 0 0.6-0.1 0.9 0 0.2-0.2 0.5 0 0.7 0.1 0.1 0.2 0.1 0.2 0 0.2-0.1 0.2-0.5 0.3-0.7v-0.9c0-0.2-0.4-0.2-0.4 0z"/>
			<path class="st2" d="m226.9 60.9c0.1 0.7 0.1 1.3 0 2-0.1 0.5-0.4 0.9-0.4 1.4 0 0.1 0.1 0.2 0.2 0.1 0.4-0.4 0.5-1 0.6-1.6 0.1-0.7 0-1.3-0.2-2 0-0.1-0.3-0.1-0.2 0.1z"/>
			<path class="st2" d="m225.9 63.6c0 0.5-0.1 1-0.2 1.4-0.1 0.3-0.5 0.7-0.4 1.1 0 0.1 0.1 0.1 0.1 0.1 0.4-0.1 0.6-0.7 0.7-1.1 0.1-0.5 0.2-1 0.1-1.5 0-0.3-0.3-0.2-0.3 0z"/>
			<path class="st2" d="m224.7 64.5c-0.2 0.5-0.5 1-0.8 1.5-0.2 0.2-0.3 0.5-0.5 0.7-0.1 0.2-0.3 0.3-0.3 0.5 0 0.1 0.1 0.2 0.1 0.2 0.5 0 0.8-0.7 1-1.1 0.3-0.5 0.5-1.1 0.7-1.6 0.2-0.3-0.1-0.4-0.2-0.2z"/>
			<path class="st2" d="m223 66.3l-0.9 0.9c-0.2 0.2-0.6 0.5-0.7 0.8 0 0.1 0.1 0.2 0.2 0.2 0.3-0.1 0.6-0.5 0.8-0.7 0.3-0.3 0.6-0.6 0.9-1 0.1-0.1-0.2-0.4-0.3-0.2z"/>
			<path class="st2" d="m220.7 67.9c-0.2 0.2-0.4 0.3-0.5 0.6 0 0.1 0.1 0.2 0.2 0.2 0.3-0.1 0.5-0.3 0.7-0.5 0.1-0.2-0.2-0.5-0.4-0.3z"/>
			<path class="st2" d="m274.5 124.1c0 0.7 0.1 1.3 0.4 1.9 0.2 0.5 0.6 1.1 1.1 1.2 0.1 0 0.3-0.1 0.2-0.2-0.2-0.5-0.6-0.8-0.9-1.3s-0.4-1.1-0.4-1.7c0-0.2-0.4-0.2-0.4 0.1z"/>
			<path class="st2" d="m276.2 125.2c0.2 0.5 0.3 0.9 0.6 1.4 0.2 0.3 0.4 0.8 0.8 0.9 0.1 0 0.2-0.1 0.1-0.1 0-0.4-0.4-0.6-0.6-0.9-0.3-0.4-0.5-0.9-0.7-1.3 0-0.3-0.3-0.2-0.2 0z"/>
			<path class="st2" d="m278 126.7c0.3 0.3 0.6 0.6 0.8 0.9 0.2 0.2 0.4 0.6 0.6 0.7 0.1 0 0.2 0 0.2-0.1 0-0.4-0.3-0.7-0.5-0.9-0.3-0.3-0.6-0.6-0.9-0.8-0.2-0.2-0.4 0-0.2 0.2z"/>
			<path class="st2" d="m280.4 128.3c0.2 0.2 0.6 0.6 0.9 0.4 0.1 0 0.1-0.1 0.1-0.2-0.1-0.1-0.2-0.2-0.3-0.2-0.2-0.1-0.3-0.2-0.4-0.3-0.2-0.1-0.4 0.1-0.3 0.3z"/>
			<path class="st2" d="m215.3 108.2c-0.8 1.6-1.9 3.5-1.9 5.3 0 0.2 0.3 0.2 0.3 0.1 0.3-0.9 0.5-1.8 0.8-2.7s0.7-1.7 1.1-2.6c0.1-0.1-0.2-0.3-0.3-0.1z"/>
			<path class="st2" d="m215.6 110.3c-0.4 0.9-0.9 2.3-0.6 3.3 0 0.1 0.3 0.1 0.3 0 0.2-0.4 0.1-1 0.2-1.4 0.1-0.6 0.2-1.2 0.5-1.7 0.1-0.3-0.3-0.5-0.4-0.2z"/>
			<path class="st2" d="m216.2 112.3c0.1 0.3 0.2 0.7 0.2 1.1 0 0.1 0.1 0.2 0.2 0.2h0.1s0.2-0.1 0.2-0.2c0-0.4-0.1-0.8-0.3-1.2-0.1-0.2-0.5-0.1-0.4 0.1z"/>
			<path class="st2" d="m217.1 113.3c0.2 0.3 0.3 0.7 0.7 0.7 0.1 0 0.1-0.1 0.2-0.1 0.1-0.3-0.3-0.6-0.5-0.8-0.2-0.3-0.6-0.1-0.4 0.2z"/>
		<path class="st1" d="m216.2 87.6c0.8 2 2 3.8 3.5 5.3 0.3 0.3 0.3 0.4 0.6 0.2 0.3-0.1 0.6-0.5 0.9-0.7 0.6-0.5 1.1-0.9 1.7-1.4 1-1 2-2 2.8-3.2 0.1-0.1 0.1-0.2 0.1-0.3s0-0.2-0.1-0.3c-1.7-3.2-5.4-5.1-9-5-0.4 0-0.7 0.1-1 0.3-0.2 0.2-0.3 0.5-0.3 0.8-0.1 0.9 0 1.8 0.2 2.7 0.3 0.6 0.4 1.1 0.6 1.6z"/>
			<path class="st12" d="m220.4 89.6c0 0.1 0.1 0 0 0-0.2-0.3-0.4-0.5-0.6-0.8s-0.4-0.5-0.7-0.8c-0.4-0.5-0.8-1-1.3-1.4 0 0-0.1 0-0.1 0.1 0.5 0.5 1 1 1.4 1.6 0.4 0.5 0.8 1.1 1.3 1.3z"/>
			<path class="st12" d="m221.2 91.1c0.1 0 0.1-0.1 0-0.2-0.1 0-0.2-0.1-0.2-0.1 0.1 0 0.2-0.1 0.1-0.1-1.1-0.9-2.2-1.9-3.3-2.9-0.1-0.1-0.1 0-0.1 0.1l-0.1-0.1c-0.1-0.1-0.2 0-0.1 0.1 0.3 0.6 0.9 1.1 1.4 1.6s1 1 1.6 1.5v0.1c0.1 0.1 0.2 0.2 0.3 0.2s0.1 0 0.1-0.1c0.1 0 0.1 0.1 0.2 0.1s0.2-0.1 0.1-0.2zm-2.6-2.4l0.1 0.1-0.1-0.1v0zm2 2.1s0.1 0 0 0c0.1 0 0.1 0 0 0zm-2.2-2.4c-0.2-0.1-0.3-0.3-0.5-0.5 0.1 0.2 0.3 0.3 0.5 0.5z"/>
		<path class="st1" d="m210.3 84.6c-1.9 1-3.5 2.5-4.8 4.2-0.2 0.3-0.3 0.3-0.1 0.7 0.2 0.3 0.5 0.6 0.8 0.8 0.5 0.5 1.1 1 1.7 1.5 1.1 0.9 2.3 1.7 3.5 2.4 0.1 0 0.2 0.1 0.3 0.1s0.2-0.1 0.2-0.1c2.9-2.1 4.4-6 3.8-9.5-0.1-0.3-0.2-0.7-0.4-0.9s-0.5-0.2-0.8-0.2c-0.9 0-1.8 0.2-2.6 0.6-0.7 0-1.2 0.2-1.6 0.4z"/>
			<path class="st12" d="m206.5 89.1c0.9-1 1.9-2 3-2.8 0.5-0.4 1.1-0.9 1.7-1.3s1.2-0.7 1.7-1.1v-0.1c-0.6 0.3-1.2 0.7-1.7 1-0.6 0.4-1.1 0.8-1.6 1.2-1.3 0.9-2.3 1.9-3.1 3.1-0.2-0.1-0.1 0 0 0z"/>
			<path class="st12" d="m209.3 86.9c0.6-0.6 1.3-1.1 2-1.7 0.3-0.2 0.7-0.5 1-0.7 0.4-0.2 0.8-0.4 1.1-0.7v-0.1c-0.4 0.2-0.7 0.4-1.1 0.6s-0.8 0.5-1.1 0.8c-0.7 0.6-1.4 1.2-1.9 1.8-0.2 0-0.1 0.1 0 0z"/>
		<path class="st2" d="m211.1 92.2c0.3 0.5 0.5 1.1 0.5 1.7 0 0.1 0 0.2-0.1 0.3s-0.2 0.1-0.3 0.1c-0.7 0-1.4-0.1-2.1-0.4-0.6-0.2-1.1-0.6-1.6-0.9-1.1-0.8-2.2-1.8-2.4-3.1-0.2-1 0.3-1 1.1-0.9 0.7 0.1 1.3 0.3 1.9 0.6 1.3 0.5 2.3 1.5 3 2.6z"/>
		<path class="st8" d="m208.8 89.9c-0.2 0.3-0.3 0.7-0.4 0.9v0.2s0 0.1 0.1 0.1c0.1 0.1 0.2 0.3 0.4 0.3 0.1 0 0.2 0 0.3-0.1 0.3-0.2 0.6-0.3 0.9-0.5-0.4-0.3-0.8-0.6-1.3-0.9z"/>
		<path class="st1" d="m207.8 91.7c0.1 0.2 0.4 0.3 0.6 0.4s0.3 0.1 0.5 0c0.1-0.1 0.2-0.2 0.2-0.3 0.2-0.4-0.1-1-0.6-1-0.5-0.1-1 0.3-0.7 0.9z"/>
		<path class="st13" d="m210.6 88.2c0.6 0.2 1.3 0.4 1.9 0.6 0.3-1.6 1.1-3 2-4.3 0.2-0.2 0.3-0.5 0.3-0.8-0.1-0.5-0.8-0.7-1.1-0.4-0.5 0.4-0.9 1-1.3 1.5-0.2 0.2-2 3.3-1.8 3.4z"/>
		<path class="st13" d="m217.7 88.9c0 0.1 0.1 0.1 0.1 0.2 0.1 0.1 0.3 0 0.4 0 0.4-0.1 0.7-0.2 1-0.4-0.2-0.6-0.5-1.1-0.7-1.7-0.3-0.7-0.6-1.5-1.1-2.1-0.3-0.4-0.9-1.1-1.4-0.9-0.6 0.2 0 1 0.2 1.3 0.6 1.2 0.9 2.4 1.5 3.6z"/>
		<path class="st14" d="m211.3 78.6c-0.3-0.2-0.7-0.3-1-0.2-0.2 0-0.5 0.2-0.7 0.3-0.6 0.5-1 1.4-0.6 2.1 0.2 0.4 0.7 0.7 0.7 1.1 0 0.2 0 0.4-0.1 0.6l-0.3 1.5c-0.1 0.3-0.1 0.8 0.1 1 0.2 0.3 0.6 0.3 1 0.2 0.9-0.1 1.9-0.3 2.8-0.7 0.5-0.2 1.1-0.5 1.4-1 0.5-0.8 0.4-2.2-0.3-2.9-0.9-0.8-1.9-1.5-3-2z"/>
		<path class="st14" d="m216.5 80.9c1.1-0.6 2.2-1.2 3.4-1.8 0.4-0.2 0.9-0.3 1.3-0.2 0.6 0.2 0.9 0.9 1 1.6 0.1 0.5 0 1.1-0.4 1.6-0.3 0.4-0.8 0.6-1 1.1-0.1 0.3 0 0.5 0.1 0.8 0.2 0.7 0.2 1.5 0 2.2 0 0.2-0.1 0.4-0.3 0.6-0.3 0.4-0.9 0.3-1.4 0.2-0.9-0.3-1.7-0.8-2.4-1.3-0.6-0.4-1.2-0.8-1.4-1.4-0.1-0.3-0.2-0.6-0.2-0.9-0.1-0.5-0.1-1 0.1-1.5 0.2-0.6 0.7-0.7 1.2-1z"/>
						<path class="st15" d="m211.4 80.3c0.6 0.4 1.2 0.9 1.6 1.5s0.6 1.2 1.1 1.7c0.1 0.1 0.2 0 0.2-0.1-0.4-1.3-1.5-2.7-2.7-3.3-0.2-0.1-0.3 0.1-0.2 0.2z"/>
						<path class="st15" d="m211.3 82.4c0.5 0.1 1 0.1 1.4 0.2 0.5 0.1 0.9 0.3 1.4 0.3 0.1 0 0.2-0.2 0.1-0.2-0.8-0.4-2-0.5-2.9-0.6-0.1 0.1-0.1 0.3 0 0.3z"/>
						<path class="st15" d="m219.3 81.4c-0.8 0.1-1.7 0.2-2.5 0.6-0.6 0.2-1.3 0.6-1.4 1.2 0 0.2 0.2 0.2 0.3 0.1 0.2-0.2 0.4-0.5 0.7-0.7s0.7-0.4 1-0.5c0.6-0.2 1.3-0.4 2-0.5 0 0 0-0.2-0.1-0.2z"/>
						<path class="st15" d="m218.3 83.1c-0.6-0.3-1.3-0.6-2-0.6-0.3 0-0.7-0.1-0.9 0.3 0 0 0 0.1 0.1 0.1h1.2c0.5 0.1 1 0.2 1.5 0.5 0.1 0 0.3-0.2 0.1-0.3z"/>
		<path class="st2" d="m223.9 87.7c0.5-0.2 1.1-0.4 1.7-0.3 0.1 0 0.2 0 0.3 0.1s0.1 0.2 0 0.3c-0.1 0.7-0.3 1.4-0.7 2-0.3 0.5-0.7 1-1.1 1.5-0.9 1-2 1.9-3.4 2-1 0.1-1-0.4-0.7-1.2 0.2-0.6 0.5-1.3 0.8-1.8 0.8-1.1 1.8-2 3.1-2.6z"/>
		<path class="st8" d="m221.3 89.7c0.3 0.2 0.7 0.4 0.9 0.5 0.1 0 0.1 0.1 0.2 0.1s0.1 0 0.2-0.1 0.3-0.2 0.3-0.3v-0.3c-0.1-0.3-0.2-0.6-0.3-1-0.6 0.3-1 0.7-1.3 1.1z"/>
		<path class="st1" d="m222.9 90.9c0.2-0.1 0.4-0.3 0.5-0.5 0.1-0.1 0.1-0.3 0.1-0.5 0-0.1-0.1-0.2-0.2-0.3-0.4-0.2-1 0-1.1 0.4-0.3 0.6 0.1 1.2 0.7 0.9z"/>
		<path class="st14" d="m216 80.7c0.3 0.1 0.7 0.2 0.8 0.5 0.1 0.2 0 0.4 0 0.6-0.1 0.8-0.3 1.7-0.4 2.5 0 0.2-0.1 0.4-0.2 0.5s-0.3 0.2-0.4 0.2c-0.5 0.1-1.1-0.1-1.6-0.4-0.3-0.2-0.5-0.4-0.6-0.6-0.1-0.3-0.1-0.6-0.1-0.9 0-0.6 0.2-1.6 0.6-2.1s1.3-0.4 1.9-0.3z"/>
				<path class="st15" d="m214.8 84.9c0-0.1-0.2-0.3-0.3-0.3-0.1-0.1-0.2-0.2-0.2-0.4-0.1-0.2-0.1-0.4-0.2-0.7 0-0.6 0.2-1.1 0.3-1.7 0-0.1-0.1-0.1-0.1 0-0.3 0.6-0.5 1.4-0.3 2.1 0.1 0.3 0.2 0.5 0.4 0.7 0.1 0.2 0.3 0.5 0.4 0.3v0z"/>
				<path class="st15" d="m216 80.6c-0.5 0.1-0.7 0.6-0.8 1-0.1 0.3-0.2 0.7-0.2 1 0 0.2-0.1 0.5 0 0.7h0.1c-0.1-0.2 0-0.6 0.1-0.8 0-0.2 0.1-0.4 0.1-0.7 0.1-0.4 0.3-0.9 0.7-1.2 0.1 0.1 0.1 0 0 0z"/>
				<path class="st15" d="m215.7 82.3c-0.1 0.4-0.2 0.9-0.3 1.3 0 0.4-0.1 0.9 0 1.4 0 0.1 0.1 0 0.1 0v-1.3c0.1-0.4 0.2-0.9 0.2-1.4 0.1 0 0 0 0 0z"/>
		<path class="st1" d="m47.8 16.4c1.8-1.6 4.1-2.6 6-4.1 2-1.6 3.3-3.9 3.9-6.4 0.4-1.8 0.4-3.8 1.6-5.2 0.5 0.8 0.3 1.8 0.1 2.8-0.5 3.2-1.2 6.6-3.3 9-1.5 1.8-3.7 2.9-5.7 4.2s-3.9 3-4.4 5.3c-0.3 1.2-0.1 2.4-0.2 3.6-0.1 0.9-0.6 3.7-2 3.3-1.2-0.3-0.2-3.4 0-4.3 0.6-3 1.7-6.1 4-8.2z"/>
		<path class="st1" d="m52.2 3.3c0.1 1.3-0.1 2.6 0.1 3.9 0.1 1.3 0.6 2.7 1.7 3.4 0.4 0.3 1.1 0.6 1 1.1 0 0.2-0.2 0.4-0.4 0.5-0.5 0.3-1.3 0.2-1.8-0.1-0.5-0.4-0.9-0.9-1.2-1.5-1.1-2.3-1.3-6.1 0.5-8.1 0 0.3 0.1 0.5 0.1 0.8z"/>
		<path class="st2" d="m42.9 21c-0.5-1.4-0.1-3.1 0.9-4.2-1.2 0.2-2.3 1-3.1 1.9-0.8 1-1.4 2.1-1.7 3.3-0.2 0.7-0.4 1.5-0.3 2.2 0.2 1.7 2.5 3.2 4 1.9 1.4-1.2 0.7-3.7 0.2-5.1z"/>
		<path class="st2" d="m102.5 85.5c3.1 3 7.5 4.9 10.9 6.6 8.7 4.3 16.6 11 21.7 19.3 0.2 0.4 0.5 0.8 0.9 1.1 0.4 0.2 1 0.2 1.3-0.2 0.2-0.3 0.1-0.8 0.4-1s0.7 0 1 0c0.5 0 0.9-0.6 0.9-1.1s-0.3-1-0.5-1.4c-2.2-3.9-4.4-8-7.1-11.6-1.7-2.3-4-5-6.5-6.6-2.7-1.7-4.6-3.4-6.4-6.2s-3.4-5.8-5.9-8c-2.4-2-5.6-3.1-8.7-3-1.2 0.1-2.5 0.3-3.4 1-3.8 3.2-1.3 8.5 1.4 11.1z"/>
		<path class="st2" d="m7.1 72c-2.3 0.8-4.6 1.7-6.2 3.6-0.1 0.1-0.1 0.2-0.1 0.3 0 0.2 0.1 0.3 0.3 0.4 0.3 0.3 0.7 0.5 1 0.8 0.2 0.2 0.4 0.3 0.6 0.6 0.3 0.5 0 1.2 0.2 1.7 0.5 1.2 5.8-0.9 7-1.1 2.6-0.5 5.3-0.8 8-1 5.4-0.3 10.8 0 16 1 4.1 0.8 8.3 2 12.3 1 1.2-0.3 2.4-0.9 3.2-1.9 1.6-2.3-0.1-5.9-2.1-7.4-2.2-1.6-6.5-1.4-9.2-1.6-6-0.5-12.5-0.5-18.4 0.3-3.5 0.5-7 1.5-10.3 2.7-0.8 0.1-1.6 0.4-2.3 0.6z"/>
		<path class="st3" d="m56.8 49.6c0.9 2.7 2.4 5.6 5.1 6.6 1.4 0.5 3 0.4 4.5 0.3 16.5-0.9 33.7 1.9 47.1 11.5 2.5 1.8 5 4 5.6 7 0.6 2.7-0.4 5.4-1.7 7.8-4.6 8.3-13.4 13.8-22.6 16.1-13.8 3.6-29.1 0.7-40.7-7.5-8-5.7-14.3-14-16.6-23.5s-0.3-20.3 6.2-27.7c1.5-1.8 3.3-3.3 5.4-4.4 1.3-0.7 4.7-2.3 6.2-1.2 1.3 0.9 0.2 5.3 0.2 6.8 0 2.7 0.4 5.5 1.3 8.2z"/>
		<path class="st3" d="m40.5 25.4c-2.1 1.2-4 2.9-5.7 4.5-3.6 3.3-7.4 6.9-12.3 7.6-1.5 0.2-3 0.2-4.5 0-0.4-0.1-0.8-0.1-1.1 0.2-0.4 0.4-0.1 1.1 0.3 1.6 3 3.8 7.7 5.9 12.4 6.5 4.8 0.6 9.6-0.2 14.2-1.5 2.9-0.8 5.8-1.8 8.2-3.6s4.2-4.6 4.2-7.7c0-3-2.6-6.1-5-7.7-3.3-2-7.4-1.7-10.7 0.1z"/>
		<path class="st4" d="m21.6 37.7c-1.2 0.1-2.5 0-3.7-0.1-0.4-0.1-0.8-0.1-1.1 0.2-0.4 0.4-0.1 1.1 0.3 1.6 1.2 1.5 2.6 2.7 4.2 3.7 0.5-0.4 1-0.9 1.2-1.5 0.4-1 0-2.1-0.5-3-0.1-0.4-0.2-0.7-0.4-0.9z"/>
		<path class="st3" d="m51.5 28.4c0.5-1.4 1.4-2.7 2.5-3.8 0.5-0.5 1-0.9 1.5-1.2 2.1-1.1 5.1-0.6 6.8-2.3-0.6 4.5-4.2 8.5-8.6 9.5-0.5 0.1-1 0.2-1.5 0-1.1-0.2-1-1.4-0.7-2.2z"/>
		<path class="st1" d="m55.5 16.3c2.4-1.2 5.2-1.4 7.6-2.5 2.6-1.1 4.8-3.1 6.1-5.6 1-1.8 1.6-3.9 3.3-5 0.2 1-0.3 2-0.7 3-1.6 3.2-3.3 6.6-6.3 8.5-2.2 1.4-4.9 1.9-7.4 2.7s-5.1 2-6.4 4.3c-0.7 1.2-0.9 2.5-1.4 3.8-0.3 0.9-1.8 3.7-3.1 2.9-1.1-0.7 0.9-3.7 1.4-4.5 1.7-3.2 3.8-6.1 6.9-7.6z"/>
		<path class="st1" d="m67.4 4.5c-0.5 1.4-1.3 2.6-1.7 4-0.5 1.4-0.6 3 0.2 4.2 0.3 0.5 0.8 1.1 0.5 1.6-0.1 0.2-0.4 0.3-0.6 0.3-0.7 0.1-1.4-0.3-1.8-0.9s-0.5-1.3-0.5-2.1c-0.1-2.8 1.4-6.7 4.2-8l-0.3 0.9z"/>
		<path class="st5" d="m39.7 35.7c0-0.8 0.3-1.7 0.9-2.3 0.6-0.5 1.7-0.7 2.3-0.1 0.7 0.6 0.7 1.6 0.6 2.6"/>
		<path class="st5" d="m33.2 41.4c0.3 0.7 1.1 1.2 1.9 1.3s1.6-0.3 2.1-0.9"/>
		<path class="st3" d="m112.6 70.1c-0.1 0.9 0 1.8 0.4 2.6 0.9 1.8 3 2.7 4.9 3 2.9 0.5 6.1-0.6 8.1-2.9s2.6-5.5 1.7-8.4c-0.1-0.3-0.4-0.7-0.7-0.6-0.2 0-0.3 0.2-0.4 0.4-1.5 2.2-4.3 3.6-7 3.3-1.4-0.1-2.8-0.6-4.2-0.4-1.6 0.4-2.6 1.6-2.8 3z"/>
		<path class="st6" d="m57 53.5c1.2-0.2 2.3-0.3 3.2 0.6 0.4 0.4 0.9 0.9 1.5 1 0.5 0.1 1.2 0 1.4 0.5 0.1 0.1 0.1 0.3 0.1 0.4 0 1.7-1.1 3.1-2.4 4-5.2 3.6-12.6 2.6-18.3 1.2-2.2-0.6-4.5-1.4-6-3.1-1.1-1.3-1.8-3.9-0.6-5.4 1.4-1.7 3.7-0.5 5.4 0 4.9 1.3 10.4 1.7 15.7 0.8z"/>
		<path class="st3" d="m16.1 89.7c-2.3 1.7-4.5 3.5-5.5 6.1 0 0.1-0.1 0.3-0.1 0.4 0.1 0.2 0.3 0.3 0.4 0.3 0.5 0.2 0.9 0.3 1.4 0.5 0.3 0.1 0.6 0.2 0.8 0.4 0.5 0.5 0.4 1.3 0.8 1.8 0.9 1.2 6.1-3 7.3-3.6 2.7-1.5 5.5-2.8 8.4-3.9 5.8-2.2 11.8-3.7 18-4.4 4.8-0.5 9.8-0.7 13.9-3.2 1.2-0.8 2.4-1.8 2.8-3.2 0.9-3-2.1-6.5-4.9-7.4-3-1-7.7 0.7-10.7 1.4-6.8 1.6-13.9 3.7-20.2 6.7-3.7 1.8-7.1 4.1-10.4 6.6-0.6 0.4-1.3 0.9-2 1.5z"/>
		<path class="st1" d="m24.4 94v0c-2.3-2.1-3.3-4.5-4.8-6.9-0.5 0.3-0.9 0.7-1.4 1-0.7 0.5-1.4 1-2.1 1.6-2.3 1.7-4.5 3.5-5.5 6.1 0 0.1-0.1 0.3-0.1 0.4 0.1 0.2 0.3 0.3 0.4 0.3 0.5 0.2 0.9 0.3 1.4 0.5 0.3 0.1 0.6 0.2 0.8 0.4 0.5 0.5 0.4 1.3 0.8 1.8 0.9 1.2 6.1-3 7.3-3.6 1.1-0.6 2.2-1.1 3.2-1.6z"/>
		<path class="st1" d="m12.9 77.7c-0.1 0-0.1 0 0 0-1.4-2.3-1.6-4.6-2.2-7-0.5 0.2-0.9 0.3-1.4 0.5-0.7 0.3-1.4 0.5-2.2 0.8-2.3 0.8-4.6 1.7-6.2 3.6-0.1 0.1-0.1 0.2-0.1 0.3 0 0.2 0.1 0.3 0.3 0.4 0.3 0.3 0.7 0.5 1 0.8 0.2 0.2 0.4 0.3 0.6 0.6 0.3 0.5 0 1.2 0.2 1.7 0.5 1.2 5.8-0.9 7-1.1 0.9-0.3 2-0.4 3-0.6z"/>
		<path class="st3" d="m92.7 93.1c3.3 3.2 8.2 5.4 11.8 7.2 9.4 4.7 18 11.9 23.5 21 0.3 0.4 0.6 0.9 1 1.2 0.5 0.3 1.1 0.2 1.4-0.2 0.2-0.3 0.1-0.8 0.5-1.1 0.3-0.2 0.7 0 1.1 0 0.6 0 0.9-0.6 0.9-1.2s-0.3-1.1-0.6-1.6c-2.4-4.2-4.8-8.6-7.7-12.5-1.9-2.5-4.4-5.4-7-7.1-2.9-1.9-5-3.7-6.9-6.7-2-3-3.6-6.3-6.4-8.7-2.6-2.2-6-3.4-9.4-3.2-1.3 0.1-2.7 0.3-3.7 1.1-4.2 3.3-1.5 9 1.5 11.8z"/>
		<path class="st1" d="m132.3 118.4c-1-1.9-2.1-3.8-3.2-5.6-1.7 0.7-3.4 1.8-4.8 3.3 1.3 1.6 2.5 3.4 3.6 5.2 0.3 0.4 0.6 0.9 1 1.2 0.5 0.3 1.1 0.2 1.4-0.2 0.2-0.3 0.1-0.8 0.5-1.1 0.3-0.2 0.7 0 1.1 0 0.6 0 0.9-0.6 0.9-1.2 0.1-0.6-0.2-1.1-0.5-1.6z"/>
		<path class="st8" d="m139.1 108.9c-1-1.7-1.9-3.5-2.9-5.2-1.6 0.6-3.2 1.7-4.4 3.1 1.2 1.5 2.3 3.1 3.3 4.8 0.2 0.4 0.5 0.8 0.9 1.1 0.4 0.2 1 0.2 1.3-0.2 0.2-0.3 0.1-0.8 0.4-1s0.7 0 1 0c0.5 0 0.9-0.6 0.9-1.1 0-0.6-0.2-1.1-0.5-1.5z"/>
		<path class="st7" d="m79.6 71.3c-0.7 4.5-1.5 9-2.4 13.5-0.8 3.9-1.7 7.8-3.7 11.2-0.8 1.4-2.1 3.1-0.4 4.4 0.5 0.4 1.1 0.5 1.6 0.7 0.6 0.2 1.2 0.3 1.9 0.5 0.5 0.1 1 0.3 1.5 0.2s0.9-0.3 1.3-0.5c2.8-1.6 4.5-5.3 5.9-8.2 1.6-3.5 2.7-7.2 3.3-11 1.2-7.6 0.7-15.4-0.6-23-0.2-0.9-0.4-1.9-1-2.6-1-1.3-2.9-1.5-4.5-1.5-0.5 0-1.1 0-1.6 0.2-1.5 0.7-0.5 3.1-0.5 4.3 0.3 4-0.2 7.9-0.8 11.8z"/>
		<path class="st8" d="m82.7 61.3c-0.1 0.3-0.1 0.7 0.1 1 0.2 0.4 0.6 0.7 1.1 0.9s1.1 0.4 1.6 0.2c1-0.3 1.5-1.5 1.2-2.5-0.9-2.1-3.7-1.8-4 0.4z"/>
		<path class="st8" d="m81.7 73.1c-0.2 2 2.3 3.2 3.9 2.1 0.3-0.2 0.4-0.4 0.6-0.7 0.3-0.4 0.6-0.9 0.6-1.4 0.1-1.4-1.5-3-2.8-2.8s-2.2 1.6-2.3 2.8z"/>
		<path class="st8" d="m81.3 81.1c-0.3 0.4-0.4 1-0.6 1.5-0.1 0.6-0.3 1.2 0 1.8 0.2 0.4 0.6 0.7 1.1 0.9s1 0.3 1.6 0.2c0.4 0 0.8-0.1 1.1-0.3s0.5-0.4 0.6-0.6c0.5-0.8 0.5-2 0-2.8-0.8-1.2-2.9-2-3.8-0.7z"/>
		<path class="st8" d="m78.4 96.2c0.6 0.3 1.3 0.3 1.9 0.1 2.1-1 1.5-4.9-0.9-4.7-2.2 0.1-2.8 3.6-1 4.6z"/>
		<path class="st9" d="m68.1 62.1c-0.7-0.2-1.6-0.3-2.2 0.1-0.2 0.1-0.3 0.3-0.2 0.5s0.3 0.2 0.4 0.2c0.4 0.1 0.9 0.2 1.3 0.3s0.9 0.2 1.3 0c0.2-0.1 0.3-0.2 0.3-0.4 0-0.3-0.2-0.5-0.5-0.6s-0.6-0.1-0.7-0.4"/>
		<path class="st9" d="m74.3 59.7c-0.7-0.5-1.8-0.4-2.5 0.1-0.1 0.1-0.2 0.2-0.2 0.3s0.2 0.2 0.3 0.3c0.7 0.2 1.4 0.3 2.1 0.3 0.2 0 0.5 0 0.6-0.2 0.2-0.1 0.2-0.4 0.1-0.6s-0.4-0.3-0.6-0.2"/>
		<path class="st9" d="m72.4 64.3c-0.1 0-0.1 0.1-0.2 0.2 0 0.2 0.2 0.4 0.4 0.4 1.3 0.5 2.7 0.6 4.1 0.3s-0.7-1.3-1.2-1.4c-1.1-0.1-2.2-0.1-3.1 0.5z"/>
		<path class="st9" d="m78.5 60.6c-0.2-0.1-0.4-0.2-0.6-0.2s-0.5 0.1-0.5 0.4c-0.1 0.4 0.4 0.7 0.7 0.7s0.6 0 0.8-0.1c0.1 0 0.2-0.1 0.3-0.1 0.2-0.2-0.1-0.6-0.3-0.7-0.3-0.1-0.6-0.1-0.8-0.2"/>
		<path class="st9" d="m92.4 61.1c-0.4 0.1-1.8-0.6-1.7 0.5 0 0.9 2.1 0.4 2.6 0.4 0.1 0 0.2 0 0.3-0.1 0.2-0.2 0.1-0.5-0.1-0.6s-0.4-0.2-0.7-0.2c-0.5-0.1 0.1-0.1-0.4 0z"/>
		<path class="st9" d="m94.1 65.1c-0.5 0-0.9-0.1-1.4 0-0.4 0.1-0.9 0.3-1.1 0.7 0 0.1-0.1 0.2 0 0.3 0 0.1 0.1 0.1 0.2 0.2 1 0.4 2.1 0.6 3.1 0.7 0.5 0 1 0 1.2-0.5s-0.3-1-0.8-1.2-1.1-0.2-1.5-0.5"/>
		<path class="st9" d="m96.8 62.8c-0.3 0-0.6 0-0.9 0.1s-0.5 0.4-0.5 0.7c0.5 0.2 1 0.4 1.5 0.5 0.4 0.1 0.9 0.1 1.2-0.2 0.1-0.1 0.1-0.2 0.1-0.2 0-0.1-0.1-0.2-0.2-0.3-0.4-0.3-0.9-0.5-1.4-0.6"/>
		<path class="st10" d="m45.1 56c3.7-2 7.4-4.1 10.1-7.3 0.4-0.5 0.9-1.1 1.6-1.2 1.1-0.1 1.8 1.1 2 2.1 0.5 2.3-0.2 4.8-1.4 6.8s-3 3.7-4.9 5c-4.2 3.1-9.5 5.1-14.6 4-1-0.2-2.1-0.6-2.9-1.4-1.5-1.5-1.6-5.7 0.9-6 1.4-0.2 2.8 0.3 4.3-0.1 1.8-0.3 3.3-1.1 4.9-1.9z"/>
				<path class="st11" d="m36.7 65.3c-0.1 1.9 0.2 3.9 0.8 5.7 0.3 0.9 0.6 1.8 1 2.7 0.3 0.8 0.7 1.8 1.5 2.3 0.2 0.1 0.5 0 0.5-0.3-0.1-0.8-0.7-1.6-1-2.3-0.4-0.8-0.7-1.7-1-2.6-0.6-1.8-0.9-3.6-1.1-5.4-0.2-0.4-0.7-0.4-0.7-0.1z"/>
			<path class="st2" d="m21.3 43.4c7.2 3.6 16.1 3.2 23.5 0.4 0.3-0.1 0.2-0.5-0.1-0.4-7.7 2.5-15.7 2.8-23.3-0.3-0.1 0-0.3 0.2-0.1 0.3z"/>
			<path class="st2" d="m40.2 45c-1.4 1.9-2.5 4.2-2.8 6.6 0 0.2 0.3 0.2 0.3 0.1 0.6-2.3 1.4-4.4 2.7-6.5 0.1-0.2-0.1-0.3-0.2-0.2z"/>
			<path class="st2" d="m54 86.2c-0.2 0.4-0.3 0.8-0.4 1.2-0.1 0.3-0.1 0.7 0 1 0.1 0.1 0.2 0.1 0.2 0 0.2-0.3 0.1-0.6 0.2-0.9 0.1-0.4 0.1-0.8 0.3-1.1 0.1-0.3-0.2-0.4-0.3-0.2z"/>
			<path class="st2" d="m55 88.1c-0.1 0.6-0.2 1.7 0.3 2.1 0.1 0.1 0.2 0 0.2-0.1 0-0.3-0.2-0.6-0.2-0.9-0.1-0.3 0-0.7 0-1 0.1-0.3-0.3-0.3-0.3-0.1z"/>
			<path class="st2" d="m56 88.3c0.2 1.4 0.7 3.5 2.1 4.2 0.1 0.1 0.2-0.1 0.2-0.2-0.3-0.6-0.8-1.1-1.1-1.7-0.4-0.7-0.7-1.5-0.9-2.4 0-0.1-0.3-0.1-0.3 0.1z"/>
			<path class="st2" d="m58.4 90.7c0.2 0.7 0.6 1.4 1 1.9s0.8 1.1 1.4 1.2c0.1 0 0.2-0.1 0.1-0.2-0.3-0.5-0.9-0.9-1.3-1.3-0.4-0.5-0.8-1.1-1-1.7 0.1-0.2-0.2-0.1-0.2 0.1z"/>
			<path class="st2" d="m61.3 92.4c0.4 0.4 0.7 0.8 1.1 1.2 0.3 0.3 0.6 0.8 1 1 0.2 0.1 0.3-0.1 0.3-0.3-0.1-0.4-0.6-0.8-0.9-1-0.4-0.4-0.8-0.7-1.2-1.1-0.2-0.2-0.4 0.1-0.3 0.2z"/>
			<path class="st2" d="m64.7 94.3c0.2 0.2 0.5 0.3 0.7 0.5 0.2 0.1 0.5 0.2 0.7 0.1 0.1 0 0.1-0.1 0-0.2-0.1-0.2-0.3-0.2-0.5-0.3s-0.5-0.3-0.7-0.4c-0.1-0.2-0.4 0.1-0.2 0.3z"/>
			<path class="st2" d="m41.5 45.7c-0.3 0.2-0.6 0.3-0.9 0.5-0.2 0.1-0.5 0.2-0.6 0.5 0 0.1 0 0.1 0.1 0.1 0.3 0 0.5-0.2 0.7-0.4 0.3-0.2 0.6-0.4 0.7-0.7 0.3 0.2 0.1-0.1 0 0z"/>
			<path class="st2" d="m41.5 46.4c-0.4 0.3-0.8 0.6-1.1 1-0.2 0.3-0.7 0.7-0.7 1.1 0 0.1 0.1 0.2 0.2 0.1 0.3-0.1 0.6-0.6 0.8-0.9 0.3-0.4 0.6-0.7 1-1.1 0.2-0.1 0-0.3-0.2-0.2z"/>
			<path class="st2" d="m41.2 47.8c-0.4 0.3-0.7 0.7-1 1.1-0.2 0.3-0.6 0.8-0.6 1.2 0 0.2 0.2 0.2 0.3 0.1 0.3-0.3 0.4-0.8 0.6-1.1 0.2-0.4 0.5-0.7 0.9-1 0.2-0.1 0-0.4-0.2-0.3z"/>
			<path class="st2" d="m40.9 49.6c0 0.3 0 0.6-0.1 0.9 0 0.2-0.2 0.5 0 0.7 0.1 0.1 0.2 0.1 0.2 0 0.2-0.1 0.2-0.5 0.3-0.7v-0.9c0-0.2-0.4-0.2-0.4 0z"/>
			<path class="st2" d="m54.7 33.3c0.1 0.7 0.1 1.3 0 2-0.1 0.5-0.4 0.9-0.4 1.4 0 0.1 0.1 0.2 0.2 0.1 0.4-0.4 0.5-1 0.6-1.6 0.1-0.7 0-1.3-0.2-2 0-0.1-0.3-0.1-0.2 0.1z"/>
			<path class="st2" d="m53.7 36c0 0.5-0.1 1-0.2 1.4-0.1 0.3-0.5 0.7-0.4 1.1 0 0.1 0.1 0.1 0.1 0.1 0.4-0.1 0.6-0.7 0.7-1.1 0.1-0.5 0.2-1 0.1-1.5 0-0.3-0.3-0.2-0.3 0z"/>
			<path class="st2" d="m52.5 36.9c-0.2 0.5-0.5 1-0.8 1.5-0.2 0.2-0.3 0.5-0.5 0.7-0.1 0.2-0.3 0.3-0.3 0.5 0 0.1 0.1 0.2 0.1 0.2 0.5 0 0.8-0.7 1-1.1 0.3-0.5 0.5-1.1 0.7-1.6 0.2-0.3-0.1-0.4-0.2-0.2z"/>
			<path class="st2" d="m50.8 38.7l-0.9 0.9c-0.3 0.3-0.7 0.5-0.7 0.8 0 0.1 0.1 0.2 0.2 0.2 0.3-0.1 0.6-0.5 0.8-0.7 0.3-0.3 0.6-0.6 0.9-1 0.1-0.1-0.2-0.4-0.3-0.2z"/>
			<path class="st2" d="m48.5 40.3c-0.2 0.2-0.4 0.3-0.5 0.6 0 0.1 0.1 0.2 0.2 0.2 0.3-0.1 0.5-0.3 0.7-0.5 0.1-0.2-0.2-0.5-0.4-0.3z"/>
			<path class="st2" d="m102.3 96.5c0 0.7 0.1 1.3 0.4 1.9 0.2 0.5 0.6 1.1 1.1 1.2 0.1 0 0.3-0.1 0.2-0.2-0.2-0.5-0.6-0.8-0.9-1.3s-0.4-1.1-0.4-1.7c0-0.2-0.4-0.1-0.4 0.1z"/>
			<path class="st2" d="m104 97.6c0.2 0.5 0.3 0.9 0.6 1.4 0.2 0.3 0.4 0.8 0.8 0.9 0.1 0 0.2-0.1 0.1-0.1 0-0.4-0.4-0.6-0.6-0.9-0.3-0.4-0.5-0.9-0.7-1.3 0-0.3-0.3-0.2-0.2 0z"/>
			<path class="st2" d="m105.8 99.1c0.3 0.3 0.6 0.6 0.8 0.9 0.2 0.2 0.4 0.6 0.6 0.7 0.1 0 0.2 0 0.2-0.1 0-0.4-0.3-0.7-0.5-0.9-0.3-0.3-0.6-0.6-0.9-0.8-0.2-0.2-0.4 0.1-0.2 0.2z"/>
			<path class="st2" d="m108.2 100.7c0.2 0.2 0.6 0.6 0.9 0.4 0.1 0 0.1-0.1 0.1-0.2-0.1-0.1-0.2-0.2-0.3-0.2-0.2-0.1-0.3-0.2-0.4-0.3-0.2-0.1-0.4 0.2-0.3 0.3z"/>
			<path class="st2" d="m43.1 80.6c-0.9 1.6-1.9 3.6-1.9 5.4 0 0.2 0.3 0.2 0.3 0.1 0.3-0.9 0.5-1.8 0.8-2.7s0.7-1.7 1.1-2.6c0.1-0.2-0.2-0.4-0.3-0.2z"/>
			<path class="st2" d="m43.4 82.7c-0.4 0.9-0.9 2.3-0.6 3.3 0 0.1 0.3 0.1 0.3 0 0.2-0.4 0.1-1 0.2-1.4 0.1-0.6 0.2-1.2 0.5-1.7 0.1-0.3-0.3-0.4-0.4-0.2z"/>
			<path class="st2" d="m44 84.8c0.1 0.3 0.2 0.7 0.2 1.1 0 0.1 0.1 0.2 0.2 0.2h0.1s0.2-0.1 0.2-0.2c0-0.4-0.1-0.8-0.3-1.2-0.1-0.3-0.5-0.2-0.4 0.1z"/>
			<path class="st2" d="m44.9 85.7c0.2 0.3 0.3 0.7 0.7 0.7 0.1 0 0.1-0.1 0.2-0.1 0.1-0.3-0.3-0.6-0.5-0.8-0.2-0.3-0.6 0-0.4 0.2z"/>
		<path class="st1" d="m44 60c0.8 2 2 3.8 3.5 5.3 0.3 0.3 0.3 0.4 0.6 0.2 0.3-0.1 0.6-0.5 0.9-0.7 0.6-0.5 1.1-0.9 1.7-1.4 1-1 2-2 2.8-3.2 0.1-0.1 0.1-0.2 0.1-0.3s0-0.2-0.1-0.3c-1.7-3.2-5.4-5.1-9-5-0.4 0-0.7 0.1-1 0.3-0.2 0.2-0.3 0.5-0.3 0.8-0.1 0.9 0 1.8 0.2 2.7 0.3 0.6 0.4 1.1 0.6 1.6z"/>
			<path class="st12" d="m48.2 62c0 0.1 0.1 0 0 0-0.2-0.3-0.4-0.5-0.6-0.8s-0.4-0.5-0.7-0.8c-0.4-0.5-0.8-1-1.3-1.4 0 0-0.1 0-0.1 0.1 0.5 0.5 1 1 1.4 1.6 0.4 0.5 0.8 1.1 1.3 1.3z"/>
			<path class="st12" d="m49 63.5c0.1 0 0.1-0.1 0-0.2-0.1 0-0.2-0.1-0.2-0.1 0.1 0 0.2-0.1 0.1-0.1-1.1-0.9-2.2-1.9-3.3-2.9-0.1-0.1-0.1 0-0.1 0.1l-0.1-0.1c-0.1-0.1-0.2 0-0.1 0.1 0.3 0.6 0.9 1.1 1.4 1.6s1 1 1.6 1.5v0.1c0.1 0.1 0.2 0.2 0.3 0.2s0.1 0 0.1-0.1c0.1 0 0.1 0.1 0.2 0.1s0.2-0.1 0.1-0.2zm-2.6-2.4zm2 2.1c0.1 0.1 0 0.1 0 0zm-2.2-2.4s-0.1 0 0 0c-0.2-0.1-0.3-0.3-0.5-0.5 0.1 0.2 0.3 0.4 0.5 0.5z"/>
		<path class="st1" d="m38.1 57c-1.9 1-3.5 2.5-4.8 4.2-0.2 0.3-0.3 0.3-0.1 0.7 0.2 0.3 0.5 0.6 0.8 0.8 0.5 0.5 1.1 1 1.7 1.5 1.1 0.9 2.3 1.7 3.5 2.4 0.1 0.1 0.2 0.1 0.3 0.1s0.2-0.1 0.2-0.1c2.9-2.1 4.4-6 3.8-9.5-0.1-0.3-0.2-0.7-0.4-0.9s-0.5-0.2-0.8-0.2c-0.9 0-1.8 0.2-2.6 0.6-0.7 0-1.2 0.2-1.6 0.4z"/>
			<path class="st12" d="m34.3 61.5c0.9-1 1.9-2 3-2.8 0.5-0.4 1.1-0.9 1.7-1.3s1.2-0.7 1.7-1.1v-0.1c-0.6 0.3-1.2 0.7-1.7 1-0.6 0.4-1.1 0.8-1.6 1.2-1.3 0.9-2.3 1.9-3.1 3.1-0.2-0.1-0.1 0 0 0z"/>
			<path class="st12" d="m37.1 59.3c0.6-0.6 1.3-1.1 2-1.7 0.3-0.2 0.7-0.5 1-0.7 0.4-0.2 0.8-0.4 1.1-0.7v-0.1c-0.4 0.2-0.7 0.4-1.1 0.6s-0.8 0.5-1.1 0.8c-0.7 0.6-1.4 1.2-1.9 1.8-0.2 0-0.1 0.1 0 0z"/>
		<path class="st2" d="m38.9 64.7c0.3 0.5 0.5 1.1 0.5 1.7 0 0.1 0 0.2-0.1 0.3s-0.2 0.1-0.3 0.1c-0.7 0-1.4-0.1-2.1-0.4-0.6-0.2-1.1-0.6-1.6-0.9-1.1-0.8-2.2-1.8-2.4-3.1-0.2-1 0.3-1 1.1-0.9 0.7 0.1 1.3 0.3 1.9 0.6 1.3 0.5 2.3 1.4 3 2.6z"/>
		<path class="st8" d="m36.6 62.3c-0.2 0.3-0.3 0.7-0.4 0.9v0.2s0 0.1 0.1 0.1c0.1 0.1 0.2 0.3 0.4 0.3 0.1 0 0.2 0 0.3-0.1 0.3-0.2 0.6-0.3 0.9-0.5-0.4-0.3-0.8-0.6-1.3-0.9z"/>
		<path class="st1" d="m35.6 64.1c0.1 0.2 0.4 0.3 0.6 0.4s0.3 0.1 0.5 0c0.1-0.1 0.2-0.2 0.2-0.3 0.2-0.4-0.1-1-0.6-1-0.5-0.1-1 0.3-0.7 0.9z"/>
		<path class="st13" d="m38.4 60.6c0.6 0.2 1.3 0.4 1.9 0.6 0.3-1.6 1.1-3 2-4.3 0.2-0.2 0.3-0.5 0.3-0.8-0.1-0.5-0.8-0.7-1.1-0.4-0.5 0.4-0.9 1-1.3 1.5-0.2 0.3-2 3.3-1.8 3.4z"/>
		<path class="st13" d="m45.5 61.3c0 0.1 0.1 0.1 0.1 0.2 0.1 0.1 0.3 0 0.4 0 0.4-0.1 0.7-0.2 1-0.4-0.2-0.6-0.5-1.1-0.7-1.7-0.3-0.7-0.6-1.5-1.1-2.1-0.3-0.4-0.9-1.1-1.4-0.9-0.6 0.2 0 1 0.2 1.3 0.6 1.2 0.9 2.5 1.5 3.6z"/>
		<path class="st14" d="m39.1 51c-0.3-0.2-0.7-0.3-1-0.2-0.2 0-0.5 0.2-0.7 0.3-0.6 0.5-1 1.4-0.6 2.1 0.2 0.4 0.7 0.7 0.7 1.1 0 0.2 0 0.4-0.1 0.6l-0.3 1.5c-0.1 0.3-0.1 0.8 0.1 1 0.2 0.3 0.6 0.3 1 0.2 0.9-0.1 1.9-0.3 2.8-0.7 0.5-0.2 1.1-0.5 1.4-1 0.5-0.8 0.4-2.2-0.3-2.9-0.9-0.7-1.9-1.5-3-2z"/>
		<path class="st14" d="m44.2 53.4c1.1-0.6 2.2-1.2 3.4-1.8 0.4-0.2 0.9-0.3 1.3-0.2 0.6 0.2 0.9 0.9 1 1.6 0.1 0.5 0 1.1-0.4 1.6-0.3 0.4-0.8 0.6-1 1.1-0.1 0.3 0 0.5 0.1 0.8 0.2 0.7 0.2 1.5 0 2.2 0 0.2-0.1 0.4-0.3 0.6-0.3 0.4-0.9 0.3-1.4 0.2-0.9-0.3-1.7-0.8-2.4-1.3-0.6-0.4-1.2-0.8-1.4-1.4-0.1-0.3-0.2-0.6-0.2-0.9-0.1-0.5-0.1-1 0.1-1.5 0.3-0.6 0.8-0.8 1.2-1z"/>
						<path class="st15" d="m39.2 52.7c0.6 0.4 1.2 0.9 1.6 1.5s0.6 1.2 1.1 1.7c0.1 0.1 0.2 0 0.2-0.1-0.4-1.3-1.5-2.7-2.7-3.3-0.2 0-0.3 0.1-0.2 0.2z"/>
						<path class="st15" d="m39.1 54.8c0.5 0.1 1 0.1 1.4 0.2 0.5 0.1 0.9 0.3 1.4 0.3 0.1 0 0.2-0.2 0.1-0.2-0.8-0.4-2-0.5-2.9-0.6-0.1 0.1-0.1 0.3 0 0.3z"/>
						<path class="st15" d="m47.1 53.8c-0.8 0.1-1.7 0.2-2.5 0.6-0.6 0.2-1.3 0.6-1.4 1.2 0 0.2 0.2 0.2 0.3 0.1 0.2-0.2 0.4-0.5 0.7-0.7s0.7-0.4 1-0.5c0.6-0.2 1.3-0.4 2-0.5 0 0 0-0.2-0.1-0.2z"/>
						<path class="st15" d="m46.1 55.5c-0.6-0.3-1.3-0.6-2-0.6-0.3 0-0.7-0.1-0.9 0.3 0 0 0 0.1 0.1 0.1h1.2c0.5 0.1 1 0.2 1.5 0.5 0.1 0 0.2-0.2 0.1-0.3z"/>
		<path class="st2" d="m51.7 60.1c0.5-0.2 1.1-0.4 1.7-0.3 0.1 0 0.2 0 0.3 0.1s0.1 0.2 0 0.3c-0.1 0.7-0.3 1.4-0.7 2-0.3 0.5-0.7 1-1.1 1.5-0.9 1-2 1.9-3.4 2-1 0.1-1-0.4-0.7-1.2 0.2-0.6 0.5-1.3 0.8-1.8 0.8-1.1 1.8-2 3.1-2.6z"/>
		<path class="st8" d="m49.1 62.1c0.3 0.2 0.7 0.4 0.9 0.5 0.1 0 0.1 0.1 0.2 0.1s0.1 0 0.2-0.1 0.3-0.2 0.3-0.3v-0.3c-0.1-0.3-0.2-0.6-0.3-1-0.6 0.4-1 0.7-1.3 1.1z"/>
		<path class="st1" d="m50.7 63.3c0.2-0.1 0.4-0.3 0.5-0.5 0.1-0.1 0.1-0.3 0.1-0.5 0-0.1-0.1-0.2-0.2-0.3-0.4-0.2-1 0-1.1 0.4-0.3 0.6 0.1 1.2 0.7 0.9z"/>
		<path class="st14" d="m43.8 53.1c0.3 0.1 0.7 0.2 0.8 0.5 0.1 0.2 0 0.4 0 0.6-0.1 0.8-0.3 1.7-0.4 2.5 0 0.2-0.1 0.4-0.2 0.5s-0.3 0.2-0.4 0.2c-0.5 0.1-1.1-0.1-1.6-0.4-0.3-0.2-0.5-0.4-0.6-0.6-0.2-0.3-0.2-0.6-0.2-0.9 0-0.6 0.2-1.6 0.6-2.1 0.5-0.5 1.4-0.4 2-0.3z"/>
				<path class="st15" d="m42.6 57.4c0-0.1-0.2-0.3-0.3-0.3-0.1-0.1-0.2-0.2-0.2-0.4-0.1-0.2-0.1-0.4-0.2-0.7 0-0.6 0.2-1.1 0.3-1.7 0-0.1-0.1-0.1-0.1 0-0.3 0.6-0.5 1.4-0.3 2.1 0.1 0.3 0.2 0.5 0.4 0.7 0.1 0.1 0.2 0.4 0.4 0.3v0c0-0.1-0.1-0.1 0 0z"/>
				<path class="st15" d="m43.8 53c-0.5 0.1-0.7 0.6-0.8 1-0.1 0.3-0.2 0.7-0.2 1 0 0.2-0.1 0.5 0 0.7h0.1c-0.1-0.2 0-0.6 0.1-0.8 0-0.2 0.1-0.4 0.1-0.7 0.1-0.4 0.3-0.9 0.7-1.1 0.1 0 0.1-0.1 0-0.1z"/>
				<path class="st15" d="m43.5 54.8c-0.1 0.4-0.2 0.9-0.3 1.3 0 0.4-0.1 0.9 0 1.4 0 0.1 0.1 0 0.1 0v-1.3c0.1-0.5 0.2-1 0.2-1.4 0.1-0.1 0-0.1 0 0z"/>
	<path class="st6" d="m452 93.4c-0.4 0-0.7-0.1-0.9-0.5-0.1-0.2-12.8-23.2-44.2-20.3-0.6 0.1-1.2 0.1-1.8 0.2-10.7 1.3-23.5 4.9-37.1 8.7-30.3 8.5-64.7 18.1-97.8 10.7-0.5-0.1-0.8-0.6-0.7-1.1s0.6-0.8 1.1-0.7c32.6 7.3 66.8-2.2 96.9-10.7 13.7-3.8 26.6-7.4 37.4-8.8 33.9-4.2 47.7 20.8 47.8 21.1 0.2 0.4 0.1 1-0.4 1.2-0.1 0.2-0.2 0.2-0.3 0.2z"/>
		<path class="st1" d="m266.6 47.9c2.1-1.6 4.7-2.3 6.8-3.8 2.3-1.5 4-3.9 4.8-6.5 0.6-1.9 0.8-4.1 2.2-5.4 0.4 0.9 0.1 2-0.1 3-0.9 3.4-2 6.9-4.5 9.3-1.8 1.8-4.3 2.7-6.5 3.9s-4.5 2.8-5.3 5.3c-0.4 1.2-0.4 2.6-0.6 3.9-0.2 0.9-1 3.9-2.5 3.3-1.2-0.5 0.2-3.7 0.5-4.6 1.1-3.2 2.5-6.3 5.2-8.4z"/>
		<path class="st1" d="m272.7 34.4c0 1.4-0.4 2.8-0.4 4.2s0.4 2.9 1.5 3.8c0.4 0.4 1.1 0.8 0.9 1.3-0.1 0.2-0.3 0.4-0.5 0.5-0.6 0.3-1.4 0.1-2-0.3-0.5-0.4-0.9-1.1-1.1-1.7-0.9-2.6-0.7-6.7 1.4-8.6 0.2 0.2 0.2 0.5 0.2 0.8z"/>
		<path class="st2" d="m260.9 52.3c-0.4-1.6 0.2-3.4 1.4-4.4-1.3 0.1-2.6 0.8-3.6 1.7s-1.7 2.1-2.2 3.4c-0.3 0.7-0.6 1.5-0.5 2.4 0 1.8 2.4 3.7 4.1 2.5 1.6-1.3 1.1-4 0.8-5.6z"/>
		<path class="st2" d="m323.9 119.3c3.4 3.1 8.3 5.1 12 6.8 9.5 4.4 18.3 11.2 24 20.1 0.3 0.4 0.6 0.9 1 1.1 0.5 0.2 1.1 0.2 1.4-0.3 0.2-0.3 0.1-0.8 0.4-1.1 0.3-0.2 0.7 0 1.1 0 0.6 0 0.9-0.7 0.9-1.2 0-0.6-0.3-1.1-0.6-1.5-2.5-4.1-5-8.4-8-12.2-1.9-2.4-4.5-5.2-7.2-6.8-3-1.8-5.1-3.5-7.1-6.4s-3.8-6.2-6.6-8.4c-2.6-2.1-6.1-3.2-9.4-2.9-1.3 0.1-2.6 0.4-3.7 1.2-4.1 3.2-1.2 8.8 1.8 11.6z"/>
		<path class="st2" d="m225.2 126.8c-1.7 2-3.3 4.1-3.8 6.7v0.4c0.1 0.2 0.3 0.2 0.5 0.2 0.5 0.1 0.9 0.1 1.4 0.2 0.3 0 0.6 0.1 0.8 0.2 0.5 0.3 0.6 1.1 1.1 1.5 1.1 0.9 4.9-4 5.9-4.8 2.2-1.9 4.5-3.7 6.9-5.3 4.8-3.2 10-5.8 15.4-7.8 4.2-1.5 8.8-2.7 12-5.8 1-1 1.8-2.1 1.9-3.5 0.2-3-3.3-5.5-6-5.7-2.9-0.3-6.8 2.2-9.4 3.5-5.8 2.8-11.9 6.3-17 10.3-3 2.4-5.7 5.2-8.1 8.1-0.5 0.6-1 1.2-1.6 1.8z"/>
		<path class="st3" d="m273.5 82.1c1 2.9 2.7 6 5.7 6.9 1.5 0.5 3.2 0.3 4.8 0.2 17.7-1.6 36.3 0.9 51.1 10.7 2.7 1.8 5.5 4.1 6.3 7.3 0.7 2.9-0.2 5.9-1.6 8.5-4.7 9.1-14 15.3-23.8 18.1-14.7 4.3-31.3 1.8-44-6.7-8.8-5.8-15.9-14.6-18.7-24.8s-1-21.8 5.7-30c1.6-1.9 3.5-3.7 5.7-4.9 1.4-0.8 5-2.6 6.6-1.5 1.5 1 0.4 5.6 0.5 7.3 0.1 3.1 0.7 6.1 1.7 8.9z"/>
		<path class="st3" d="m257.8 56.8c-2.4 1-4.5 2.6-6.6 4.2-4.2 3.2-8.7 6.6-14 6.9-1.6 0.1-3.2-0.1-4.8-0.5-0.4-0.1-0.9-0.2-1.2 0.1-0.5 0.4-0.2 1.2 0.1 1.7 2.8 4.4 7.6 7.1 12.6 8.3 5 1.1 10.3 0.8 15.4 0 3.2-0.5 6.4-1.3 9.2-3s5-4.5 5.3-7.7-2.2-6.8-4.6-8.7c-3.2-2.8-7.7-2.9-11.4-1.3z"/>
		<path class="st4" d="m236.3 67.9c-1.3 0-2.6-0.2-3.9-0.5-0.4-0.1-0.9-0.2-1.2 0.1-0.5 0.4-0.2 1.2 0.1 1.7 1.1 1.7 2.5 3.2 4.1 4.4 0.6-0.4 1.2-0.8 1.5-1.5 0.5-1 0.3-2.3-0.2-3.3-0.1-0.3-0.3-0.6-0.4-0.9z"/>
		<path class="st3" d="m269.3 61.2c0.7-1.4 1.8-2.7 3-3.8 0.5-0.4 1.1-0.8 1.8-1.1 2.4-1 5.5-0.1 7.5-1.7-1.1 4.8-5.4 8.7-10.3 9.3-0.5 0.1-1.1 0.1-1.6-0.1-1.1-0.6-0.9-1.8-0.4-2.6z"/>
		<path class="st1" d="m274.9 48.6c2.7-1 5.7-1 8.4-1.8 2.9-0.9 5.5-2.8 7.2-5.4 1.2-1.8 2.1-4.1 4.1-5 0.1 1.1-0.5 2.2-1.1 3.1-2 3.3-4.3 6.7-7.7 8.4-2.5 1.3-5.4 1.5-8.2 2.1s-5.7 1.6-7.3 3.9c-0.8 1.2-1.2 2.6-1.9 3.9-0.5 0.9-2.3 3.8-3.7 2.7-1.2-0.9 1.4-3.9 1.9-4.7 2.3-3 4.8-5.9 8.3-7.2z"/>
		<path class="st1" d="m285.7 36.1c-0.5 1.5-1.3 2.9-1.7 4.4s-0.5 3.2 0.4 4.5c0.4 0.5 0.9 1.2 0.6 1.7-0.1 0.2-0.4 0.3-0.7 0.4-0.8 0.1-1.5-0.3-2-1-0.4-0.6-0.6-1.4-0.6-2.2-0.2-3 1.3-7.3 4.2-8.7 0 0.4-0.1 0.6-0.2 0.9z"/>
		<path class="st5" d="m255.9 67.7c0.1-0.9 0.5-1.8 1.2-2.3s1.8-0.5 2.5 0.1c0.7 0.7 0.5 1.8 0.4 2.8"/>
		<path class="st5" d="m248.3 73.1c0.3 0.8 1 1.4 1.8 1.6s1.8-0.1 2.3-0.8"/>
		<path class="st3" d="m334.2 102.3c-0.1 0.9 0.1 1.9 0.5 2.8 1.1 1.9 3.3 2.8 5.4 3 3.2 0.4 6.5-0.9 8.6-3.4 2-2.5 2.6-6.1 1.6-9.1-0.1-0.4-0.4-0.8-0.8-0.7-0.2 0.1-0.3 0.2-0.4 0.4-1.6 2.5-4.5 4-7.4 3.8-1.5-0.1-3.1-0.6-4.6-0.2-1.7 0.5-2.7 1.9-2.9 3.4z"/>
		<path class="st6" d="m273.8 86.3c1.3-0.3 2.5-0.4 3.5 0.5 0.5 0.4 1 0.9 1.6 1 0.5 0.1 1.3-0.1 1.5 0.4 0.1 0.1 0.1 0.3 0.1 0.4 0 1.8-1.1 3.4-2.5 4.4-5.4 4-13.5 3.3-19.7 1.9-2.4-0.5-4.9-1.3-6.6-3.2-1.3-1.4-2.1-4.1-0.8-5.8 1.5-1.9 3.9-0.7 5.8-0.2 5.6 1.6 11.5 1.8 17.1 0.6z"/>
		<path class="st3" d="m234.1 134.7c-2 2.3-3.8 4.7-4.3 7.7v0.4c0.1 0.2 0.3 0.2 0.5 0.2 0.5 0.1 1 0.1 1.6 0.2 0.3 0 0.7 0.1 1 0.3 0.6 0.4 0.7 1.2 1.3 1.7 1.3 1 5.7-4.6 6.8-5.6 2.5-2.2 5.2-4.2 7.9-6.1 5.5-3.7 11.5-6.7 17.8-9 4.9-1.7 10.2-3.1 13.8-6.7 1.1-1.1 2.1-2.5 2.2-4 0.2-3.4-3.8-6.3-6.9-6.6-3.4-0.3-7.9 2.6-10.9 4-6.7 3.3-13.7 7.2-19.6 11.9-3.5 2.7-6.5 6-9.4 9.4-0.6 0.8-1.2 1.5-1.8 2.2z"/>
		<path class="st1" d="m243.9 137.2s-0.1 0-0.1-0.1c-2.8-1.6-4.5-3.9-6.6-6-0.4 0.5-0.8 0.9-1.2 1.4-0.6 0.7-1.2 1.4-1.9 2.2-2 2.3-3.8 4.7-4.3 7.7v0.4c0.1 0.2 0.3 0.2 0.5 0.2 0.5 0.1 1 0.1 1.6 0.2 0.3 0 0.7 0.1 1 0.3 0.6 0.4 0.7 1.2 1.3 1.7 1.3 1 5.7-4.6 6.8-5.6 0.9-0.8 1.9-1.6 2.9-2.4z"/>
		<path class="st1" d="m233.7 129s-0.1 0-0.1-0.1c-2.4-1.4-3.9-3.3-5.7-5.2-0.4 0.4-0.7 0.8-1 1.2-0.5 0.6-1.1 1.2-1.6 1.9-1.7 2-3.3 4.1-3.8 6.7v0.4c0.1 0.2 0.3 0.2 0.5 0.2 0.5 0.1 0.9 0.1 1.4 0.2 0.3 0 0.6 0.1 0.8 0.2 0.5 0.3 0.6 1.1 1.1 1.5 1.1 0.9 4.9-4 5.9-4.8 0.8-0.8 1.6-1.5 2.5-2.2z"/>
		<path class="st3" d="m313.6 127.8c3.7 3.3 9 5.5 13 7.3 10.3 4.7 19.8 12.2 26 21.7 0.3 0.5 0.6 1 1.1 1.2 0.5 0.3 1.2 0.2 1.5-0.3 0.2-0.4 0.1-0.9 0.5-1.2 0.3-0.2 0.8 0 1.2 0 0.6-0.1 1-0.7 1-1.3s-0.3-1.2-0.7-1.7c-2.7-4.5-5.4-9.1-8.7-13.2-2.1-2.6-4.9-5.7-7.8-7.4-3.2-1.9-5.5-3.8-7.7-6.9-2.2-3.2-4.1-6.7-7.2-9.1-2.9-2.3-6.6-3.4-10.2-3.1-1.4 0.1-2.9 0.5-4 1.3-4.4 3.7-1.3 9.7 2 12.7z"/>
		<path class="st1" d="m357.1 153.6c-1.2-2-2.4-4-3.6-5.9-1.8 0.8-3.6 2.1-5 3.7 1.5 1.7 2.8 3.5 4.1 5.4 0.3 0.5 0.6 1 1.1 1.2 0.5 0.3 1.2 0.2 1.5-0.3 0.2-0.4 0.1-0.9 0.5-1.2 0.3-0.2 0.8 0 1.2 0 0.6-0.1 1-0.7 1-1.3-0.2-0.5-0.5-1.1-0.8-1.6z"/>
		<path class="st1" d="m364.1 143.1c-1.1-1.8-2.2-3.7-3.3-5.5-1.7 0.7-3.3 1.9-4.6 3.5 1.4 1.6 2.6 3.3 3.8 5 0.3 0.4 0.6 0.9 1 1.1 0.5 0.2 1.1 0.2 1.4-0.3 0.2-0.3 0.1-0.8 0.4-1.1 0.3-0.2 0.7 0 1.1 0 0.6 0 0.9-0.7 0.9-1.2-0.1-0.5-0.4-1-0.7-1.5z"/>
		<path class="st6" d="m298.8 104.7c-0.6 4.9-1.3 9.8-2.1 14.6-0.7 4.2-1.6 8.4-3.6 12.2-0.8 1.5-2.2 3.4-0.3 4.8 0.5 0.4 1.2 0.5 1.8 0.7 0.7 0.2 1.4 0.3 2 0.5 0.5 0.1 1.1 0.3 1.7 0.2 0.5-0.1 1-0.3 1.4-0.6 3-1.8 4.7-5.9 6-9 1.6-3.8 2.6-7.8 3.1-11.9 1-8.2 0.2-16.6-1.5-24.7-0.2-1-0.5-2-1.1-2.8-1.1-1.3-3.1-1.5-4.9-1.4-0.6 0-1.2 0-1.7 0.3-1.6 0.9-0.4 3.4-0.3 4.7 0.4 4 0 8.2-0.5 12.4z"/>
		<path class="st16" d="m301.7 93.9c0 0.4-0.1 0.7 0.1 1 0.2 0.5 0.7 0.7 1.2 0.9 0.6 0.2 1.2 0.4 1.8 0.2 1.1-0.3 1.6-1.7 1.2-2.7-1-2.2-4-1.8-4.3 0.6z"/>
		<path class="st16" d="m301.1 106.6c-0.1 2.1 2.6 3.3 4.3 2.1 0.3-0.2 0.5-0.5 0.6-0.8 0.3-0.5 0.6-1 0.6-1.6 0.1-1.5-1.7-3.1-3.1-2.9-1.4 0.3-2.3 1.9-2.4 3.2z"/>
		<path class="st16" d="m300.9 115.3c-0.3 0.5-0.4 1-0.6 1.6-0.1 0.6-0.3 1.3 0 1.9 0.2 0.5 0.7 0.7 1.2 0.9s1.1 0.3 1.7 0.2c0.4 0 0.8-0.2 1.2-0.4 0.3-0.2 0.5-0.4 0.7-0.7 0.6-0.9 0.5-2.1-0.1-3-0.8-1.3-3.1-2-4.1-0.5z"/>
		<path class="st16" d="m298.3 131.6c0.6 0.3 1.4 0.3 2 0 2.2-1.1 1.5-5.3-1.2-5-2.2 0.1-2.7 3.9-0.8 5z"/>
		<path class="st9" d="m286.1 95.2c-0.8-0.2-1.7-0.3-2.4 0.2-0.2 0.1-0.3 0.4-0.2 0.6s0.3 0.2 0.5 0.2c0.5 0.1 1 0.2 1.4 0.2 0.5 0.1 1 0.1 1.4-0.1 0.2-0.1 0.3-0.2 0.3-0.4 0-0.3-0.3-0.5-0.6-0.6s-0.6-0.1-0.8-0.4"/>
		<path class="st9" d="m292.6 92.5c-0.8-0.5-1.9-0.4-2.7 0.2-0.1 0.1-0.2 0.2-0.2 0.3 0 0.2 0.2 0.2 0.3 0.3 0.7 0.2 1.5 0.3 2.2 0.3 0.2 0 0.5 0 0.7-0.2s0.2-0.4 0.1-0.6-0.4-0.3-0.6-0.2"/>
		<path class="st9" d="m290.8 97.5l-0.2 0.2c-0.1 0.2 0.2 0.4 0.4 0.4 1.4 0.5 3 0.5 4.4 0.2 1.5-0.4-0.8-1.4-1.3-1.5-1.2-0.1-2.4-0.1-3.3 0.7z"/>
		<path class="st9" d="m297.2 93.3c-0.2-0.1-0.5-0.2-0.7-0.2s-0.5 0.2-0.5 0.4c-0.1 0.4 0.4 0.7 0.8 0.7 0.3 0 0.6 0 0.9-0.1 0.1 0 0.2-0.1 0.3-0.2 0.2-0.2-0.1-0.6-0.4-0.7s-0.6 0-0.9-0.2"/>
		<path class="st9" d="m312.2 93.3c-0.5 0.1-1.9-0.5-1.9 0.6 0.1 1 2.2 0.4 2.8 0.3 0.1 0 0.3 0 0.3-0.1 0.2-0.2 0.1-0.5-0.1-0.6-0.2-0.2-0.5-0.2-0.7-0.2-0.5-0.1 0.1-0.1-0.4 0z"/>
		<path class="st9" d="m314.1 97.6c-0.5 0-1-0.1-1.5 0s-0.9 0.4-1.1 0.8c0 0.1-0.1 0.2 0 0.3 0 0.1 0.1 0.1 0.2 0.2 1.1 0.4 2.2 0.6 3.4 0.6 0.5 0 1.1-0.1 1.3-0.6s-0.3-1.1-0.9-1.2c-0.6-0.2-1.2-0.1-1.7-0.4"/>
		<path class="st9" d="m317 95c-0.3 0-0.7 0-0.9 0.1-0.3 0.1-0.5 0.4-0.5 0.8 0.5 0.2 1 0.4 1.6 0.5 0.5 0.1 1 0.1 1.3-0.3 0.1-0.1 0.1-0.2 0.1-0.3s-0.1-0.2-0.2-0.3c-0.4-0.3-0.9-0.5-1.5-0.6"/>
		<path class="st10" d="m261.1 89.5c3.9-2.2 7.9-4.6 10.6-8.2 0.4-0.6 0.9-1.2 1.6-1.3 1.2-0.2 2 1.1 2.3 2.2 0.6 2.5 0 5.1-1.3 7.4-1.3 2.2-3.1 4-5.1 5.6-4.4 3.4-10.1 5.8-15.6 4.8-1.1-0.2-2.3-0.6-3.1-1.4-1.7-1.6-1.9-6.1 0.8-6.5 1.5-0.2 3 0.2 4.6-0.2 1.9-0.6 3.6-1.5 5.2-2.4z"/>
				<path class="st11" d="m252.4 99.8c0 2.1 0.4 4.1 1 6.1 0.3 1 0.7 1.9 1.2 2.8 0.4 0.8 0.9 2 1.7 2.5 0.3 0.2 0.5-0.1 0.5-0.4-0.1-0.5-0.4-0.9-0.6-1.3s-0.4-0.8-0.6-1.2c-0.5-0.9-0.9-1.9-1.2-2.8-0.6-1.9-1.1-3.8-1.3-5.7-0.2-0.4-0.7-0.3-0.7 0z"/>
				<path class="st2" d="m235.3 74c7.4 4.6 16.9 5.2 25.2 3 0.2-0.1 0.1-0.5-0.1-0.4-8.5 1.8-17.2 1.3-24.9-2.8-0.2-0.1-0.3 0.1-0.2 0.2z"/>
				<path class="st2" d="m255.5 77.8c-1.4 2.1-2.5 4.6-2.8 7.2 0 0.2 0.3 0.2 0.3 0.1 0.6-2.5 1.4-4.9 2.7-7.1 0.1-0.2-0.1-0.3-0.2-0.2z"/>
				<path class="st2" d="m271.8 121.6c-0.2 0.4-0.3 0.9-0.3 1.3s-0.1 0.8 0.1 1.1c0.1 0.1 0.2 0.1 0.2 0 0.1-0.3 0.1-0.7 0.1-1 0-0.4 0.1-0.8 0.3-1.2 0-0.2-0.3-0.4-0.4-0.2z"/>
				<path class="st2" d="m272.9 123.6c-0.1 0.6-0.2 1.8 0.4 2.2 0.1 0.1 0.2 0 0.2-0.1 0-0.3-0.2-0.6-0.3-1s-0.1-0.7 0-1.1c0.1-0.1-0.3-0.2-0.3 0z"/>
				<path class="st2" d="m274 123.8c0.2 1.5 0.9 3.7 2.4 4.4 0.1 0.1 0.2-0.1 0.2-0.2-0.3-0.6-0.8-1.1-1.2-1.7-0.5-0.8-0.9-1.7-1-2.6-0.1-0.1-0.4-0.1-0.4 0.1z"/>
				<path class="st2" d="m276.7 126.3c0.3 0.7 0.6 1.4 1.2 2.1 0.4 0.5 0.9 1.1 1.6 1.2 0.1 0 0.2-0.1 0.1-0.2-0.3-0.5-1-0.9-1.4-1.4-0.5-0.5-0.9-1.2-1.1-1.8-0.2-0.2-0.5-0.1-0.4 0.1z"/>
				<path class="st2" d="m279.9 128.1l1.2 1.2c0.3 0.3 0.6 0.8 1 0.9 0.2 0.1 0.3-0.1 0.3-0.3-0.2-0.4-0.6-0.8-1-1.1-0.4-0.4-0.8-0.8-1.3-1.1-0.2-0.1-0.4 0.3-0.2 0.4z"/>
				<path class="st2" d="m283.5 130c0.2 0.2 0.5 0.4 0.8 0.5 0.2 0.1 0.5 0.2 0.8 0.1 0.1 0 0.1-0.1 0-0.2-0.2-0.2-0.4-0.2-0.6-0.3-0.3-0.1-0.5-0.3-0.7-0.4-0.2-0.2-0.5 0.1-0.3 0.3z"/>
				<path class="st2" d="m256.9 78.5l-0.9 0.6c-0.2 0.2-0.5 0.3-0.6 0.6 0 0.1 0.1 0.1 0.1 0.1 0.3 0 0.5-0.3 0.7-0.5 0.3-0.2 0.6-0.4 0.8-0.6 0.2-0.1 0.1-0.3-0.1-0.2z"/>
				<path class="st2" d="m256.9 79.3c-0.4 0.3-0.8 0.7-1.2 1.1-0.3 0.3-0.8 0.8-0.7 1.2 0 0.1 0.1 0.2 0.2 0.1 0.4-0.1 0.6-0.7 0.8-1 0.3-0.4 0.7-0.8 1-1.2 0.3-0.1 0.1-0.4-0.1-0.2z"/>
				<path class="st2" d="m256.7 80.8c-0.4 0.4-0.8 0.8-1.1 1.2s-0.6 0.9-0.6 1.3c0 0.2 0.2 0.2 0.3 0.1 0.3-0.3 0.4-0.8 0.6-1.2 0.3-0.4 0.6-0.8 1-1.2 0.2-0.1 0-0.3-0.2-0.2z"/>
				<path class="st2" d="m256.4 82.8c0 0.3 0 0.6-0.1 0.9 0 0.3-0.1 0.5 0 0.7 0 0.1 0.2 0.1 0.2 0 0.2-0.2 0.2-0.5 0.2-0.8s0-0.6 0-1c0.1-0.1-0.3-0.1-0.3 0.2z"/>
				<path class="st2" d="m272.2 66.8c0.1 0.7 0 1.3-0.2 1.9s-0.5 1.1-0.6 1.6c0 0.1 0.1 0.2 0.2 0.1 1-0.8 1-2.6 0.8-3.7 0-0.1-0.2-0.1-0.2 0.1z"/>
				<path class="st2" d="m270.8 69.5c0 0.5-0.2 1-0.4 1.5-0.2 0.3-0.6 0.7-0.5 1.1 0 0.1 0.1 0.1 0.1 0.1 0.4-0.1 0.7-0.7 0.8-1.1 0.2-0.5 0.3-1.1 0.3-1.6 0-0.1-0.3-0.2-0.3 0z"/>
				<path class="st2" d="m269.5 70.4c-0.3 0.5-0.6 1.1-1 1.5-0.3 0.3-0.9 0.7-0.9 1.1 0 0.1 0.1 0.2 0.2 0.2 0.5 0 0.9-0.7 1.2-1.1 0.4-0.5 0.7-1 0.9-1.6 0-0.2-0.3-0.3-0.4-0.1z"/>
				<path class="st2" d="m267.4 72.1c-0.4 0.3-0.7 0.6-1.1 0.9-0.3 0.2-0.7 0.5-0.8 0.8 0 0.1 0 0.2 0.1 0.2 0.4-0.1 0.7-0.4 0.9-0.7 0.4-0.3 0.7-0.6 1-0.9 0.3-0.1 0.1-0.4-0.1-0.3z"/>
				<path class="st2" d="m264.8 73.6c-0.2 0.2-0.5 0.3-0.6 0.6 0 0.1 0 0.2 0.1 0.2 0.3 0 0.5-0.2 0.7-0.4 0.3-0.2 0.1-0.6-0.2-0.4z"/>
				<path class="st2" d="m324.1 131.1c0 0.7 0.2 1.4 0.5 2 0.3 0.5 0.6 1.1 1.2 1.3 0.1 0 0.3-0.1 0.2-0.2-0.2-0.5-0.7-0.8-0.9-1.2-0.4-0.6-0.5-1.2-0.6-1.9 0-0.3-0.4-0.3-0.4 0z"/>
				<path class="st2" d="m325.9 132.2c0.2 0.5 0.4 1 0.7 1.4 0.2 0.3 0.5 0.9 0.9 1 0.1 0 0.2-0.1 0.1-0.1-0.1-0.4-0.5-0.7-0.7-1-0.3-0.4-0.6-0.9-0.7-1.4-0.1-0.2-0.4-0.1-0.3 0.1z"/>
				<path class="st2" d="m327.9 133.7l0.9 0.9c0.2 0.2 0.4 0.7 0.7 0.8 0.1 0 0.2 0 0.2-0.2 0-0.4-0.4-0.7-0.6-0.9-0.3-0.3-0.6-0.6-1-0.9-0.2-0.1-0.4 0.2-0.2 0.3z"/>
				<path class="st2" d="m330.6 135.4c0.2 0.2 0.7 0.6 1 0.5 0.1 0 0.1-0.1 0.1-0.2-0.1-0.1-0.2-0.2-0.4-0.2-0.2-0.1-0.3-0.2-0.5-0.3-0.2-0.2-0.4 0-0.2 0.2z"/>
				<path class="st2" d="m260.2 118.8c-0.5 1.8-1 4.1-0.7 6 0 0.2 0.3 0.2 0.3 0 0.3-2 0.2-4 0.7-6 0.1-0.2-0.2-0.3-0.3 0z"/>
				<path class="st2" d="m261.1 120.8c-0.2 1.1-0.4 2.6 0.2 3.6 0.1 0.1 0.3 0.1 0.3-0.1 0-0.5-0.1-1-0.1-1.5 0-0.6 0-1.3 0.1-1.9-0.1-0.2-0.5-0.3-0.5-0.1z"/>
				<path class="st2" d="m262.2 122.8c0.2 0.3 0.4 0.7 0.5 1.1 0 0.1 0.1 0.2 0.2 0.1h0.1s0.2-0.2 0.1-0.3c-0.1-0.4-0.3-0.8-0.6-1.1-0.1-0.2-0.4 0-0.3 0.2z"/>
				<path class="st2" d="m263.4 123.6c0.2 0.2 0.5 0.6 0.8 0.6 0.1 0 0.2-0.1 0.2-0.2 0-0.3-0.5-0.5-0.7-0.7-0.3-0.2-0.6 0.1-0.3 0.3z"/>
				<path class="st2" d="m271.6 73c0 2.5 0.3 5 1.2 7.2 0.1 0.2 0.5 0.1 0.4-0.1-0.9-2.3-1.1-4.7-1.3-7.1-0.1-0.2-0.3-0.2-0.3 0z"/>
				<path class="st2" d="m280.5 89.5c3 0 6-0.3 8.9-0.5s6-0.5 8.9 0c0.3 0 0.3-0.3 0.1-0.4-2.7-0.7-5.7-0.3-8.5-0.2-3.2 0.1-6.3 0.3-9.5 0.7-0.1 0.2-0.1 0.4 0.1 0.4z"/>
				<path class="st2" d="m307.1 89.8c1.8 0.3 3.7 1 5.5 1 0.1 0 0.2-0.2 0.1-0.2-1.6-0.8-3.7-0.9-5.5-1.1-0.3 0-0.3 0.3-0.1 0.3z"/>
		<path class="st1" d="m252.8 100.3c1 2.6 2.6 4.9 4.6 6.9 0.4 0.4 0.4 0.5 0.8 0.3s0.8-0.6 1.1-0.9c0.7-0.6 1.5-1.2 2.1-1.9 1.3-1.2 2.5-2.6 3.6-4.1 0.1-0.1 0.2-0.2 0.2-0.4 0-0.1 0-0.2-0.1-0.3-2.2-4.1-6.9-6.6-11.5-6.4-0.5 0-0.9 0.1-1.3 0.4-0.3 0.3-0.4 0.6-0.4 1-0.2 1.2 0 2.3 0.3 3.5 0.2 0.7 0.4 1.3 0.6 1.9z"/>
			<path class="st12" d="m258.2 102.9c0.1 0 0.1 0 0.1-0.1l-0.9-0.9s-0.6-0.7-0.9-1c-0.5-0.6-1-1.2-1.7-1.7-0.1 0-0.1 0-0.1 0.1 0.7 0.6 1.2 1.3 1.8 2 0.5 0.5 1 1.3 1.7 1.6z"/>
			<path class="st12" d="m259.2 104.8c0.1-0.1 0.1-0.2 0-0.2-0.1-0.1-0.2-0.1-0.3-0.2 0.1 0 0.3-0.1 0.1-0.2-1.4-1.2-2.9-2.5-4.2-3.7-0.1-0.1-0.2 0-0.1 0.1l-0.1-0.1c-0.1-0.1-0.2 0-0.2 0.1 0.4 0.8 1.1 1.5 1.8 2.1s1.3 1.3 2 1.9v0.1c0.1 0.1 0.2 0.2 0.4 0.3 0.1 0.1 0.2 0 0.2-0.1 0.1 0 0.2 0.1 0.2 0.1 0.2 0 0.3-0.1 0.2-0.2zm-3.4-3.1l0.1 0.1-0.1-0.1v0zm2.7 2.8l-0.1-0.1 0.1 0.1v0zm-2.9-3.2c-0.1 0-0.1 0 0 0l-0.6-0.6c0.1 0.2 0.4 0.4 0.6 0.6z"/>
		<path class="st1" d="m245.2 96.5c-2.4 1.3-4.5 3.2-6.2 5.4-0.3 0.4-0.4 0.4-0.2 0.8s0.7 0.7 1 1c0.7 0.7 1.4 1.3 2.1 1.9 1.4 1.1 2.9 2.2 4.5 3 0.1 0.1 0.2 0.1 0.4 0.1 0.1 0 0.2-0.1 0.3-0.1 3.8-2.7 5.6-7.7 4.8-12.3-0.1-0.4-0.2-0.9-0.6-1.2-0.3-0.2-0.7-0.3-1-0.3-1.2 0-2.3 0.3-3.4 0.8-0.6 0.3-1.2 0.6-1.7 0.9z"/>
			<path class="st12" d="m240.3 102.2c1.2-1.3 2.4-2.5 3.8-3.6 0.7-0.6 1.4-1.1 2.2-1.6 0.7-0.5 1.5-0.9 2.2-1.4 0.1 0 0-0.2-0.1-0.1-0.8 0.3-1.5 0.9-2.2 1.3-0.7 0.5-1.4 1-2.1 1.6-1.4 1.1-2.7 2.4-3.9 3.8-0.1-0.1 0 0.1 0.1 0z"/>
			<path class="st12" d="m243.9 99.4c0.8-0.8 1.7-1.5 2.6-2.1 0.4-0.3 0.8-0.6 1.3-0.9s1-0.6 1.4-0.9c0.1 0 0-0.1-0.1-0.1-0.5 0.2-0.9 0.5-1.4 0.8s-1 0.7-1.4 1c-0.9 0.7-1.7 1.4-2.4 2.2-0.2 0-0.1 0.1 0 0z"/>
		<path class="st2" d="m246.3 106.3c0.4 0.7 0.7 1.4 0.7 2.2 0 0.1 0 0.3-0.1 0.4s-0.3 0.1-0.4 0.1c-0.9 0-1.8-0.2-2.7-0.5-0.7-0.3-1.4-0.7-2.1-1.2-1.4-1-2.8-2.3-3.1-4-0.2-1.2 0.4-1.3 1.4-1.2 0.9 0.1 1.7 0.4 2.5 0.7 1.5 0.8 2.9 2 3.8 3.5z"/>
		<path class="st8" d="m243.3 103.3c-0.2 0.4-0.4 0.9-0.5 1.2 0 0.1-0.1 0.1-0.1 0.2s0.1 0.1 0.1 0.2c0.1 0.2 0.3 0.4 0.5 0.4 0.1 0 0.3-0.1 0.4-0.1l1.2-0.6c-0.5-0.5-1-1-1.6-1.3z"/>
		<path class="st1" d="m242 105.5c0.2 0.3 0.5 0.4 0.7 0.5s0.4 0.1 0.6 0c0.1-0.1 0.2-0.2 0.3-0.4 0.2-0.5-0.2-1.3-0.8-1.3-0.5 0-1.2 0.6-0.8 1.2z"/>
		<path class="st13" d="m245.6 101.1c0.8 0.3 1.6 0.6 2.5 0.8 0.4-2 1.4-3.8 2.6-5.5 0.2-0.3 0.4-0.7 0.4-1-0.1-0.7-1-0.9-1.5-0.6-0.6 0.5-1.2 1.3-1.7 1.9-0.3 0.3-2.6 4.3-2.3 4.4z"/>
		<path class="st13" d="m254.7 102c0 0.1 0.1 0.2 0.2 0.2 0.1 0.1 0.3 0 0.5 0 0.5-0.2 0.9-0.3 1.3-0.5-0.3-0.7-0.6-1.5-0.9-2.2-0.4-1-0.8-1.9-1.4-2.7-0.4-0.5-1.2-1.4-1.9-1.1-0.8 0.3 0.1 1.2 0.3 1.7 0.7 1.5 1.2 3.1 1.9 4.6z"/>
		<path class="st14" d="m246.4 88.7c-0.4-0.2-0.9-0.4-1.3-0.3-0.3 0.1-0.6 0.2-0.8 0.4-0.8 0.6-1.3 1.8-0.8 2.7 0.3 0.5 0.8 0.9 0.9 1.4 0 0.2 0 0.5-0.1 0.7-0.1 0.6-0.3 1.3-0.4 1.9-0.1 0.4-0.2 1 0.1 1.3s0.8 0.3 1.2 0.3c1.2-0.1 2.4-0.4 3.6-0.8 0.7-0.3 1.4-0.6 1.8-1.2 0.6-1 0.5-2.8-0.4-3.7-1-1.1-2.3-2-3.8-2.7z"/>
		<path class="st14" d="m253.1 91.7c1.4-0.8 2.9-1.6 4.4-2.3 0.5-0.2 1.1-0.4 1.7-0.3 0.8 0.2 1.2 1.2 1.3 2 0.1 0.7 0 1.5-0.5 2-0.4 0.5-1.1 0.8-1.3 1.4-0.1 0.3 0 0.7 0.1 1 0.2 0.9 0.2 1.9 0 2.9-0.1 0.3-0.1 0.6-0.3 0.8-0.4 0.5-1.1 0.4-1.7 0.3-1.1-0.3-2.1-1-3.1-1.7-0.7-0.5-1.5-1-1.8-1.8-0.2-0.4-0.2-0.8-0.3-1.2-0.1-0.6-0.1-1.3 0.1-1.9s0.8-0.8 1.4-1.2z"/>
						<path class="st15" d="m246.6 90.9c0.8 0.5 1.5 1.1 2 1.9 0.5 0.7 0.8 1.6 1.4 2.2 0.1 0.1 0.3 0.1 0.3-0.1-0.5-1.7-1.9-3.4-3.5-4.2-0.2-0.1-0.3 0.1-0.2 0.2z"/>
						<path class="st15" d="m246.5 93.6c0.6 0.1 1.2 0.2 1.9 0.3 0.6 0.1 1.2 0.4 1.8 0.4 0.2 0 0.3-0.2 0.1-0.3-1.1-0.6-2.6-0.7-3.8-0.7-0.2 0-0.2 0.3 0 0.3z"/>
						<path class="st15" d="m256.7 92.3c-1.1 0.1-2.2 0.3-3.2 0.7-0.7 0.3-1.6 0.7-1.8 1.6 0 0.2 0.2 0.3 0.3 0.2l0.9-0.9c0.4-0.3 0.8-0.5 1.3-0.6 0.8-0.3 1.7-0.5 2.5-0.7 0.2 0 0.2-0.3 0-0.3z"/>
						<path class="st15" d="m255.5 94.6c-0.8-0.4-1.7-0.7-2.6-0.8-0.4 0-0.9-0.1-1.1 0.3 0 0.1 0 0.1 0.1 0.1h1.6c0.6 0.1 1.3 0.3 1.9 0.6 0.1 0.1 0.3-0.2 0.1-0.2z"/>
		<path class="st2" d="m262.7 100.5c0.7-0.3 1.5-0.5 2.2-0.4 0.1 0 0.3 0.1 0.3 0.2 0.1 0.1 0.1 0.3 0.1 0.4-0.1 0.9-0.4 1.8-0.9 2.6-0.4 0.7-0.9 1.3-1.4 1.9-1.2 1.3-2.6 2.5-4.4 2.6-1.2 0.1-1.2-0.6-1-1.5 0.2-0.8 0.6-1.6 1.1-2.4 1-1.5 2.3-2.7 4-3.4z"/>
		<path class="st8" d="m259.3 103.1c0.4 0.3 0.9 0.5 1.1 0.6 0.1 0 0.1 0.1 0.2 0.1s0.1 0 0.2-0.1c0.2-0.1 0.4-0.2 0.4-0.4 0-0.1 0-0.3-0.1-0.4-0.1-0.4-0.3-0.8-0.4-1.2-0.5 0.3-1 0.8-1.4 1.4z"/>
		<path class="st1" d="m261.3 104.6c0.3-0.1 0.5-0.4 0.6-0.7 0.1-0.2 0.2-0.4 0.1-0.6 0-0.2-0.2-0.3-0.3-0.4-0.5-0.3-1.3 0-1.4 0.6-0.2 0.7 0.3 1.4 1 1.1z"/>
		<path class="st14" d="m252.6 91.4c0.4 0.1 0.9 0.2 1.1 0.7 0.1 0.2 0.1 0.5 0 0.7-0.2 1.1-0.3 2.2-0.6 3.2 0 0.2-0.1 0.5-0.2 0.6-0.1 0.2-0.3 0.3-0.5 0.3-0.7 0.2-1.4-0.1-2.1-0.5-0.3-0.2-0.6-0.5-0.8-0.8s-0.2-0.7-0.2-1.1c0-0.8 0.2-2.1 0.8-2.7 0.5-0.7 1.7-0.5 2.5-0.4z"/>
				<path class="st15" d="m250.9 96.9c0-0.1-0.3-0.3-0.4-0.4s-0.2-0.3-0.3-0.5c-0.1-0.3-0.2-0.6-0.2-0.9-0.1-0.8 0.2-1.5 0.4-2.2 0-0.1-0.1-0.1-0.1 0-0.4 0.8-0.6 1.9-0.4 2.7 0.1 0.3 0.2 0.7 0.5 1 0.1 0.1 0.4 0.4 0.5 0.3 0.1 0 0.1 0 0 0 0.1 0 0.1 0 0 0 0.1-0.1 0-0.1 0 0z"/>
				<path class="st15" d="m252.6 91.3c-0.6 0.2-0.9 0.7-1 1.3-0.1 0.4-0.2 0.8-0.3 1.3 0 0.3-0.2 0.6 0 0.9 0 0.1 0.1 0 0.1 0-0.1-0.3 0.1-0.7 0.1-1 0.1-0.3 0.1-0.6 0.2-0.8 0.1-0.6 0.3-1.2 0.9-1.4 0.1-0.2 0.1-0.3 0-0.3z"/>
				<path class="st15" d="m252.1 93.6c-0.2 0.6-0.3 1.1-0.3 1.7s-0.1 1.2 0 1.8c0 0.1 0.1 0 0.1 0v-1.7s0.1-1.2 0.3-1.8c0-0.1-0.1-0.1-0.1 0z"/>
	<path class="st6" d="m341.4 116.9c-13.3 1.2-26.5 0-38.3-5.5-0.5-0.2-0.7-0.8-0.4-1.2 0.2-0.5 0.8-0.7 1.2-0.4 33.7 15.7 78.7-4.2 105.6-16 8.8-3.9 15.2-6.7 18.7-7.2 14.3-1.9 24.1 11.5 24.6 12.1 0.3 0.4 0.2 1-0.2 1.3s-1 0.2-1.3-0.2c-0.1-0.1-9.3-12.6-22.1-11.5-0.2 0-0.5 0-0.7 0.1-3.3 0.4-9.9 3.3-18.2 7-18 7.8-43.6 19.1-68.9 21.5z"/>
		<path class="st1" d="m77.6 29.2c2.1-1.6 4.7-2.3 6.8-3.8 2.3-1.5 4-3.9 4.8-6.5 0.6-1.9 0.8-4.1 2.2-5.4 0.4 0.9 0.1 2-0.1 3-0.9 3.4-2 6.9-4.5 9.3-1.8 1.8-4.3 2.7-6.5 3.9s-4.5 2.8-5.3 5.3c-0.4 1.2-0.4 2.6-0.6 3.9-0.2 0.9-1 3.9-2.5 3.3-1.2-0.5 0.2-3.7 0.5-4.6 1-3.2 2.5-6.4 5.2-8.4z"/>
		<path class="st1" d="m83.7 15.6c0 1.4-0.4 2.8-0.4 4.2s0.4 2.9 1.5 3.8c0.4 0.4 1.1 0.8 0.9 1.3-0.1 0.2-0.3 0.4-0.5 0.5-0.6 0.3-1.4 0.1-2-0.3-0.5-0.4-0.9-1.1-1.1-1.7-0.9-2.6-0.7-6.7 1.4-8.6 0.2 0.3 0.2 0.5 0.2 0.8z"/>
		<path class="st2" d="m71.8 33.6c-0.4-1.6 0.2-3.4 1.4-4.4-1.3 0.1-2.6 0.8-3.6 1.7s-1.7 2.1-2.2 3.4c-0.3 0.7-0.6 1.5-0.5 2.4 0 1.8 2.4 3.7 4.1 2.5 1.6-1.3 1.2-4.1 0.8-5.6z"/>
		<path class="st2" d="m134.8 100.5c3.4 3.1 8.3 5.1 12 6.8 9.5 4.4 18.3 11.2 24 20.1 0.3 0.4 0.6 0.9 1 1.1 0.5 0.2 1.1 0.2 1.4-0.3 0.2-0.3 0.1-0.8 0.4-1.1 0.3-0.2 0.7 0 1.1 0 0.6 0 0.9-0.7 0.9-1.2 0-0.6-0.3-1.1-0.6-1.5-2.5-4.1-5-8.4-8-12.2-1.9-2.4-4.5-5.2-7.2-6.8-3-1.8-5.1-3.5-7.1-6.4s-3.8-6.2-6.6-8.4c-2.6-2.1-6.1-3.2-9.4-2.9-1.3 0.1-2.6 0.4-3.7 1.2-4.1 3.3-1.2 8.8 1.8 11.6z"/>
		<path class="st2" d="m36.2 108.1c-1.7 2-3.3 4.1-3.8 6.7v0.4c0.1 0.2 0.3 0.2 0.5 0.2 0.5 0.1 0.9 0.1 1.4 0.2 0.3 0 0.6 0.1 0.8 0.2 0.5 0.3 0.6 1.1 1.1 1.5 1.1 0.9 4.9-4 5.9-4.8 2.2-1.9 4.5-3.7 6.9-5.3 4.8-3.2 10-5.8 15.4-7.8 4.2-1.5 8.8-2.7 12-5.8 1-1 1.8-2.1 1.9-3.5 0.2-3-3.3-5.5-6-5.7-2.9-0.3-6.8 2.2-9.4 3.5-5.8 2.8-11.9 6.3-17 10.3-3 2.4-5.7 5.2-8.1 8.1-0.6 0.5-1.1 1.1-1.6 1.8z"/>
		<path class="st3" d="m84.4 63.3c1 2.9 2.7 6 5.7 6.9 1.5 0.5 3.2 0.3 4.8 0.2 17.7-1.6 36.3 0.9 51.1 10.7 2.7 1.8 5.5 4.1 6.3 7.3 0.7 2.9-0.2 5.9-1.6 8.5-4.7 9.1-14 15.3-23.8 18.1-14.7 4.3-31.3 1.8-44-6.7-8.8-5.7-15.9-14.4-18.7-24.6s-1-21.8 5.7-30c1.6-1.9 3.5-3.7 5.7-4.9 1.4-0.8 5-2.6 6.6-1.5 1.5 1 0.4 5.6 0.5 7.3 0.1 2.9 0.7 5.9 1.7 8.7z"/>
		<path class="st3" d="m68.7 38.1c-2.4 1-4.5 2.6-6.6 4.2-4.2 3.2-8.7 6.6-14 6.9-1.6 0.1-3.2-0.1-4.8-0.5-0.4-0.1-0.9-0.2-1.2 0.1-0.5 0.4-0.2 1.2 0.1 1.7 2.8 4.4 7.6 7.1 12.6 8.3 5 1.1 10.3 0.8 15.4 0 3.2-0.5 6.4-1.3 9.2-3s5-4.5 5.3-7.7-2.2-6.8-4.6-8.7c-3.2-2.8-7.7-2.9-11.4-1.3z"/>
		<path class="st4" d="m47.2 49.1c-1.3 0-2.6-0.2-3.9-0.5-0.4-0.1-0.9-0.2-1.2 0.1-0.5 0.4-0.2 1.2 0.1 1.7 1.1 1.7 2.5 3.2 4.1 4.4 0.6-0.4 1.2-0.8 1.5-1.5 0.5-1 0.3-2.3-0.2-3.3-0.1-0.3-0.2-0.6-0.4-0.9z"/>
		<path class="st3" d="m80.2 42.4c0.7-1.4 1.8-2.7 3-3.8 0.5-0.4 1.1-0.8 1.8-1.1 2.4-1 5.5-0.1 7.5-1.7-1.1 4.8-5.4 8.7-10.3 9.3-0.5 0.1-1.1 0.1-1.6-0.1-1.1-0.5-0.8-1.7-0.4-2.6z"/>
		<path class="st1" d="m85.8 29.8c2.7-1 5.7-1 8.4-1.8 2.9-0.9 5.5-2.8 7.2-5.4 1.2-1.8 2.1-4.1 4.1-5 0.1 1.1-0.5 2.2-1.1 3.1-2 3.3-4.3 6.7-7.7 8.4-2.5 1.3-5.4 1.5-8.2 2.1s-5.7 1.6-7.3 3.9c-0.8 1.2-1.2 2.6-1.9 3.9-0.5 0.9-2.3 3.8-3.7 2.7-1-0.8 1.6-3.8 2.1-4.6 2.1-3.1 4.6-5.9 8.1-7.3z"/>
		<path class="st1" d="m96.6 17.4c-0.5 1.5-1.3 2.9-1.7 4.4s-0.5 3.2 0.4 4.5c0.4 0.5 0.9 1.2 0.6 1.7-0.1 0.2-0.4 0.3-0.7 0.4-0.8 0.1-1.5-0.3-2-1-0.4-0.6-0.6-1.4-0.6-2.2-0.2-3 1.3-7.3 4.2-8.7 0 0.3-0.1 0.6-0.2 0.9z"/>
		<path class="st5" d="m66.8 49c0.1-0.9 0.5-1.8 1.2-2.3s1.8-0.5 2.5 0.1c0.7 0.7 0.5 1.8 0.4 2.8"/>
		<path class="st5" d="m59.2 54.3c0.3 0.8 1 1.4 1.8 1.6s1.8-0.1 2.3-0.8"/>
		<path class="st3" d="m145.2 83.5c-0.1 0.9 0.1 1.9 0.5 2.8 1.1 1.9 3.3 2.8 5.4 3 3.2 0.4 6.5-0.9 8.6-3.4 2-2.5 2.6-6.1 1.6-9.1-0.1-0.4-0.4-0.8-0.8-0.7-0.2 0.1-0.3 0.2-0.4 0.4-1.6 2.5-4.5 4-7.4 3.8-1.5-0.1-3.1-0.6-4.6-0.2-1.8 0.6-2.8 1.9-2.9 3.4z"/>
		<path class="st6" d="m84.8 67.6c1.3-0.3 2.5-0.4 3.5 0.5 0.5 0.4 1 0.9 1.6 1 0.5 0.1 1.3-0.1 1.5 0.4 0.1 0.1 0.1 0.3 0.1 0.4 0 1.8-1.1 3.4-2.5 4.4-5.4 4-13.5 3.3-19.7 1.9-2.4-0.5-4.9-1.3-6.6-3.2-1.3-1.4-2.1-4.1-0.8-5.8 1.5-1.9 3.9-0.7 5.8-0.2 5.5 1.5 11.4 1.7 17.1 0.6z"/>
		<path class="st3" d="m45 115.9c-2 2.3-3.8 4.7-4.3 7.7v0.4c0.1 0.2 0.3 0.2 0.5 0.2 0.5 0.1 1 0.1 1.6 0.2 0.3 0 0.7 0.1 1 0.3 0.6 0.4 0.7 1.2 1.3 1.7 1.3 1 5.7-4.6 6.8-5.6 2.5-2.2 5.2-4.2 7.9-6.1 5.5-3.7 11.5-6.7 17.8-9 4.9-1.7 10.2-3.1 13.8-6.7 1.1-1.1 2.1-2.5 2.2-4 0.2-3.4-3.8-6.3-6.9-6.6-3.4-0.3-7.9 2.6-10.9 4-6.7 3.3-13.7 7.2-19.6 11.9-3.5 2.7-6.5 6-9.4 9.4-0.5 0.8-1.2 1.5-1.8 2.2z"/>
		<path class="st1" d="m54.8 118.4s-0.1 0 0 0c-2.9-1.7-4.6-4-6.7-6.1-0.4 0.5-0.8 0.9-1.2 1.4-0.6 0.7-1.2 1.4-1.9 2.2-2 2.3-3.8 4.7-4.3 7.7v0.4c0.1 0.2 0.3 0.2 0.5 0.2 0.5 0.1 1 0.1 1.6 0.2 0.3 0 0.7 0.1 1 0.3 0.6 0.4 0.7 1.2 1.3 1.7 1.3 1 5.7-4.6 6.8-5.6 0.9-0.8 1.9-1.6 2.9-2.4z"/>
		<path class="st1" d="m44.6 110.2s-0.1 0 0 0c-2.5-1.5-4-3.4-5.8-5.3-0.4 0.4-0.7 0.8-1 1.2-0.5 0.6-1.1 1.2-1.6 1.9-1.7 2-3.3 4.1-3.8 6.7v0.4c0.1 0.2 0.3 0.2 0.5 0.2 0.5 0.1 0.9 0.1 1.4 0.2 0.3 0 0.6 0.1 0.8 0.2 0.5 0.3 0.6 1.1 1.1 1.5 1.1 0.9 4.9-4 5.9-4.8 0.8-0.8 1.7-1.5 2.5-2.2z"/>
		<path class="st3" d="m124.5 109c3.7 3.3 9 5.5 13 7.3 10.3 4.7 19.8 12.2 26 21.7 0.3 0.5 0.6 1 1.1 1.2 0.5 0.3 1.2 0.2 1.5-0.3 0.2-0.4 0.1-0.9 0.5-1.2 0.3-0.2 0.8 0 1.2 0 0.6-0.1 1-0.7 1-1.3s-0.3-1.2-0.7-1.7c-2.7-4.5-5.4-9.1-8.7-13.2-2.1-2.6-4.9-5.7-7.8-7.4-3.2-1.9-5.5-3.8-7.7-6.9-2.2-3.2-4.1-6.7-7.2-9.1-2.9-2.3-6.6-3.4-10.2-3.1-1.4 0.1-2.9 0.5-4 1.3-4.4 3.7-1.3 9.7 2 12.7z"/>
		<path class="st1" d="m168 134.8c-1.2-2-2.4-4-3.6-5.9-1.8 0.8-3.6 2.1-5 3.7 1.5 1.7 2.8 3.5 4.1 5.4 0.3 0.5 0.6 1 1.1 1.2 0.5 0.3 1.2 0.2 1.5-0.3 0.2-0.4 0.1-0.9 0.5-1.2 0.3-0.2 0.8 0 1.2 0 0.6-0.1 1-0.7 1-1.3-0.2-0.5-0.5-1-0.8-1.6z"/>
		<path class="st1" d="m175 124.3c-1.1-1.8-2.2-3.7-3.3-5.5-1.7 0.7-3.3 1.9-4.6 3.5 1.4 1.6 2.6 3.3 3.8 5 0.3 0.4 0.6 0.9 1 1.1 0.5 0.2 1.1 0.2 1.4-0.3 0.2-0.3 0.1-0.8 0.4-1.1 0.3-0.2 0.7 0 1.1 0 0.6 0 0.9-0.7 0.9-1.2-0.1-0.5-0.4-1-0.7-1.5z"/>
		<path class="st6" d="m109.7 85.9c-0.6 4.9-1.3 9.8-2.1 14.6-0.7 4.2-1.6 8.4-3.6 12.2-0.8 1.5-2.2 3.4-0.3 4.8 0.5 0.4 1.2 0.5 1.8 0.7 0.7 0.2 1.4 0.3 2 0.5 0.5 0.1 1.1 0.3 1.7 0.2 0.5-0.1 1-0.3 1.4-0.6 3-1.8 4.7-5.9 6-9 1.6-3.8 2.6-7.8 3.1-11.9 1-8.2 0.2-16.6-1.5-24.7-0.2-1-0.5-2-1.1-2.8-1.1-1.3-3.1-1.5-4.9-1.4-0.6 0-1.2 0-1.7 0.3-1.6 0.9-0.4 3.4-0.3 4.7 0.4 4.1 0 8.3-0.5 12.4z"/>
		<path class="st16" d="m112.7 75.1c0 0.4-0.1 0.7 0.1 1 0.2 0.5 0.7 0.7 1.2 0.9 0.6 0.2 1.2 0.4 1.8 0.2 1.1-0.3 1.6-1.7 1.2-2.7-1.1-2.2-4-1.8-4.3 0.6z"/>
		<path class="st16" d="m112 87.8c-0.1 2.1 2.6 3.3 4.3 2.1 0.3-0.2 0.5-0.5 0.6-0.8 0.3-0.5 0.6-1 0.6-1.6 0.1-1.5-1.7-3.1-3.1-2.9-1.4 0.3-2.3 1.9-2.4 3.2z"/>
		<path class="st16" d="m111.8 96.5c-0.3 0.5-0.4 1-0.6 1.6-0.1 0.6-0.3 1.3 0 1.9 0.2 0.5 0.7 0.7 1.2 0.9s1.1 0.3 1.7 0.2c0.4 0 0.8-0.2 1.2-0.4 0.3-0.2 0.5-0.4 0.7-0.7 0.6-0.9 0.5-2.1-0.1-3-0.8-1.3-3.1-2-4.1-0.5z"/>
		<path class="st16" d="m109.2 112.8c0.6 0.3 1.4 0.3 2 0 2.2-1.1 1.5-5.3-1.2-5-2.2 0.2-2.7 4-0.8 5z"/>
		<path class="st9" d="m97 76.4c-0.8-0.2-1.7-0.3-2.4 0.2-0.2 0.1-0.3 0.4-0.2 0.6s0.3 0.2 0.5 0.2c0.5 0.1 1 0.2 1.4 0.2 0.5 0.1 1 0.1 1.4-0.1 0.2-0.1 0.3-0.2 0.3-0.4 0-0.3-0.3-0.5-0.6-0.6s-0.6-0.1-0.8-0.4"/>
		<path class="st9" d="m103.6 73.7c-0.8-0.5-1.9-0.4-2.7 0.2-0.1 0.1-0.2 0.2-0.2 0.3 0 0.2 0.2 0.2 0.3 0.3 0.7 0.2 1.5 0.3 2.2 0.3 0.2 0 0.5 0 0.7-0.2s0.2-0.4 0.1-0.6-0.4-0.3-0.6-0.2"/>
		<path class="st9" d="m101.7 78.7l-0.2 0.2c-0.1 0.2 0.2 0.4 0.4 0.4 1.4 0.5 3 0.5 4.4 0.2 1.5-0.4-0.8-1.4-1.3-1.5-1.2-0.1-2.4-0.1-3.3 0.7z"/>
		<path class="st9" d="m108.1 74.5c-0.2-0.1-0.5-0.2-0.7-0.2s-0.5 0.2-0.5 0.4c-0.1 0.4 0.4 0.7 0.8 0.7 0.3 0 0.6 0 0.9-0.1 0.1 0 0.2-0.1 0.3-0.2 0.2-0.2-0.1-0.6-0.4-0.7s-0.6 0-0.9-0.2"/>
		<path class="st9" d="m123.1 74.5c-0.5 0.1-1.9-0.5-1.9 0.6 0.1 1 2.2 0.4 2.8 0.3 0.1 0 0.3 0 0.3-0.1 0.2-0.2 0.1-0.5-0.1-0.6-0.2-0.2-0.5-0.2-0.7-0.2-0.4-0.1 0.1-0.1-0.4 0z"/>
		<path class="st9" d="m125.1 78.8c-0.5 0-1-0.1-1.5 0s-0.9 0.4-1.1 0.8c0 0.1-0.1 0.2 0 0.3 0 0.1 0.1 0.1 0.2 0.2 1.1 0.4 2.2 0.6 3.4 0.6 0.5 0 1.1-0.1 1.3-0.6s-0.3-1.1-0.9-1.2c-0.6-0.2-1.2-0.1-1.7-0.4"/>
		<path class="st9" d="m128 76.2c-0.3 0-0.7 0-0.9 0.1-0.3 0.1-0.5 0.4-0.5 0.8 0.5 0.2 1 0.4 1.6 0.5 0.5 0.1 1 0.1 1.3-0.3 0.1-0.1 0.1-0.2 0.1-0.3s-0.1-0.2-0.2-0.3c-0.4-0.3-0.9-0.5-1.5-0.6"/>
		<path class="st10" d="m72 70.7c3.9-2.2 7.9-4.6 10.6-8.2 0.4-0.6 0.9-1.2 1.6-1.3 1.2-0.2 2 1.1 2.3 2.2 0.6 2.5 0 5.1-1.3 7.4-1.3 2.2-3.1 4-5.1 5.6-4.4 3.4-10.1 5.8-15.6 4.8-1.1-0.2-2.3-0.6-3.1-1.4-1.7-1.6-1.9-6.1 0.8-6.5 1.5-0.2 3 0.2 4.6-0.2 1.9-0.6 3.6-1.5 5.2-2.4z"/>
				<path class="st11" d="m63.3 81c0 2.1 0.4 4.1 1 6.1 0.3 1 0.7 1.9 1.2 2.8 0.4 0.8 0.9 2 1.7 2.5 0.3 0.2 0.5-0.1 0.5-0.4-0.1-0.5-0.4-0.9-0.6-1.3s-0.4-0.8-0.6-1.2c-0.5-0.9-0.9-1.9-1.2-2.8-0.7-1.9-1.1-3.8-1.4-5.8 0-0.3-0.6-0.2-0.6 0.1z"/>
				<path class="st2" d="m46.3 55.2c7.4 4.6 16.9 5.2 25.2 3 0.2-0.1 0.1-0.5-0.1-0.4-8.5 1.8-17.2 1.3-24.9-2.8-0.2-0.1-0.4 0.1-0.2 0.2z"/>
				<path class="st2" d="m66.4 59c-1.4 2.1-2.5 4.6-2.8 7.2 0 0.2 0.3 0.2 0.3 0.1 0.6-2.5 1.4-4.9 2.7-7.1 0.2-0.2-0.1-0.3-0.2-0.2z"/>
				<path class="st2" d="m82.7 102.9c-0.2 0.4-0.3 0.9-0.3 1.3-0.1 0.4-0.1 0.8 0.1 1.1 0.1 0.1 0.2 0.1 0.2 0 0.1-0.3 0.1-0.7 0.1-1 0-0.4 0.1-0.8 0.3-1.2 0-0.3-0.3-0.5-0.4-0.2z"/>
				<path class="st2" d="m83.8 104.9c-0.1 0.6-0.2 1.8 0.4 2.2 0.1 0.1 0.2 0 0.2-0.1 0-0.3-0.2-0.6-0.3-1s-0.1-0.7 0-1.1c0.1-0.2-0.3-0.3-0.3 0z"/>
				<path class="st2" d="m84.9 105.1c0.2 1.5 0.9 3.7 2.4 4.4 0.1 0.1 0.2-0.1 0.2-0.2-0.3-0.6-0.8-1.1-1.2-1.7-0.5-0.8-0.9-1.7-1-2.6-0.1-0.2-0.4-0.1-0.4 0.1z"/>
				<path class="st2" d="m87.6 107.6c0.3 0.7 0.6 1.4 1.2 2.1 0.4 0.5 0.9 1.1 1.6 1.2 0.1 0 0.2-0.1 0.1-0.2-0.3-0.5-1-0.9-1.4-1.4-0.5-0.5-0.9-1.2-1.1-1.8-0.2-0.3-0.5-0.1-0.4 0.1z"/>
				<path class="st2" d="m90.8 109.4l1.2 1.2c0.3 0.3 0.6 0.8 1 0.9 0.2 0.1 0.3-0.1 0.3-0.3-0.2-0.4-0.6-0.8-1-1.1-0.4-0.4-0.8-0.8-1.3-1.1-0.2-0.1-0.4 0.2-0.2 0.4z"/>
				<path class="st2" d="m94.5 111.2c0.2 0.2 0.5 0.4 0.8 0.5 0.2 0.1 0.5 0.2 0.8 0.1 0.1 0 0.1-0.1 0-0.2-0.2-0.2-0.4-0.2-0.6-0.3-0.3-0.1-0.5-0.3-0.7-0.4-0.3-0.2-0.6 0.1-0.3 0.3z"/>
				<path class="st2" d="m67.8 59.7l-0.9 0.6c-0.2 0.2-0.5 0.3-0.6 0.6 0 0.1 0.1 0.1 0.1 0.1 0.3 0 0.5-0.3 0.7-0.5 0.3-0.2 0.6-0.4 0.8-0.6 0.3 0 0.1-0.3-0.1-0.2z"/>
				<path class="st2" d="m67.9 60.5c-0.4 0.3-0.8 0.7-1.2 1.1-0.3 0.3-0.8 0.8-0.7 1.2 0 0.1 0.1 0.2 0.2 0.1 0.4-0.1 0.6-0.7 0.8-1 0.3-0.4 0.7-0.8 1-1.2 0.2-0.1 0-0.4-0.1-0.2z"/>
				<path class="st2" d="m67.6 62c-0.4 0.4-0.8 0.8-1.1 1.2s-0.6 0.9-0.6 1.3c0 0.2 0.2 0.2 0.3 0.1 0.3-0.3 0.4-0.8 0.6-1.2 0.3-0.4 0.6-0.8 1-1.2 0.2-0.1 0-0.3-0.2-0.2z"/>
				<path class="st2" d="m67.3 64c0 0.3 0 0.6-0.1 0.9 0 0.3-0.1 0.5 0 0.7 0 0.1 0.2 0.1 0.2 0 0.2-0.2 0.2-0.5 0.2-0.8s0-0.6 0-1c0.1-0.1-0.3-0.1-0.3 0.2z"/>
				<path class="st2" d="m83.1 48c0.1 0.7 0 1.3-0.2 1.9s-0.5 1.1-0.6 1.6c0 0.1 0.1 0.2 0.2 0.1 1-0.8 1-2.6 0.8-3.7 0-0.1-0.2-0.1-0.2 0.1z"/>
				<path class="st2" d="m81.7 50.8c0 0.5-0.2 1-0.4 1.5-0.2 0.3-0.6 0.7-0.5 1.1 0 0.1 0.1 0.1 0.1 0.1 0.4-0.1 0.7-0.7 0.8-1.1 0.2-0.5 0.3-1.1 0.3-1.6 0-0.2-0.3-0.2-0.3 0z"/>
				<path class="st2" d="m80.4 51.6c-0.3 0.5-0.6 1.1-1 1.5-0.3 0.3-0.9 0.7-0.9 1.1 0 0.1 0.1 0.2 0.2 0.2 0.5 0 0.9-0.7 1.2-1.1 0.4-0.5 0.7-1 0.9-1.6 0-0.1-0.3-0.3-0.4-0.1z"/>
				<path class="st2" d="m78.3 53.4c-0.4 0.3-0.7 0.6-1.1 0.9-0.3 0.2-0.7 0.5-0.8 0.8 0 0.1 0 0.2 0.1 0.2 0.4-0.1 0.7-0.4 0.9-0.7 0.3-0.3 0.7-0.6 1-0.9 0.3-0.2 0.1-0.5-0.1-0.3z"/>
				<path class="st2" d="m75.7 54.8c-0.2 0.2-0.5 0.3-0.6 0.6 0 0.1 0 0.2 0.1 0.2 0.3 0 0.5-0.2 0.7-0.4 0.4-0.2 0.1-0.5-0.2-0.4z"/>
				<path class="st2" d="m135 112.3c0 0.7 0.2 1.4 0.5 2 0.3 0.5 0.6 1.1 1.2 1.3 0.1 0 0.3-0.1 0.2-0.2-0.2-0.5-0.7-0.8-0.9-1.2-0.4-0.6-0.5-1.2-0.6-1.9 0-0.3-0.4-0.3-0.4 0z"/>
				<path class="st2" d="m136.8 113.4c0.2 0.5 0.4 1 0.7 1.4 0.2 0.3 0.5 0.9 0.9 1 0.1 0 0.2-0.1 0.1-0.1-0.1-0.4-0.5-0.7-0.7-1-0.3-0.4-0.6-0.9-0.7-1.4 0-0.2-0.3-0.1-0.3 0.1z"/>
				<path class="st2" d="m138.8 115l0.9 0.9c0.2 0.2 0.4 0.7 0.7 0.8 0.1 0 0.2 0 0.2-0.2 0-0.4-0.4-0.7-0.6-0.9-0.3-0.3-0.6-0.6-1-0.9-0.2-0.1-0.4 0.1-0.2 0.3z"/>
				<path class="st2" d="m141.5 116.6c0.2 0.2 0.7 0.6 1 0.5 0.1 0 0.1-0.1 0.1-0.2-0.1-0.1-0.2-0.2-0.4-0.2-0.2-0.1-0.3-0.2-0.5-0.3-0.1-0.2-0.4 0.1-0.2 0.2z"/>
				<path class="st2" d="m71.1 100c-0.5 1.8-1 4.1-0.7 6 0 0.2 0.3 0.2 0.3 0 0.3-2 0.2-4 0.7-6 0.1-0.2-0.2-0.2-0.3 0z"/>
				<path class="st2" d="m72 102.1c-0.2 1.1-0.4 2.6 0.2 3.6 0.1 0.1 0.3 0.1 0.3-0.1 0-0.5-0.1-1-0.1-1.5 0-0.6 0-1.3 0.1-1.9-0.1-0.3-0.5-0.4-0.5-0.1z"/>
				<path class="st2" d="m73.1 104.1c0.2 0.3 0.4 0.7 0.5 1.1 0 0.1 0.1 0.2 0.2 0.1h0.1s0.2-0.2 0.1-0.3c-0.1-0.4-0.3-0.8-0.6-1.1-0.1-0.3-0.4 0-0.3 0.2z"/>
				<path class="st2" d="m74.3 104.9c0.2 0.2 0.5 0.6 0.8 0.6 0.1 0 0.2-0.1 0.2-0.2 0-0.3-0.5-0.5-0.7-0.7-0.3-0.3-0.6 0-0.3 0.3z"/>
				<path class="st2" d="m82.5 54.2c0 2.5 0.3 5 1.2 7.2 0.1 0.2 0.5 0.1 0.4-0.1-0.9-2.3-1.1-4.7-1.3-7.1 0-0.2-0.3-0.1-0.3 0z"/>
				<path class="st2" d="m91.4 70.7c3 0 6-0.3 8.9-0.5s6-0.5 8.9 0c0.3 0 0.3-0.3 0.1-0.4-2.7-0.7-5.7-0.3-8.5-0.2-3.2 0.1-6.3 0.3-9.5 0.7-0.1 0.2-0.1 0.5 0.1 0.4z"/>
				<path class="st2" d="m118 71c1.8 0.3 3.7 1 5.5 1 0.1 0 0.2-0.2 0.1-0.2-1.6-0.8-3.7-0.9-5.5-1.1-0.2 0-0.3 0.3-0.1 0.3z"/>
		<path class="st1" d="m63.7 81.5c1 2.6 2.6 4.9 4.6 6.9 0.4 0.4 0.4 0.5 0.8 0.3s0.8-0.6 1.1-0.9c0.7-0.6 1.5-1.2 2.1-1.9 1.3-1.2 2.5-2.6 3.6-4.1 0.1-0.1 0.2-0.2 0.2-0.4 0-0.1 0-0.2-0.1-0.3-2.2-4.1-6.9-6.6-11.5-6.4-0.5 0-0.9 0.1-1.3 0.4-0.3 0.3-0.4 0.6-0.4 1-0.2 1.2 0 2.3 0.3 3.5 0.2 0.7 0.4 1.3 0.6 1.9z"/>
			<path class="st12" d="m69.1 84.1c0.1 0 0.1 0 0 0-0.2-0.4-0.5-0.7-0.8-1s-0.6-0.7-0.9-1c-0.5-0.6-1-1.2-1.7-1.7-0.1 0-0.1 0-0.1 0.1 0.7 0.6 1.2 1.3 1.8 2 0.5 0.5 1 1.3 1.7 1.6z"/>
			<path class="st12" d="m70.1 86c0.1-0.1 0.1-0.2 0-0.2-0.1-0.1-0.2-0.1-0.3-0.2 0.1 0 0.3-0.1 0.1-0.2-1.4-1.2-2.9-2.5-4.2-3.7-0.1-0.1-0.2 0-0.1 0.1l-0.1-0.1c-0.1-0.1-0.2 0-0.2 0.1 0.4 0.8 1.1 1.5 1.8 2.1s1.3 1.3 2 1.9v0.1c0.1 0.1 0.2 0.2 0.4 0.3 0.1 0.1 0.2 0 0.2-0.1 0.1 0 0.2 0.1 0.2 0.1 0.2 0 0.3-0.1 0.2-0.2zm-3.3-3.1v0c-0.1 0-0.1 0 0 0zm2.6 2.8c-0.1-0.1-0.1-0.1 0 0zm-2.9-3.1l-0.6-0.6 0.6 0.6z"/>
		<path class="st1" d="m56.1 77.7c-2.4 1.3-4.5 3.2-6.2 5.4-0.3 0.4-0.4 0.4-0.2 0.8s0.7 0.7 1 1c0.7 0.7 1.4 1.3 2.1 1.9 1.4 1.1 2.9 2.2 4.5 3 0.1 0.1 0.2 0.1 0.4 0.1 0.1 0 0.2-0.1 0.3-0.1 3.8-2.7 5.6-7.7 4.8-12.3-0.1-0.4-0.2-0.9-0.6-1.2-0.3-0.2-0.7-0.3-1-0.3-1.2 0-2.3 0.3-3.4 0.8-0.6 0.3-1.2 0.6-1.7 0.9z"/>
			<path class="st12" d="m51.2 83.4c1.2-1.3 2.4-2.5 3.8-3.6 0.7-0.6 1.4-1.1 2.2-1.6 0.7-0.5 1.5-0.9 2.2-1.4 0.1 0 0-0.2-0.1-0.1-0.8 0.3-1.5 0.9-2.2 1.3-0.7 0.5-1.4 1-2.1 1.6-1.4 1.1-2.7 2.4-3.8 3.8-0.2 0-0.1 0.1 0 0z"/>
			<path class="st12" d="m54.8 80.7c0.8-0.8 1.7-1.5 2.6-2.1 0.4-0.3 0.8-0.6 1.3-0.9s1-0.6 1.4-0.9c0.1 0 0-0.1-0.1-0.1-0.5 0.2-0.9 0.5-1.4 0.8s-1 0.7-1.4 1c-0.9 0.6-1.7 1.3-2.4 2.2-0.2-0.1-0.1 0 0 0z"/>
		<path class="st2" d="m57.2 87.5c0.4 0.7 0.7 1.4 0.7 2.2 0 0.1 0 0.3-0.1 0.4s-0.3 0.1-0.4 0.1c-0.9 0-1.8-0.2-2.7-0.5-0.7-0.3-1.4-0.7-2.1-1.2-1.4-1-2.8-2.3-3.1-4-0.2-1.2 0.4-1.3 1.4-1.2 0.9 0.1 1.7 0.4 2.5 0.7 1.5 0.8 2.9 2 3.8 3.5z"/>
		<path class="st8" d="m54.2 84.5c-0.2 0.4-0.4 0.9-0.5 1.2 0 0.1-0.1 0.1-0.1 0.2s0.1 0.1 0.1 0.2c0.1 0.2 0.3 0.4 0.5 0.4 0.1 0 0.3-0.1 0.4-0.1l1.2-0.6c-0.5-0.5-1-0.9-1.6-1.3z"/>
		<path class="st1" d="m52.9 86.7c0.2 0.3 0.5 0.4 0.7 0.5s0.4 0.1 0.6 0c0.1-0.1 0.2-0.2 0.3-0.4 0.2-0.5-0.2-1.3-0.8-1.3-0.5 0-1.2 0.6-0.8 1.2z"/>
		<path class="st13" d="m56.5 82.3c0.8 0.3 1.6 0.6 2.5 0.8 0.4-2 1.4-3.8 2.6-5.5 0.2-0.3 0.4-0.7 0.4-1-0.1-0.7-1-0.9-1.5-0.6-0.6 0.5-1.2 1.3-1.7 1.9-0.2 0.4-2.6 4.3-2.3 4.4z"/>
		<path class="st13" d="m65.6 83.2c0 0.1 0.1 0.2 0.2 0.2 0.1 0.1 0.3 0 0.5 0 0.5-0.2 0.9-0.3 1.3-0.5-0.3-0.7-0.6-1.5-0.9-2.2-0.4-1-0.8-1.9-1.4-2.7-0.4-0.5-1.2-1.4-1.9-1.1-0.8 0.3 0.1 1.2 0.3 1.7 0.7 1.5 1.2 3.1 1.9 4.6z"/>
		<path class="st14" d="m57.4 69.9c-0.4-0.2-0.9-0.4-1.3-0.3-0.3 0.1-0.6 0.2-0.8 0.4-0.8 0.6-1.3 1.8-0.8 2.7 0.3 0.5 0.8 0.9 0.9 1.4 0 0.2 0 0.5-0.1 0.7-0.1 0.6-0.3 1.3-0.4 1.9-0.1 0.4-0.2 1 0.1 1.3s0.8 0.3 1.2 0.3c1.2-0.1 2.4-0.4 3.6-0.8 0.7-0.3 1.4-0.6 1.8-1.2 0.6-1 0.5-2.8-0.4-3.7-1.1-1-2.4-2-3.8-2.7z"/>
		<path class="st14" d="m64 73c1.4-0.8 2.9-1.6 4.4-2.3 0.5-0.2 1.1-0.4 1.7-0.3 0.8 0.2 1.2 1.2 1.3 2 0.1 0.7 0 1.5-0.5 2-0.4 0.5-1.1 0.8-1.3 1.4-0.1 0.3 0 0.7 0.1 1 0.2 0.9 0.2 1.9 0 2.9-0.1 0.3-0.1 0.6-0.3 0.8-0.4 0.5-1.1 0.4-1.7 0.3-1.1-0.3-2.1-1-3.1-1.7-0.7-0.5-1.5-1-1.8-1.8-0.2-0.4-0.2-0.8-0.3-1.2-0.1-0.6-0.1-1.3 0.1-1.9 0.2-0.7 0.8-0.9 1.4-1.2z"/>
						<path class="st15" d="m57.6 72.1c0.8 0.5 1.5 1.1 2 1.9 0.5 0.7 0.8 1.6 1.4 2.2 0.1 0.1 0.3 0.1 0.3-0.1-0.5-1.7-1.9-3.4-3.5-4.2-0.3-0.1-0.4 0.1-0.2 0.2z"/>
						<path class="st15" d="m57.4 74.8c0.6 0.1 1.2 0.2 1.9 0.3 0.6 0.1 1.2 0.4 1.8 0.4 0.2 0 0.3-0.2 0.1-0.3-1.1-0.6-2.6-0.7-3.8-0.7-0.1 0-0.2 0.3 0 0.3z"/>
						<path class="st15" d="m67.6 73.5c-1.1 0.1-2.2 0.3-3.2 0.7-0.7 0.3-1.6 0.7-1.8 1.6 0 0.2 0.2 0.3 0.3 0.2l0.9-0.9c0.4-0.3 0.8-0.5 1.3-0.6 0.8-0.3 1.7-0.5 2.5-0.7 0.3 0 0.2-0.3 0-0.3z"/>
						<path class="st15" d="m66.4 75.8c-0.8-0.4-1.7-0.7-2.6-0.8-0.4 0-0.9-0.1-1.1 0.3 0 0.1 0 0.1 0.1 0.1h1.6c0.6 0.1 1.3 0.3 1.9 0.6 0.1 0.1 0.3-0.1 0.1-0.2z"/>
		<path class="st2" d="m73.6 81.7c0.7-0.3 1.5-0.5 2.2-0.4 0.1 0 0.3 0.1 0.3 0.2 0.1 0.1 0.1 0.2 0.1 0.4-0.1 0.9-0.4 1.8-0.9 2.6-0.4 0.7-0.9 1.3-1.4 1.9-1.2 1.3-2.6 2.5-4.4 2.6-1.2 0.1-1.2-0.6-1-1.5 0.2-0.8 0.6-1.6 1.1-2.4 1-1.5 2.4-2.7 4-3.4z"/>
		<path class="st8" d="m70.2 84.3c0.4 0.3 0.9 0.5 1.1 0.6 0.1 0 0.1 0.1 0.2 0.1s0.1 0 0.2-0.1c0.2-0.1 0.4-0.2 0.4-0.4 0-0.1 0-0.3-0.1-0.4-0.1-0.4-0.3-0.8-0.4-1.2-0.5 0.4-1 0.8-1.4 1.4z"/>
		<path class="st1" d="m72.3 85.8c0.3-0.1 0.5-0.4 0.6-0.7 0.1-0.2 0.2-0.4 0.1-0.6 0-0.2-0.2-0.3-0.3-0.4-0.5-0.3-1.3 0-1.4 0.6-0.2 0.7 0.2 1.5 1 1.1z"/>
		<path class="st14" d="m63.5 72.6c0.4 0.1 0.9 0.2 1.1 0.7 0.1 0.2 0.1 0.5 0 0.7-0.2 1.1-0.3 2.2-0.6 3.2 0 0.2-0.1 0.5-0.2 0.6-0.1 0.2-0.3 0.3-0.5 0.3-0.7 0.2-1.4-0.1-2.1-0.5-0.3-0.2-0.6-0.5-0.8-0.8s-0.2-0.7-0.2-1.1c0-0.8 0.2-2.1 0.8-2.7 0.5-0.6 1.7-0.5 2.5-0.4z"/>
				<path class="st15" d="m61.8 78.1c0-0.1-0.3-0.3-0.4-0.4s-0.2-0.3-0.3-0.5c-0.1-0.3-0.2-0.6-0.2-0.9-0.1-0.8 0.2-1.5 0.4-2.2 0-0.1-0.1-0.1-0.1 0-0.4 0.8-0.6 1.9-0.4 2.7 0.1 0.3 0.2 0.7 0.5 1 0.2 0.1 0.4 0.5 0.5 0.3 0.1 0.1 0.1 0 0 0 0.1 0 0.1 0 0 0 0.1 0 0 0 0 0z"/>
				<path class="st15" d="m63.5 72.5c-0.6 0.2-0.9 0.7-1 1.3-0.1 0.4-0.2 0.8-0.3 1.3 0 0.3-0.2 0.6 0 0.9 0 0.1 0.1 0 0.1 0-0.1-0.3 0.1-0.7 0.1-1 0.1-0.3 0.1-0.6 0.2-0.8 0.1-0.6 0.3-1.2 0.9-1.4 0.1-0.2 0.1-0.3 0-0.3z"/>
				<path class="st15" d="m63 74.8c-0.2 0.6-0.3 1.1-0.3 1.7s-0.1 1.2 0 1.8c0 0.1 0.1 0 0.1 0v-1.7s0.1-1.2 0.2-1.8c0.2-0.1 0-0.1 0 0z"/>
<path class="st0" d="m118.2 93.7s20.1 19.9 59.7 24.6c65.8 7.8 107.4-3.3 122.7-7.5"/>
</svg>
