<?xml version="1.0" encoding="utf-8"?>
<!-- Generator: Adobe Illustrator 24.0.0, SVG Export Plug-In . SVG Version: 6.00 Build 0)  -->
<svg version="1.1" id="圖層_1" xmlns="http://www.w3.org/2000/svg" xmlns:xlink="http://www.w3.org/1999/xlink" x="0px" y="0px"
	 viewBox="0 0 29 56" style="enable-background:new 0 0 29 56;" xml:space="preserve">
<style type="text/css">
	.st0{fill:#C93D42;}
	.st1{fill:#014C6E;}
	.st2{fill:#FAEEEF;}
	.st3{fill:#A7232D;}
	.st4{fill:#FCEFF0;}
</style>
<path class="st0" d="M19.4,34c-1.5-3.2-1.9-6.9-1.9-10.4c-3.7-0.6-7.6,0.1-11,1.8c-0.5,0.3-1,0.6-1.2,1S5.1,27.2,5,27.7
	c-0.2,5.5,0.6,11.2,3.1,16.1s6.9,9,12.2,10.6c0.2,0.1,0.5,0.1,0.7,0.1c0.3-0.1,0.6-0.3,0.8-0.6c1.5-1.8,2.7-3.7,3.7-5.9
	c0.7-1.6,2.3-4.8,1.9-6.6c-0.3-1.5-2.9-1.8-4-2.6C21.8,37.6,20.3,35.8,19.4,34z"/>
<path class="st1" d="M20.9,12.6c0.5-1,0.9-2.4,0-3.1c-1.5-1.3-3.3,1.3-4.7,0c-0.4-0.4-0.6-0.9-0.7-1.4c-0.3-1.1-0.4-2.3-0.8-3.4
	c-0.4-1.1-1-2.2-2.1-2.8c-0.6-0.3-1.3-0.5-2-0.6C8.8,1,6.7,0.6,5.2,1.7C4,2.5,3.4,3.9,3.2,5.3C2.3,9.7,2.9,15.2,5.5,19
	c0.3,0.4,0.6,0.8,1,1.1c1.9,1.2,7.1,1.4,9,0.1C17.9,18.5,19.8,15,20.9,12.6z"/>
<path class="st2" d="M3.4,29.2c0.2,0.2,0.5,0.5,0.8,0.6c0.9,0.3,1.7-0.5,2.4-1.2c2.3-2.2,5.6-3.3,8.7-2.8c1.2,0.2,2.6,0.5,3.4-0.4
	c0.3-0.4,0.5-0.9,0.6-1.4c0.3-1.5,0.7-3.1,0-4.4c-0.3-0.5-0.7-1-1.2-1.3c-2-1.6-4.7-2.2-7.2-2.1c-2.4,0.1-7.2,0.5-8.8,2.7
	C0.1,21.9,1.3,26.8,3.4,29.2z"/>
<g>
	<path class="st3" d="M7.1,37.2c-0.2,0.3-0.6,1-0.3,1.3c0,0.1,0.1,0.1,0.2,0s0.1-0.3,0.1-0.5s0.1-0.5,0.3-0.7
		C7.5,37.2,7.3,37,7.1,37.2L7.1,37.2z"/>
</g>
<g>
	<path class="st3" d="M7.3,37.8c-0.1,0.4-0.2,0.8-0.2,1.3c0,0.3,0,0.7,0.1,0.9c0.1,0.1,0.2,0.1,0.2,0c0.1-0.3,0-0.7,0.1-1
		c0-0.4,0.1-0.8,0.2-1.1C7.8,37.7,7.4,37.6,7.3,37.8L7.3,37.8z"/>
</g>
<g>
	<path class="st3" d="M8,38.8c-0.2,0.9-0.5,2.4,0.1,3.2c0.1,0.1,0.2,0.1,0.3-0.1c0.1-0.4-0.1-0.9-0.1-1.4c0-0.6,0-1.1,0.1-1.7
		C8.4,38.7,8,38.6,8,38.8L8,38.8z"/>
</g>
<g>
	<path class="st3" d="M9.3,42.5c-0.1,0.3-0.1,0.6-0.1,1c0,0.2,0.1,0.6,0.4,0.7c0.1,0,0.1,0,0.2-0.1c0.1-0.2-0.1-0.4-0.1-0.7
		c-0.1-0.3,0-0.6,0-0.9C9.8,42.3,9.4,42.3,9.3,42.5L9.3,42.5z"/>
</g>
<g>
	<path class="st3" d="M10,43.8c0.1,0.5,0.2,1,0.3,1.5c0.1,0.4,0.1,0.8,0.4,1.1c0.1,0.1,0.2,0,0.2-0.1c0.1-0.4-0.2-0.8-0.3-1.2
		s-0.2-0.9-0.3-1.3C10.3,43.5,9.9,43.5,10,43.8L10,43.8z"/>
</g>
<g>
	<path class="st3" d="M11,45.6c0.2,0.5,0.4,1.1,0.6,1.6c0.2,0.4,0.3,0.9,0.6,1.3c0.1,0.1,0.2,0,0.2-0.1c0-0.5-0.3-0.9-0.4-1.3
		c-0.2-0.5-0.4-1.1-0.7-1.6C11.3,45.3,10.9,45.3,11,45.6L11,45.6z"/>
</g>
<g>
	<path class="st3" d="M12.9,47.8c0.2,0.3,0.4,0.5,0.6,0.8c0.1,0.2,0.2,0.6,0.4,0.7c0.1,0,0.1,0,0.1-0.1c0.1-0.2-0.1-0.6-0.3-0.8
		c-0.2-0.3-0.4-0.6-0.6-0.8C13,47.5,12.8,47.7,12.9,47.8L12.9,47.8z"/>
</g>
<g>
	<path class="st3" d="M14.6,49.7c0.1,0,0.2-0.2,0-0.2C14.5,49.5,14.4,49.7,14.6,49.7L14.6,49.7z"/>
</g>
<g>
	<path class="st3" d="M15.8,50.6c-0.1,0.3-0.3,1,0.1,1.2c0.1,0,0.1,0,0.1-0.1c0.1-0.1,0-0.3,0-0.4c0-0.2,0-0.4,0.1-0.6
		S15.9,50.3,15.8,50.6L15.8,50.6z"/>
</g>
<g>
	<path class="st3" d="M16.4,51.3c0.1,0.3,0.3,0.6,0.4,0.9c0.1,0.2,0.2,0.5,0.4,0.6c0.1,0,0.2,0,0.2-0.1c0.1-0.3-0.2-0.5-0.3-0.7
		c-0.1-0.3-0.3-0.6-0.4-0.8C16.8,50.8,16.3,51,16.4,51.3L16.4,51.3z"/>
</g>
<g>
	<path class="st3" d="M17.9,52.5c0.1,0.2,0.2,0.4,0.4,0.5c0.1,0.2,0.2,0.3,0.4,0.3c0.1,0,0.1,0,0.2-0.1c0.1-0.2,0-0.3-0.1-0.4
		c-0.1-0.2-0.3-0.4-0.4-0.6C18.1,52,17.8,52.3,17.9,52.5L17.9,52.5z"/>
</g>
<g>
	<path class="st2" d="M2.6,19.3c-0.2-0.2-0.5-0.7-0.8-0.8c-0.1,0-0.1,0-0.1,0.1c0,0.3,0.4,0.6,0.6,0.9C2.4,19.7,2.8,19.5,2.6,19.3
		L2.6,19.3z"/>
</g>
<g>
	<path class="st2" d="M3.1,18.3C3,18.2,2.9,18,2.9,17.8c0,0-0.1,0-0.2,0c-0.1,0.2,0,0.4,0.2,0.6C2.9,18.6,3.3,18.4,3.1,18.3
		L3.1,18.3z"/>
</g>
<g>
	<path class="st2" d="M3,18.5c0.2-0.2,0.4-0.4,0.5-0.7c0.1-0.2,0.2-0.5,0-0.7c0,0-0.1,0-0.2,0c-0.1,0.1-0.1,0.3-0.1,0.5
		C3.1,17.8,3,18,2.8,18.1C2.8,18.4,2.9,18.6,3,18.5L3,18.5z"/>
</g>
<g>
	<path class="st2" d="M2.1,23.3c-0.4-0.1-1.1-0.1-1.3,0.2c0,0,0,0.1,0.1,0.1c0.2,0.1,0.3,0,0.5-0.1c0.2,0,0.5,0,0.7,0
		C2.3,23.6,2.3,23.3,2.1,23.3L2.1,23.3z"/>
</g>
<g>
	<path class="st2" d="M1.8,24.6c-0.2,0.1-0.4,0.2-0.5,0.4c0,0.1,0,0.2,0.1,0.2c0.2,0,0.4-0.2,0.6-0.3C2.3,24.7,2,24.4,1.8,24.6
		L1.8,24.6z"/>
</g>
<g>
	<path class="st2" d="M2.1,25.7c0.2,0,0.3-0.4,0.1-0.4C1.9,25.3,1.8,25.7,2.1,25.7L2.1,25.7z"/>
</g>
<g>
	<path class="st2" d="M4.1,23.9c-0.3,0.3-0.5,0.7-0.6,1.1c-0.1,0.3-0.3,0.7-0.2,1c0,0,0.1,0,0.2,0c0.2-0.2,0.2-0.6,0.4-0.8
		c0.2-0.4,0.4-0.7,0.6-1C4.6,23.9,4.3,23.7,4.1,23.9L4.1,23.9z"/>
</g>
<g>
	<path class="st2" d="M4.3,25.2C4.2,25.4,4.1,25.7,4,26c0,0.2-0.1,0.5,0.1,0.6h0.1c0.2-0.1,0.1-0.3,0.2-0.5c0-0.3,0.1-0.5,0.2-0.7
		C4.8,25.2,4.4,25.1,4.3,25.2L4.3,25.2z"/>
</g>
<g>
	<path class="st2" d="M4.8,26.2c0,0.2,0,0.5,0.3,0.7h0.1c0.1-0.2,0-0.4,0-0.7C5.1,25.9,4.8,25.9,4.8,26.2L4.8,26.2z"/>
</g>
<g>
	<path class="st2" d="M5.6,26.6c0,0.1,0.1,0.1,0.1,0.1c0.1,0,0.1,0,0.2,0c0-0.1,0-0.1,0-0.2C5.9,26.1,5.4,26.3,5.6,26.6L5.6,26.6z"
		/>
</g>
<g>
	<path class="st2" d="M13.3,24.9c-0.2,0.2-0.3,0.5-0.4,0.8c-0.1,0.2-0.2,0.5,0,0.7c0,0,0.1,0.1,0.2,0c0.2-0.1,0.1-0.4,0.2-0.6
		c0.1-0.3,0.2-0.5,0.4-0.7C13.8,24.9,13.4,24.7,13.3,24.9L13.3,24.9z"/>
</g>
<g>
	<path class="st2" d="M13.8,25.5c0,0.2-0.1,0.4,0,0.6c0,0.1,0.1,0.1,0.2,0c0.1-0.2,0.1-0.4,0.1-0.6C14.1,25.4,13.8,25.3,13.8,25.5
		L13.8,25.5z"/>
</g>
<g>
	<path class="st2" d="M14.6,25.8c0.1,0.1,0.1,0.2,0.3,0.3c0.1,0,0.2,0,0.2-0.1S15,25.8,15,25.5C14.8,25.4,14.4,25.6,14.6,25.8
		L14.6,25.8z"/>
</g>
<g>
	<path class="st2" d="M15.6,26.2c0.3,0,0.3-0.4,0.1-0.4C15.4,25.7,15.3,26.1,15.6,26.2L15.6,26.2z"/>
</g>
<g>
	<path class="st2" d="M3.8,29.1c0,0.2-0.1,0.5-0.1,0.7s-0.1,0.4,0.1,0.5c0,0,0.1,0.1,0.2,0c0.2-0.1,0.2-0.3,0.2-0.5s0-0.5,0-0.7
		C4.1,28.9,3.8,28.9,3.8,29.1L3.8,29.1z"/>
</g>
<g>
	<path class="st2" d="M4.3,29.7c0.1,0.2,0.1,0.4,0.2,0.6c0,0.1,0.1,0.1,0.2,0.1h0.1C5,30.3,5,30.1,5,30.1c-0.1-0.2-0.1-0.4-0.2-0.6
		C4.6,29.3,4.3,29.5,4.3,29.7L4.3,29.7z"/>
</g>
<g>
	<path class="st2" d="M16.3,21c0.2,0,0.3-0.3,0-0.4C16,20.6,16,21,16.3,21L16.3,21z"/>
</g>
<g>
	<path class="st2" d="M17.1,21.3c0.1,0.1,0.2,0.1,0.2,0.1c0.1,0,0.2-0.1,0.2-0.2s-0.1-0.2-0.2-0.3C17.3,20.9,17,21.2,17.1,21.3
		L17.1,21.3z"/>
</g>
<g>
	<path class="st2" d="M16.9,18.1c0.3-0.1,0.6-0.2,0.9-0.3c0.1-0.1,0.4-0.2,0.3-0.4s-0.3-0.1-0.4-0.1c-0.3,0.1-0.6,0.2-0.9,0.4
		S16.8,18.2,16.9,18.1L16.9,18.1z"/>
</g>
<g>
	<path class="st4" d="M15.3,16.9c0.2,0,0.4-0.1,0.6-0.1s0.3-0.1,0.3-0.2c0-0.1,0-0.1,0-0.1c-0.1-0.1-0.2-0.1-0.4,0s-0.4,0.1-0.6,0.2
		C15,16.6,15.1,16.9,15.3,16.9L15.3,16.9z"/>
</g>
<g>
	<path class="st4" d="M16.2,17.3c0.3,0,0.6,0.1,0.8-0.1c0-0.1,0-0.1,0-0.2c-0.2-0.2-0.5-0.1-0.8-0.1C16,16.9,16,17.3,16.2,17.3
		L16.2,17.3z"/>
</g>
</svg>
