<?xml version="1.0" encoding="UTF-8" standalone="no"?>
<!-- Generator: Adobe Illustrator 24.0.0, SVG Export Plug-In . SVG Version: 6.00 Build 0)  -->
<svg id="圖層_1" style="enable-background:new 0 0 168.3 154.8" xmlns="http://www.w3.org/2000/svg" xml:space="preserve" viewBox="0 0 168.3 154.8" version="1.1" y="0px" x="0px" xmlns:xlink="http://www.w3.org/1999/xlink">
<style type="text/css">
	.st0{fill:#B2222E;}
	.st1{fill:#024E71;}
	.st2{fill:#CD7733;}
	.st3{fill:#E89E33;}
	.st4{fill:#C9A27D;}
	.st5{fill:#1E97AB;}
	.st6{fill:#056879;}
	.st7{fill:#FCEFF0;}
	.st8{fill:#D53D43;}
	.st9{fill:#E9AA9A;}
	.st10{fill:#F9D8DB;}
	.st11{fill:#B76529;}
</style>
		<path class="st0" d="m68 87.5c-6.9 0.6-13.5 3.1-19.1 7.1-1 0.7-2 1.5-2.5 2.6-0.8 2 0.3 4.2 1.8 5.7 2.6 2.9 6.3 4.7 9.9 6.2 12.5 5.3 26 8.6 39.6 9.5 6.4 0.4 13 0.4 19-1.9 4.1-1.6 8.2-4.9 8.1-9.3-0.1-4.3-4.1-7.4-7.8-9.5-12.9-7.4-27.6-11.7-42.5-12.4"/>
			<path class="st1" d="m23.2 136.4l39.9 1.8c10.5 0.5 21.1 1 31.5-0.5-2.3-1.3-4.6-2.5-6.9-3.8-1.2-0.6-2.4-1.3-3.6-1.6-1.9-0.5-3.9-0.3-5.8-0.1-10.8 0.9-21.7 0.4-32.6-0.2-12.1-0.6-24.1-1.2-36.2-1.9 3.7 1.8 7.5 3.7 11.2 5.5"/>
			<path class="st2" d="m17.7 123.3c-1.5 0.7-3.3 1.3-3.5 3.1-0.2 1.9 0.7 4 1.9 5.5 1.6 1.9 4 3.1 6.4 3.9 1 0.3 1.9 0.6 3 0.6-2.7 0.1-5.9-0.6-8.5-1.3-3.3-0.8-6.6-1.8-9.9-2.8-0.7-0.2-1.4-0.4-1.9-0.8-0.8-0.5-1.4-1.4-1.9-2.3-1.6-3.2-1-7.2 1.7-9.6 0.4-0.3 0.8-0.6 1.3-0.6 0.3 0 0.5 0.1 0.8 0.2 1.9 0.9 3.9 1.5 5.9 2.2 0.7 0.4 4.1 2.2 4.7 1.9z"/>
			<path class="st3" d="m94 137.6c-1.6-1.3-3.8-1.3-5.9-1.2-0.9 0-1.7 0-2.6 0.1-18.9 0.4-37.9-0.4-56.8-1.1-2.7-0.1-5.4-0.2-7.8-1.5-1.7-0.9-3.3-2.3-3.5-4.3-0.1-1-0.1-1.9 0.2-2.8 0.1-0.2 1.3-2.1 1.5-1.8-0.4-0.6-0.9-1.2-1.3-1.8-2.2-0.4-4.1 2.5-3.8 4.7 0.2 1.4 1 2.7 1.9 3.7 0.7 0.9 1.7 2.1 2.6 2.8 2.4 1.8 5.4 2.2 8.3 2.6 6.4 0.8 12.8 1.4 19.3 1.8 6.3 0.5 12.7 1 18.9 1 10-0.1 20-0.4 30-1.2 0.7-1.1-0.5-0.6-1-1z"/>
			<path class="st3" d="m27.6 132c1.5 0.9 3.1 1.7 4.8 2.2 1.1-3.1 2.2-6.1 3.3-9.2 0.1-0.2 0.2-0.5 0-0.7-0.1-0.2-0.3-0.2-0.5-0.3-1.2-0.4-2.5-1.1-3.7-1.3s-1.2 0.7-1.6 1.7c-0.1 0.8-2.5 7.5-2.3 7.6z"/>
			<path class="st2" d="m36.9 134.5c-1.6 0.2-3.2 0.1-4.7-0.2 1.2-3.6 2.3-7.2 3.5-10.9 0 0 3.8 0.4 4.2 0.5 1.6 0.1 0.7 1.4 0.3 2.6-1.1 2.7-2.2 5.4-3.3 8z"/>
			<path class="st4" d="m67.4 133.2c1.3 0.8 2.7 1.4 4.1 1.9 1-2.6 1.9-5.3 2.9-7.9 0.1-0.2 0.1-0.4 0-0.6-0.1-0.1-0.2-0.2-0.4-0.3-1-0.4-2.1-0.9-3.2-1.1-1-0.2-1.1 0.6-1.3 1.5-0.2 0.6-2.3 6.4-2.1 6.5z"/>
			<path class="st2" d="m75.4 135.3c-1.3 0.2-2.7 0.1-4-0.2 1-3.1 2-6.2 3-9.4 0 0 3.3 0.4 3.6 0.4 1.4 0.1 0.6 1.2 0.2 2.2-0.9 2.5-1.8 4.8-2.8 7z"/>
		<path class="st2" d="m10 83.6c-2.7 6.6-4.2 14.2-1.9 21.1 2.2 6.8 7.9 11.8 13.7 15.8 5.1 3.5 10.8 6.2 16.5 8.7 9.3 4.1 19 7.7 29.1 8.6 0 0-2.3-6.4-2.6-6.9-1.2-2.4-2.7-4.7-3.9-7.1-2.8-5.3-3.4-10.9-4.1-16.7-0.7-6.8-1.4-13.6-4-19.9-0.5-1.1-1-2.2-1.8-3.2-1.1-1.3-2.6-2-4.1-2.8l-18.3-9.3c-3-1.5-6.2-3.1-9.5-2.4-1.1 0.2-3.5 0.5-4.4 1.2-1 0.7-0.8 2.3-1.1 3.4-0.7 3.3-2.3 6.4-3.6 9.5z"/>
			<path class="st5" d="m137.2 45.2c2.8 0.4 5.4 0.5 8 1.8 2.5 1.3 5 2.8 7.3 4.3 1.2 0.8 2.4 1.5 3.5 2.4 0.3 0.3 2.7 2.4 3 2.3-2.2 1.1-4.1 1.2-6.4 1.3-2.4 0.1-4.7 0.9-7.1 1-4.4 0.2-8.9-0.6-12.5-3.1-1.5-1.1-2.9-2.4-4.2-3.8-2.2-2.3-4-4.4-5.7-7.2-0.7-1.2 2.1-0.7 2.6-0.6 3.9 0.5 7.7 1 11.5 1.6z"/>
			<path class="st3" d="m152.5 51.3c-2.1-1.3-4.2-2.6-6.3-3.8-0.4 0-0.8 0.1-1.3 0.1-2.8 0.1-5.5 0-8.4-0.2-2.6-0.2-5.4-1-8.1-0.9 0 1.1 1.9 1.9 2.6 2.5 1.8 1.4 3.2 3.3 5.6 3.4 5.5 0.1 10.9-0.2 16.3-0.7-0.1-0.2-0.2-0.3-0.4-0.4z"/>
			<path class="st3" d="m149.6 53c-2.8-2.2-5.7-4.4-8.5-6.5-0.3-0.3-0.7-0.6-1.1-0.9-0.9-0.1-1.8-0.2-2.8-0.4-1.9-0.3-3.7-0.5-5.6-0.8 1.4 1.5 2.9 2.7 4.6 4 1.9 1.5 4 2.9 6.1 4.2 0.8 0.5 1.7 0.8 2.3 1.4l0.6 0.6c0.5 0.5 0.9 1.1 1.7 1.3 0.5 0.2 1 0.2 1.5 0.2 1.3 0 2.5-0.1 3.7-0.3-0.4-1.2-1.5-2-2.5-2.8z"/>
			<path class="st6" d="m142.6 95.4c-0.2 0.3-0.3 0.7-0.5 1-4.2 0-8.5 0.4-12.8 0.5-2.8 0.1-5.7 0.1-8.3 1.1 1.5-3.9 2.9-7.8 4-11.9 1.4-5.2 2.4-10.5 4-15.6s3.8-10.2 7.3-14.3c2.7-3.2 6.3-1.8 10-1.4 4.1 0.4 8.2 0.9 12.3 1-0.6 2.8-1.6 5.4-2.6 8-4.2 10.7-8.4 21.3-13.4 31.6z"/>
			<path class="st3" d="m165.5 50.6c-1.7 1.2-3.8 1.3-5.9 1.4-5.3 0.3-10.6 0.4-16 0.3l1.5-3c0.1-0.3 0.3-0.6 0.6-0.7 0.2-0.1 0.4 0 0.6 0 2.2 0.4 4.5 0.9 6.7 1.3s4.5 0.8 6.5 0c2.3-1 3.9-3.6 3.5-6.1 1.5 0.3 3.5 0.5 4.1 2 0.9 1.8-0.2 3.9-1.6 4.8z"/>
			<path class="st2" d="m134.6 36.6c-0.4 1.7-0.7 3.5-0.5 5.2 0.3 2.5 1.7 4.7 3.2 6.6 1.4 1.8 3 3.6 5.2 4.3 0.6-1.1 1.1-2.3 1.4-3.6-1.3-0.4-2.6-0.9-3.6-1.8-1.3-1.3-1.8-3.2-1.9-5.1-0.2-2.1-0.1-4.4 1-6.2 0.2-0.3 0.4-0.5 0.5-0.9 0.2-0.7-0.4-1.4-1-1.7-2.5-1-3.9 1.1-4.3 3.2z"/>
			<path class="st1" d="m109 76.1c-0.9 2.1-1.9 4.3-2.4 6.6-0.4 1.8-0.5 3.7-1.2 5.5-0.1 0.3-0.2 0.6-0.1 0.9 0.1 0.2 0.3 0.4 0.6 0.5 5.2 2.9 10.4 5.8 15.7 8.7 0.6-2.8 2-5.3 3.3-7.9 6-11.6 10.9-23.7 14.7-36.1-2.6-2-5.4-3.9-8.1-5.6-2.5-1.6-5.4-4-8.2-4.8-2.9 5.1-4.8 10.9-7.1 16.3-2.5 5.2-4.9 10.5-7.2 15.9z"/>
			<path class="st2" d="m147.3 44.5c1.9-2.2 4.4-3.9 7.2-4.5 4.8-0.9 9.6 2.1 12.8 5.7-3.9-1.2-8.3-0.9-12 0.8-2.1 1-4 2.4-5.9 3.7-1 0.7-2 1.4-3.1 1.8-0.7 0.2-2.2 0.6-2.8 0.1-0.9-0.7-0.1-1.3 0.4-2.3 0.8-1.8 1.9-3.7 3.4-5.3z"/>
			<path class="st3" d="m146.4 42.8c0.1-3.4-0.8-6.9-3.1-9.4-0.3-0.3-0.6-0.6-1-0.7s-0.8-0.1-1.2 0c-1.5 0.2-2.9 0.4-4.4 0.6 2.4 1.7 4 4.4 4.8 7.2s0.8 5.9 0.3 8.8c-0.2 1.1-0.3 2.5 0.6 3.1 3.2 2.1 3.9-7.9 4-9.6z"/>
			<path class="st3" d="m129 97.2c2.1 0.2 4.2 0.4 6.2 0.6 0.4 0 0.8 0.1 1.1-0.1s0.4-0.5 0.6-0.8c2.7-5.6 4.6-11.6 6.1-17.6 1.5-6.1 4.1-12.3 6.7-18 0.9-2 1.8-4 2.2-6.1-1.5-0.1-3.9-0.8-5.4-0.3-1.3 0.4-1.6 2.1-2 3.2-1.2 3.1-2.5 6.3-3.7 9.4-2.5 6.3-5 12.6-7.5 19-1.5 3.5-2.9 7.1-4.3 10.7z"/>
			<path class="st3" d="m132.6 59.7c-1.1 2-2.1 3.9-3.1 6-1.2 2.4-2.4 4.9-3.4 7.4-1 2.4-1.7 5-2.8 7.4-0.6 1.3-8 14.7-8.1 14.6-1.9-1.1-3.8-2.3-5.7-3.4-0.2-0.1-0.4-0.2-0.5-0.4-0.2-0.3-0.1-0.7 0.1-1.1 2.7-7.3 5.4-14.6 8-21.9 0.9-2.5 1.8-5 2.9-7.4 2.1-5 4.9-9.5 7.8-14 0.1-0.1 0.1-0.2 0.2-0.2 0.1-0.1 0.3 0 0.4 0 1.3 0.2 2.4 0.9 3.5 1.6 1.4 0.9 2.7 1.8 4 2.8 0.6 0.4 0.9 0.6 0.6 1.3-0.3 0.9-1 1.8-1.5 2.6-0.7 1.5-1.6 3.1-2.4 4.7z"/>
			<path class="st2" d="m144.4 61.5c0.4 3.4 0.1 6.9-0.1 10.3 2.6-1 5.3-1.7 8.1-2.1-0.3-3.1-0.6-6.3-1.5-9.3-0.8-3-2.3-6-4.5-8.2-0.3-0.3-0.7-0.6-1.1-0.8-0.6-0.2-3-0.2-3.4 0.3-0.7 0.8 0.3 1.9 0.7 2.7 1 2.3 1.6 4.7 1.8 7.1z"/>
			<path class="st2" d="m125.4 50.7c1.4 1.5 2.9 2.9 4.6 4 0.2 0.1 0.4 0.2 0.6 0.2s0.4-0.1 0.5-0.3c0.9-0.7 1.9-1.3 2.9-1.8 2.5-1.2 4.8-0.9 7.5-0.6 1.1 0.1 2.1-0.1 0.8-1.3-0.5-0.5-1.8-0.7-2.5-1-4.6-1.9-9.9-1.8-14.4 0.8z"/>
		<path class="st0" d="m59.4 80.7c-0.2 0.7-0.3 1.5-0.1 2.3 0.2 0.7 0.6 1.4 1 2 3.7 5 9.4 8.3 15.3 10.1 6 1.8 12.2 2.2 18.4 2.4 5.1 0.2 10.4 0.1 15.2-1.9 0.7-0.3 1.3-0.6 1.9-1.1 0.6-0.6 1-1.4 1.4-2.2 2.9-6.4 5-13.1 6.5-19.9 0.8-3.6 1.4-7.4 0.8-11.1s-2.6-7.3-5.9-9c-1.3-0.6-2.6-1-4-1.3-10.1-2.1-20.5-0.9-30.7-1.5-3.7-0.2-5.5-0.1-7.6 3.2-2.6 4.1-5 8.3-7 12.7-2.3 4.9-4.1 10-5.2 15.3z"/>
		<path class="st7" d="m56.5 81.3c-0.8 1.6-0.4 3.6 0.3 5.3 1.6 4 4.9 7.2 8.7 9.4s8 3.4 12.2 4.4c10.2 2.3 20.8 3.1 31.1 1.1 2.8-0.5 6.1-1.8 6.5-4.7 0.4-2.7-1.6-3.5-4.4-3.8-2.7-0.3-5.9 1.1-8.6 1.7-8.6 2.1-18.9 1.9-27-1.6-3.1-1.3-8.6-3.1-10.5-4.5-6.8-4.9-5.8-12.5-8.3-7.3z"/>
		<path class="st7" d="m117.2 58c1.7-0.1 3.4 0.2 5.1 0 0.5 0 1-0.1 1.5-0.4 0.6-0.3 1-0.9 1.2-1.6 0.6-1.8-0.1-3.9-1.4-5.2-2.3-2.2-6.1-2.2-8.8-0.6-2.6 1.6-4.8 4.9-5.1 8-0.2 1.9 1.3 1.5 2.5 1 1.6-0.6 3.3-1.1 5-1.2z"/>
		<path class="st7" d="m72.5 46.7c-0.9-1.2-2.3-2.4-3.8-2.3-0.9 0.1-1.8 0.6-2.4 1.4-0.6 0.7-0.9 1.7-1 2.6-0.4 2.3 0.3 5 2.3 6.1 0.6 0.3 1.2 0.5 1.9 0.6 1.4 0.3 2.7 0.7 4.1 1 0.1 0 0.3 0.1 0.4 0 0.4 0 0.6-0.4 0.7-0.7 1.5-3-0.4-6.3-2.2-8.7z"/>
		<path class="st8" d="m111.2 62.9c-3.5 3.1-6 7.4-6.9 12 0 0.3-0.1 0.5-0.3 0.7s-0.5 0.2-0.7 0.2c-5.4 0.3-10.9 0.1-16.2-0.5-0.6-0.1-1.2-0.1-1.7 0.1-0.4 0.2-0.6 0.6-0.9 1-1.2 1.9-2.1 4.1-2.6 6.3-0.6 2.4-0.7 5 0.4 7.2 0.1 0.3 0.3 0.5 0.5 0.7 0.2 0.1 0.4 0.2 0.7 0.2 2 0.4 3.9 0.7 5.9 1.1 1.5 0.3 3.1 0.6 4.6 0.7 5.1 0.5 10.3-0.6 15.4-0.1 0.6 0.1 1.2 0.1 1.8 0s1.2-0.5 1.7-0.9c3.1-2.5 4.4-6.6 5.3-10.5 1.1-4.9 1.8-9.8 2.4-14.7 0.1-0.8 0.2-1.6 0-2.4-0.9-4.2-7.1-3.1-9.4-1.1z"/>
		<path class="st8" d="m81.3 15.7c7.3-8.8 19-14.1 30.4-12.9 1.8 0.2 3.6 0.5 5.3 1.1s3.3 1.4 4.9 2.2c2.1 1.1 4.2 2.2 6 3.6 4.7 3.8 7.4 10.1 6.7 16.1-2.1-2.1-4.9-4.1-7.9-3.6-2.8 0.5-4.8 2.9-6.7 5-0.5 0.6-1.1 1.2-1.9 1.3-0.9 0.2-1.8-0.2-2.6-0.7-1.8-1.1-3.2-2.6-4.9-3.9-4.4-3.2-10.1-4-15.5-3.9-4 0.1-8 0.6-12 0.7-1 0-4 0.5-4.3-0.3-0.7-1 1.8-3.9 2.5-4.7z"/>
		<path class="st9" d="m75.9 30.5c-1 3.5-1.3 7.1-1.7 10.6-0.1 1.2-0.2 2.5 0 3.7 0.3 1.2 0.9 2.3 1.6 3.3 2 2.5 4.8 4.2 7.7 5.3 3 1.1 6.1 1.6 9.3 1.9 2.8 0.3 5.7 0.5 8.4-0.2 2.2-0.6 4.2-1.7 6.2-2.9s4-2.4 5.3-4.3c0.8-1.2 1.3-2.7 1.7-4.1 0.5-1.6 0.9-3.2 1.2-4.9 0.8-4.9 0.1-10.1-2.5-14.3s-7.1-7.3-12-7.7c-2-0.2-4.1 0.1-6.1 0.4-4.2 0.7-9.9 1.2-13.6 3.5-2.7 1.9-4.6 6.6-5.5 9.7z"/>
					<path class="st8" d="m97.3 40c-0.1-0.3 0-0.5 0.1-0.7s0.3-0.3 0.6-0.4c0.1 0.3 0 0.5-0.1 0.7-0.1 0.1-0.3 0.3-0.6 0.4z"/>
					<path class="st8" d="m98.4 40c-0.1-0.3 0-0.4 0.1-0.6 0.1-0.1 0.2-0.3 0.5-0.3 0.1 0.3 0.1 0.5 0 0.6-0.2 0.2-0.3 0.3-0.6 0.3z"/>
					<path class="st8" d="m99.5 40.2c-0.1-0.3 0-0.5 0.1-0.6 0.1-0.2 0.3-0.3 0.5-0.3 0.1 0.3 0 0.5-0.1 0.6s-0.2 0.2-0.5 0.3z"/>
					<path class="st8" d="m100.6 40.4c-0.2-0.3-0.1-0.5 0-0.7s0.2-0.4 0.5-0.4c0.1 0.3 0 0.5 0 0.7-0.1 0.1-0.2 0.2-0.5 0.4z"/>
					<path class="st8" d="m76.4 37c0-0.3 0.2-0.4 0.3-0.6 0.1-0.1 0.3-0.2 0.6-0.2 0 0.3-0.1 0.5-0.2 0.6-0.2 0.2-0.4 0.3-0.7 0.2z"/>
					<path class="st8" d="m77.6 37.3c0-0.3 0.1-0.5 0.3-0.6 0.1-0.1 0.3-0.3 0.6-0.3 0.1 0.3 0 0.5-0.2 0.7-0.2 0.1-0.4 0.2-0.7 0.2z"/>
					<path class="st8" d="m78.6 37.4c-0.1-0.3 0-0.5 0.1-0.6 0.1-0.2 0.3-0.3 0.6-0.3 0 0.3 0 0.5-0.1 0.6s-0.3 0.2-0.6 0.3z"/>
					<path class="st8" d="m79.5 37.4c-0.1-0.3-0.1-0.4 0-0.6 0.1-0.1 0.2-0.3 0.5-0.3 0.1 0.3 0.1 0.4 0 0.6s-0.2 0.3-0.5 0.3z"/>
		<path class="st1" d="m101 36.8c-0.1 0.8-0.8 1.4-1.6 1.3s-1.3-0.9-1.2-1.7 0.8-1.4 1.6-1.3 1.3 0.9 1.2 1.7z"/>
		<path class="st1" d="m84.6 34.6c-0.1 0.8-0.8 1.4-1.6 1.3s-1.3-0.9-1.2-1.7 0.8-1.4 1.6-1.3 1.3 0.9 1.2 1.7z"/>
		<path class="st7" d="m106.1 43.3c-2.4 2.3-5.7 3.8-8.9 3.3-4-0.6-7.2-4.1-11.3-4.5-1.1-0.1-2.1 0-3.2 0.1-1.6 0.1-5.5 0.7-6.8-0.5-1.6-1.4-0.9-6.1-0.5-8-0.5 2.1-1.9 4.1-2.7 6.1-1 2.6-1.7 5.3-2.1 8-0.3 2.2-0.4 4.5-0.2 6.7 0.6 6 3.8 11.4 8.2 15.3 5.4 4.7 11.5 5.6 18.2 7.4-0.7-0.2-0.1-3.1 0-3.5 0.4-1.2 1-1.6 2-2.1 2.5-1.4 4.9-3 7.5-4.3 5.5-2.9 8-7.5 9.7-13.4 1.6-5.4 2.5-10.9 2.8-16.5 0.1-3-0.3-7.8-4.1-8.4-4-0.6-3.5 3.3-4 5.9-0.7 3.1-2.3 6.1-4.6 8.4z"/>
		<path class="st10" d="m103.1 44.9c1.9 0.2 3.9-0.1 5.9-1-0.1 0-0.4 2-0.5 2.3-0.3 0.8-0.7 1.5-1.2 2.2-0.9 1.3-2.3 2.1-3.7 2.7-2.7 1.2-5.8 1.3-8.7 0.9-2.8-0.4-5.5-2.3-6.9-4.7-0.6-1-1.4-2.6-1-3.9 0.4-1.5 2.5-2.5 3.9-2.9 0.7-0.2 1.5-0.3 2.2-0.1 1.7 0.3 3.1 1.4 4.5 2.4 1.7 1.2 3.6 1.9 5.5 2.1z"/>
		<path class="st10" d="m86.7 45.3c-0.3 0.6-0.8 1.2-1.2 1.8-0.5 0.6-1.1 1.1-1.8 1.5-3.4 1.9-9 0.1-11.3-2.7-1.7-2-2.3-5-1.4-7.5 1 1.7 2.4 2.6 4.2 3.2 2.3 0.7 3.5-0.6 5.5-1.4 2.5-1 7 0.3 6.6 3.6-0.2 0.5-0.3 1-0.6 1.5z"/>
		<path class="st0" d="m90.1 45c-0.1 1.3-0.4 2.7-1.1 3.9-0.2 0.4-0.4 0.7-0.8 1s-1 0.5-1.7 0.5c-1.7-0.1-2.6-1-2.9-1.9-0.2-0.6-0.1-1.1 0-1.7 0.1-0.8 0.2-1.6 0.3-2.3 0 0 0-0.1 0.1-0.1 0.1-0.1 0.2-0.1 0.4-0.1 1.9 0 3.7 0.4 5.7 0.7z"/>
		<path class="st7" d="m102.9 43.1c1.9 0.2 3.9-0.1 5.9-1-0.1 0-0.4 2-0.5 2.3-0.3 0.8-0.7 1.5-1.2 2.2-0.9 1.3-2.3 2.1-3.7 2.7-2.7 1.2-5.8 1.3-8.7 0.9-2.8-0.4-5.5-2.3-6.9-4.7-0.6-1-1.4-2.6-1-3.9 0.4-1.5 2.5-2.5 3.9-2.9 0.7-0.2 1.5-0.3 2.2-0.1 1.7 0.3 3.1 1.4 4.5 2.4 1.8 1.1 3.6 1.8 5.5 2.1z"/>
		<path class="st7" d="m86.5 43.5c-0.3 0.6-0.8 1.2-1.2 1.8-0.5 0.6-1.1 1.1-1.8 1.5-3.4 1.9-9 0.1-11.3-2.7-1.7-2-2.3-5-1.4-7.5 1 1.7 2.4 2.6 4.2 3.2 2.3 0.7 3.5-0.6 5.5-1.4 2.5-1 7 0.3 6.6 3.6-0.1 0.4-0.3 1-0.6 1.5z"/>
		<path class="st8" d="m89.4 39.9c0.5-1 0.3-2.2-0.5-3-1.6-1.4-4.1-0.6-5.8-1.5-0.2-0.1-0.5-0.3-0.7-0.3-0.7-0.2-1.6 0.1-2.1 0.6-0.3 0.4-0.6 0.9-0.6 1.4 0 1.5 2 2.9 3.2 3.3 1.7 0.6 5.4 1.5 6.5-0.5z"/>
		<path class="st9" d="m114.1 37.2c0.2-0.5 0.3-0.9 0.6-1.3 0.6-0.9 1.7-1.3 2.8-1.5 0.4-0.1 0.9-0.1 1.3 0 1.4 0.3 2.1 2 2.1 3.5 0 2-1 4-2.6 5.2-0.9 0.7-4.5 2.3-5.5 1.2-0.9-1.1 0.9-5.9 1.3-7.1z"/>
		<path class="st7" d="m75.4 20.7c-1.1 1.1-1.1 3.1-0.1 4.2 1.9 2.2 5.4 1.8 8 1.4 2.3-0.4 4.6-0.9 7-0.7 2.5 0.2 4.8 1.4 7.3 1.8 2.7 0.4 5.3-0.5 7.9 0.2 1.6 0.4 3 1.4 4.5 1.8 0.8 0.2 1.5 0.2 2.3 0.4 1.5 0.4 2.6 1.5 4 2.2 1.3 0.7 3.1 1 4.2 0 1-0.9 1-2.6 0.4-3.9-0.6-1.2-1.7-2.2-2.7-3.2-2-2-3.6-4.5-6.1-6-2.1-1.2-4.5-1.6-6.9-2-3.8-0.6-7.5-1.2-11.3-1.8-0.8-0.1-1.6-0.3-2.4-0.2-0.7 0.1-1.4 0.3-2.1 0.5-3.2 0.9-6.3 1.1-9.6 1.2-2.8 0.1-2.7 2.3-4.4 4.1z"/>
		<path class="st7" d="m132 28.4c0.5 0.4 1.1 0.5 1.7 0.6 1 0.2 2.2 0.1 2.9-0.6 0.5-0.5 0.7-1.3 0.8-2.1 0.3-2.2-2.3-4.5-4.3-3.2-1.6 1-3 3.9-1.1 5.3z"/>
		<path class="st2" d="m151.4 82.3c-0.5-0.5-1.2-0.9-1.7-1.4-0.1-0.1-0.3-0.3-0.5-0.3h-0.4c-4.5 0.8-8.9 1.6-13.3 2.5-4.1 0.9-8.2 1.8-12.3 2.9-1.6 0.4-3.1 0.9-4.6 1.7-1.3 0.7-2.4 1.7-3.5 2.6-5.1 4.4-10.6 8.4-16.8 10.9-8.8 3.6-18.2 3.5-26.9-0.2-3.5-1.5-6-3.6-8.5-6.4-2.1-2.4-3.8-4.9-5.4-7.5-1.4-2.3-3.8-4.5-6.4-5.2 2.6 6.1 5.5 12.1 8.8 17.9 1.4 2.5 3 5 5 7.1 4.5 4.6 10.9 6.7 17.1 7.8 9.7 1.7 20 1.4 29.2-2.3 12.9-5.2 22.4-16.3 34.3-23.3 1.9-1.1 4.1-2.2 5.7-3.6 1.8-1.4 1.2-2.3 0.2-3.2z"/>
			<path class="st1" d="m62.9 152.4c15.7-0.3 31.3-0.7 47-1 12.4-0.3 24.9-0.5 37-3.1l-8.4-3.9c-1.4-0.7-2.9-1.3-4.4-1.6-2.2-0.4-4.6 0-6.8 0.3-12.7 2-25.5 2.2-38.3 2.4-14.2 0.2-28.4 0.4-42.7 0.7 4.5 1.9 9 3.7 13.6 5.6"/>
			<path class="st2" d="m55.5 137.4c-1.7 0.9-3.8 1.8-3.9 3.9-0.1 2.3 1.1 4.7 2.7 6.3 2.1 2.1 4.9 3.3 7.8 4.1 1.1 0.3 2.3 0.6 3.5 0.5-3.2 0.4-6.9-0.3-10.1-0.9-4-0.7-7.9-1.6-11.8-2.6-0.8-0.2-1.6-0.4-2.3-0.8-1-0.6-1.8-1.5-2.4-2.5-2.1-3.7-1.8-8.3 1.3-11.4 0.4-0.4 0.9-0.8 1.4-0.8 0.3 0 0.6 0.1 1 0.2 2.4 0.9 4.7 1.5 7.1 2.2 0.9 0.3 5 2.2 5.7 1.8z"/>
			<path class="st3" d="m146.2 148.2c-2-1.4-4.6-1.2-7-1l-3 0.3c-22.2 2-44.5 2.5-66.8 3.2-3.1 0.1-6.4 0.2-9.3-1.1-2.1-0.9-4-2.4-4.5-4.7-0.2-1.1-0.3-2.3 0.1-3.3 0.1-0.2 1.4-2.5 1.6-2.2-0.6-0.7-1.1-1.3-1.7-2-2.7-0.3-4.6 3.2-4 5.8 0.3 1.6 1.3 3 2.5 4.2 0.9 1 2.2 2.4 3.3 3.1 2.9 1.9 6.5 2.2 10 2.4 7.6 0.4 15.2 0.6 22.8 0.6 7.4 0 14.9 0.2 22.3-0.3 11.8-0.9 23.5-2 35.1-3.8 0.7-1.4-0.8-0.8-1.4-1.2z"/>
			<path class="st3" d="m67.8 146.8c1.8 1 3.8 1.7 5.8 2.2 1.1-3.7 2.1-7.3 3.2-11 0.1-0.3 0.1-0.6 0-0.8s-0.4-0.3-0.6-0.3c-1.4-0.4-3-1.1-4.5-1.2-1.4-0.2-1.4 0.9-1.7 2.1-0.2 0.9-2.5 8.9-2.2 9z"/>
			<path class="st2" d="m78.9 149c-1.8 0.4-3.7 0.4-5.5 0.1 1.1-4.3 2.1-8.7 3.2-13 0 0 4.5 0.2 4.9 0.2 1.9 0 0.9 1.6 0.5 3-0.9 3.3-2 6.6-3.1 9.7z"/>
			<path class="st3" d="m114.6 145.1c1.6 0.8 3.3 1.5 5 1.9 0.9-3.2 1.8-6.3 2.8-9.5 0.1-0.2 0.1-0.5 0-0.7s-0.3-0.2-0.5-0.3c-1.2-0.3-2.6-0.9-3.8-1.1-1.2-0.1-1.2 0.8-1.5 1.8-0.2 0.9-2.2 7.8-2 7.9z"/>
			<path class="st2" d="m124.2 147c-1.6 0.3-3.2 0.4-4.8 0.1 0.9-3.7 1.8-7.5 2.8-11.2 0 0 3.9 0.2 4.3 0.2 1.6 0 0.8 1.4 0.5 2.6-0.9 2.8-1.8 5.6-2.8 8.3z"/>
		<path class="st7" d="m96.3 27.7l0.3 0.3c0.7 0.4 1.5 0.3 2.3 0.4 1.3 0.1 2.6 0.6 3.7 1.4 0.2-1.2-0.6-2.4-1.6-3.1-0.8-0.5-2.3-1.1-3.3-1-0.9 0.1-1.9 1-1.4 2z"/>
		<path class="st7" d="m84 27.1c-0.3 0.1-0.6 0-0.9 0-1.4-0.1-2.7 0.7-3.8 1.4-0.1-0.6 0.2-1.1 0.6-1.6 0.4-0.4 0.9-0.8 1.3-1.1 0.7-0.5 2.2-1.5 3.2-0.9 0.8 0.5 0.6 2-0.4 2.2z"/>
		<path class="st7" d="m100.8 36.2c0 0.3-0.3 0.5-0.6 0.5s-0.5-0.3-0.5-0.6 0.3-0.5 0.6-0.5c0.3 0.1 0.6 0.3 0.5 0.6z"/>
		<path class="st7" d="m84.4 34c0 0.3-0.3 0.5-0.6 0.5s-0.5-0.3-0.5-0.6 0.3-0.5 0.6-0.5c0.3 0.1 0.5 0.3 0.5 0.6z"/>
		<path class="st3" d="m75.2 104.9c10.4 2.9 21.7 0.7 31.3-4.3 4.4-2.3 8.6-5.3 11.6-9.3 0.6-0.9 1.3-1.8 2.2-2.4 0.7-0.4 1.5-0.6 2.3-0.7 9.2-1.9 18.3-3.7 27.5-5.6 0.6-0.1 1.2-0.2 1.8 0 0.5 0.2 0.8 0.8 1.1 1.3 3.8 7.2 5.4 15.7 4 23.7-1.5 8.6-6.6 16.7-13.8 21.6-7.3 5-15.6 8.5-24.3 10.1-5.8 1.1-11.7 1.4-17.6 1.7-1 0-2.1 0.1-3.2 0.1-17.6 0.7-50.5-2.4-53.5-25.3-0.7-5.1 0.3-10.3 2.4-15 1.7-3.7 3.7-6.5 4.2-10.6 0.2-1.7 0.4-3.4 0.7-5.1 0.2-1.4 0.3-2.9-0.4-4 1.7 0.3 2.7 1.9 3.5 3.3 2.6 4.6 3.5 9.3 7.5 13 3.5 3.6 8 6.1 12.7 7.5z"/>
		<path class="st2" d="m79.6 137.7c-13.6-1.8-30.3-7.1-32.3-22.1-0.6-4.3 0.2-9 2.2-13.5 0.4-1 0.9-1.9 1.4-2.8 1.3-2.5 2.6-5.1 3.1-8.5l0.2-1.5c0.1 0.3 0.3 0.6 0.4 1 1.4 3.2 2.9 6.6 6 9.5 3.9 3.7 8.7 6.4 13.9 7.9 1.7 0.5 3.4 0.8 5.2 1.1 9 1.2 19-0.8 28.2-5.6 5.6-2.9 9.7-6.2 12.6-10.1l0.3-0.3c0.4-0.5 0.8-1.1 1.1-1.3s0.9-0.3 1.4-0.4l27.4-5.5c3.6 7 4.9 14.7 3.7 21.8-1.4 7.9-6.1 15.3-12.7 19.8-7 4.8-15 8.1-23.2 9.7-5.5 1.1-11.1 1.4-17.2 1.6-1 0-2.1 0.1-3.1 0.1-4.5 0.1-11.3 0.1-18.6-0.9z"/>
		<path class="st2" d="m13.6 66.1c0.8-1.3 2.2-2.3 3.7-2.7 1.8-0.6 4.4 0.4 6.1 1 8.5 3.2 16.5 7.6 23.8 13 1.6 1.2 3.1 2.4 4.3 3.9 0.4 0.5 0.8 1.1 0.8 1.7 0 0.5-0.4 1-0.7 1.4-1.7 2.2-3.3 4.4-5 6.6-0.1 0.2-0.3 0.4-0.5 0.4-0.2 0.1-0.5 0-0.7 0-5.1-1.4-9.4-3.9-13.9-6.5-4.7-2.7-9.7-4.8-14.1-8-3.2-2.4-5.4-4.9-4.4-9.1 0.1-0.8 0.3-1.3 0.6-1.7z"/>
		<path class="st3" d="m46.1 82.1c-0.7 0.6-1.1 1.4-1.5 2.2-0.8 1.7-1.5 3.7-0.7 5.4 0.4 0.9 1.3 1.5 2.1 1.9s1.6 0.7 2.5 0.6c1.3-0.1 2.4-1.3 3-2.5 0.8-1.8 1.8-5.9 0.8-7.7-1.1-2.2-4.8-1.3-6.2 0.1z"/>
			<path class="st11" d="m56.4 95.4c-2.8 9-4.6 18.5-5.9 27.8 0 0.2 0.3 0.2 0.3 0 1.3-9.4 3.5-18.6 5.8-27.8 0 0-0.2-0.1-0.2 0z"/>
			<path class="st11" d="m62.7 101.7c-1.1 4.7-2 9.6-2.9 14.4s-1.8 9.6-2.5 14.4c0 0.3 0.3 0.3 0.4 0.1 0.9-4.8 1.6-9.6 2.5-14.4s2-9.6 2.9-14.4c0.1-0.3-0.3-0.4-0.4-0.1z"/>
			<path class="st11" d="m70.3 106c-1.5 9.6-2.9 19.3-4.4 28.9 0 0.2 0.3 0.2 0.3 0 1.5-9.6 3-19.3 4.4-28.9 0-0.1-0.3-0.2-0.3 0z"/>
			<path class="st11" d="m77.6 108.1c-0.8 4.8-1.2 9.7-1.7 14.5-0.6 4.8-1.2 9.7-1.7 14.5 0 0.2 0.3 0.3 0.3 0 0.6-4.8 1.1-9.7 1.7-14.5s1.3-9.7 1.6-14.5c0-0.1-0.2-0.1-0.2 0z"/>
			<path class="st11" d="m86.7 108.6c-0.6 9.1-0.9 18.3-0.8 27.4 0 0.1 0.2 0.1 0.2 0 0.1-9.2 0.3-18.3 0.8-27.4 0-0.1-0.2-0.2-0.2 0z"/>
			<path class="st11" d="m86.1 136.4c0.1 0.7 0.1 1.4 0.2 2.1h0.1l-0.3-2.1v0z"/>
			<path class="st11" d="m95.6 107.8c0.7 10.2-1.6 20.5 0.2 30.7 0 0.2 0.3 0.1 0.3 0-1.7-10.2 0.9-20.5-0.2-30.7-0.1-0.2-0.3-0.2-0.3 0z"/>
			<path class="st11" d="m104.5 104.3c-0.2 5.5 0.1 11 0.3 16.4 0.2 5.6 0.4 11.3 1.2 16.9-0.1-5.6-0.7-11.1-0.9-16.7s-0.1-11.1-0.3-16.7c0-0.1-0.3-0.1-0.3 0.1z"/>
			<path class="st11" d="m106.1 138.1s-0.1 0 0 0z"/>
			<path class="st11" d="m113.8 99.6c0.1 12.6 0.7 25.2 1 37.7 0 0.2 0.3 0.2 0.3 0-0.3-12.6-0.5-25.2-1-37.7 0-0.2-0.3-0.2-0.3 0z"/>
			<path class="st11" d="m121.9 91.4c-0.3 7.2 0 14.5 0.3 21.7 0.4 7.4 0.9 14.8 1.7 22.1 0 0.2 0.3 0.2 0.3 0-0.8-7.3-1.3-14.6-1.7-21.9-0.3-7.3-0.2-14.6-0.4-21.9 0.1-0.2-0.2-0.2-0.2 0z"/>
			<path class="st11" d="m131.4 89.2c0.5 14 1.7 28 2.6 41.9 0 0.2 0.3 0.1 0.3 0-0.8-14-1.4-28-2.6-42-0.1-0.2-0.3-0.1-0.3 0.1z"/>
			<path class="st11" d="m140.6 87.2c-0.2 6.2 0.4 12.6 0.8 18.8 0.4 6.4 0.8 12.9 1.3 19.3 0 0.2 0.4 0.2 0.4-0.1-0.5-6.3-0.9-12.7-1.3-19-0.2-3.1-0.3-6.2-0.5-9.2-0.1-3.3-0.1-6.6-0.5-9.8 0.1-0.2-0.2-0.2-0.2 0z"/>
			<path class="st11" d="m149.8 85.1c-0.5 10.9 0 21.8 0.6 32.7 0 0.1 0.2 0.1 0.2 0-0.6-10.9-0.5-21.7-0.4-32.6-0.2-0.2-0.4-0.3-0.4-0.1z"/>
			<path class="st11" d="m13.6 73.3c3.5 4.4 8.5 7.5 13.4 10.2 5.7 3.1 11.7 5.8 17.6 8.5 0.2 0.1 0.4-0.2 0.1-0.3-5.5-2.8-11.2-5.3-16.7-8.2-5.3-2.7-10.1-6-14.2-10.3-0.1-0.2-0.3-0.1-0.2 0.1z"/>
			<path class="st11" d="m51.1 90.5c0.8-1.8 0.7-4.3-0.8-5.7-1.4-1.4-3.2-0.7-3.9 1.1-0.6 1.5 0.1 3.2 1.9 3 1.2-0.1 2.2-1.7 0.8-2.3-0.3-0.1-0.4 0.3-0.2 0.4 0.7 0.6 0.5 1.1-0.5 1.5-0.4 0.1-0.8 0-1.1-0.3-0.8-0.5-0.9-0.8-0.7-1.7 0.3-1.2 1.3-2.4 2.6-1.8 2.1 0.9 2.2 4 1.5 5.8 0 0.1 0.3 0.2 0.4 0z"/>
			<path class="st11" d="m13.7 114c-1-6.3-1.9-12.6-0.7-19 0.6-3.2 1.7-6.1 3-9 1.2-2.6 2.5-5.3 2.9-8.2 0-0.3-0.4-0.3-0.5-0.1-0.6 3.2-1.9 6-3.3 9-1.3 2.8-2.2 5.6-2.7 8.7-1 6.1-0.4 12.6 1 18.6 0.1 0.2 0.3 0.2 0.3 0z"/>
			<path class="st11" d="m24.7 82.3c0.1 3.9-1.8 7.3-3.2 10.9-1.3 3.4-1.8 7.1-2 10.7-0.2 3.2-0.3 6.5 0 9.6 0.2 2.7 0.9 5.8 2.9 7.8 0.2 0.2 0.5 0 0.3-0.2-1.8-2.7-2.6-5.4-2.7-8.7-0.2-3.5-0.1-7.1 0.2-10.6 0.4-3.7 1.2-7.1 2.7-10.5 1.2-2.9 2.6-5.8 2.2-9-0.1-0.2-0.4-0.2-0.4 0z"/>
			<path class="st11" d="m31 125.8c-2.3-6.5-2.7-13.2-1.7-20 0.5-3.5 1.4-7 2.3-10.4 0.8-3 1.7-6 1.4-9.2 0-0.3-0.5-0.3-0.5 0.1 0.4 3.6-0.9 7.1-1.8 10.5-0.9 3.5-1.7 7-2.1 10.5-0.7 6.2-0.4 12.8 2 18.6 0.2 0.3 0.5 0.1 0.4-0.1z"/>
			<path class="st11" d="m42.1 131.1c-3.5-6.1-5.1-13.1-4.2-20.1 0.9-6.9 5.6-13.4 4.2-20.5-0.1-0.3-0.5-0.2-0.5 0.1 0.8 4.1-0.5 7.9-1.9 11.7-1.2 3.4-2.2 6.7-2.5 10.2-0.5 6.5 1 13.3 4.5 18.8 0.2 0.1 0.5-0.1 0.4-0.2z"/>
			<path class="st11" d="m17.3 76.8c-0.3-2.6 0.5-5.2 2.1-7.3 0.7-0.9 1.4-1.8 2.4-2.4 1.4-1 2.8-1 4.4-0.8 0.3 0 0.4-0.4 0.1-0.5-1.4-0.1-2.8-0.2-4 0.5-1.1 0.6-2.1 1.6-2.9 2.6-1.8 2.3-2.7 5.1-2.3 7.9-0.1 0.2 0.2 0.2 0.2 0z"/>
			<path class="st11" d="m23.4 81.1c0-6.3 4.4-11.7 11-11.3 0.4 0 0.4-0.5 0.1-0.6-6.9-1.3-11.7 5.7-11.4 11.9 0 0.3 0.3 0.2 0.3 0z"/>
			<path class="st11" d="m31.7 85.3c-0.5-3 0.1-6.3 2.1-8.7 2-2.3 4.6-2.9 7.5-3 0.3 0 0.3-0.4 0-0.5-2.8-0.6-5.9 1-7.7 3.1-2.2 2.5-2.8 6-2.1 9.2 0 0.1 0.3 0.1 0.2-0.1z"/>
			<path class="st11" d="m39.7 89.4c-1.5-2.1-0.3-6 0.5-8.2 0.9-2.5 2.5-4.5 5.3-4.5 0.2 0 0.2-0.4 0-0.4-2.9 0-4.7 1.9-5.6 4.5-0.9 2.4-2.3 6.5-0.5 8.8 0.2 0.1 0.4 0 0.3-0.2z"/>
			<path class="st10" d="m72.8 49.6c-0.1 3.8 0.4 7.6 1.7 11.3 1 2.9 2.5 7.2 5.3 8.8 0.1 0.1 0.2-0.1 0.1-0.2-1.2-1.3-2.3-2.5-3.1-4.1s-1.5-3.2-2-4.9c-1.2-3.5-1.7-7.2-1.7-10.9 0-0.1-0.3-0.1-0.3 0z"/>
			<path class="st10" d="m79.4 54.4c0.5 7.4 1.4 16.7 8.6 20.7 0.1 0.1 0.3-0.1 0.1-0.2-6.8-4.7-7.8-12.9-8.4-20.6 0-0.1-0.3-0.1-0.3 0.1z"/>
			<path class="st10" d="m96.4 76.8c-3.4-1.7-5.9-4.8-7.3-8.3-1.6-4.2-1.2-8.4-0.8-12.8 0-0.2-0.2-0.3-0.3-0.1-2.3 7.8 0.6 17.7 8.4 21.2 0.1 0.2 0.1 0.1 0 0z"/>
			<path class="st10" d="m95.3 74.2c-1-2.9-1.2-5.9-0.8-8.9 0.4-2.9 1.5-5.5 2.2-8.2 0-0.1-0.2-0.2-0.2-0.1-1.5 2.6-2.2 6-2.5 9-0.3 2.8 0 5.6 1 8.3 0.1 0.2 0.4 0.1 0.3-0.1z"/>
			<path class="st10" d="m113.8 49.3c0.5 2.3-0.4 4.5-1.6 6.5-1 1.7-2.1 3.3-3.3 4.9-1.2 1.5-2.5 3-3.9 4.3-1.4 1.2-3 2.1-4.7 3.1-0.2 0.1 0 0.4 0.2 0.3 3.8-1.1 7-4.7 9.2-7.8s5.4-7.2 4.4-11.3c0-0.3-0.4-0.2-0.3 0z"/>
			<path class="st10" d="m91.2 41.4c3.2-1 5.3 2.5 8 3.6 2.1 0.9 4.9 0.7 7-0.3 0.2-0.1 0.1-0.3-0.1-0.3-1.6 0.1-3.1 0.6-4.7 0.4-1.7-0.2-3.1-0.9-4.4-1.9-1.7-1.3-3.7-2.6-5.9-1.8-0.2 0.1 0 0.3 0.1 0.3z"/>
			<path class="st10" d="m87.7 42.3c2.3-0.4 4 2 5.8 3.1 1.4 0.9 2.9 1.6 4.6 1.9 2.9 0.6 6.4-0.1 8.3-2.4 0.1-0.1-0.1-0.3-0.2-0.2-3 2.5-6.7 3-10.4 1.5-1.7-0.8-3.1-1.9-4.6-3-1.1-0.8-2.2-1.4-3.5-1.1-0.2 0-0.2 0.2 0 0.2z"/>
			<path class="st10" d="m89.2 44.9c1.3 0.7 1.9 2.2 3.1 2.9 1.1 0.7 2.4 1 3.6 1.2 2.4 0.5 5.5 0.5 7.5-1.1 0.1-0.1 0-0.3-0.1-0.2-1.3 0.5-2.5 1-3.9 1.1s-2.8 0-4.1-0.3c-1.5-0.3-2.9-0.8-4-2-0.7-0.7-1.2-1.4-2.1-1.8-0.1-0.1-0.1 0.1 0 0.2z"/>
			<path class="st10" d="m82 40.3c-1.7-0.6-3.4 0.5-5.1 0.6-2.4 0.1-4.2-1-5.6-2.9 0-0.1-0.2 0-0.1 0.1 0.2 1.7 2.3 2.7 3.8 3.1 0.9 0.2 1.9 0.3 2.9 0.1 1.4-0.2 2.6-1 4.1-0.7 0-0.1 0.1-0.2 0-0.3z"/>
			<path class="st10" d="m82.8 41.3c-1.6 1.9-3.5 3.4-6.2 3.1-2.4-0.2-3.8-1.7-5.1-3.5-0.1-0.1-0.2 0-0.2 0.1 0.6 2.3 3.2 3.8 5.4 3.9 2.7 0.1 4.6-1.4 6.2-3.4 0.2-0.2 0-0.3-0.1-0.2z"/>
			<path class="st7" d="m78.1 16.7c0.1 0.3 0.3 0.6 0.4 0.8s0.3 0.5 0.6 0.5c0.1 0 0.1-0.1 0.1-0.1 0-0.2-0.2-0.4-0.3-0.6-0.2-0.2-0.3-0.5-0.4-0.7-0.1-0.3-0.5-0.1-0.4 0.1z"/>
			<path class="st7" d="m77.1 20.7c-0.3 0-0.7-0.1-1-0.2-0.2-0.1-0.5-0.2-0.7-0.2-0.1 0-0.1 0.1-0.1 0.2 0.1 0.2 0.4 0.3 0.7 0.4 0.4 0.1 0.7 0.2 1.1 0.2 0.2-0.1 0.3-0.4 0-0.4z"/>
			<path class="st7" d="m76.3 23.3c-0.3 0.1-0.7 0.2-1 0.3-0.3 0-0.6 0-0.8 0.1-0.1 0.1-0.1 0.2 0 0.2 0.2 0.2 0.6 0.1 0.9 0.1 0.4-0.1 0.7-0.2 1.1-0.3 0.1-0.2 0-0.5-0.2-0.4z"/>
			<path class="st7" d="m83.3 17.2c-0.1-0.3-0.2-0.6-0.3-0.8s-0.1-0.5-0.3-0.6c-0.1 0-0.1 0-0.2 0.1-0.1 0.2 0.1 0.4 0.2 0.7s0.2 0.5 0.4 0.8c0 0.2 0.3 0 0.2-0.2z"/>
			<path class="st7" d="m85 16.9c0-0.3 0.1-0.6 0-0.9 0-0.1-0.1-0.1-0.2 0-0.1 0.2-0.1 0.6-0.1 0.8s0.3 0.3 0.3 0.1z"/>
			<path class="st7" d="m86.9 16.5c0.1-0.3 0.3-0.7 0.3-1.1 0-0.1-0.1-0.1-0.2 0-0.2 0.2-0.3 0.7-0.4 1-0.1 0.2 0.2 0.3 0.3 0.1z"/>
			<path class="st7" d="m99.9 17.4c0.2-0.3 0.4-0.5 0.6-0.8 0.1-0.2 0.4-0.4 0.4-0.7 0-0.1-0.1-0.2-0.2-0.1-0.2 0.1-0.4 0.4-0.5 0.6-0.2 0.3-0.3 0.5-0.5 0.8-0.1 0.2 0.1 0.4 0.2 0.2z"/>
			<path class="st7" d="m101.2 17.4l0.7-0.7c0.2-0.2 0.4-0.3 0.5-0.6 0-0.1-0.1-0.2-0.1-0.1-0.3 0-0.4 0.3-0.6 0.5s-0.5 0.5-0.7 0.7c-0.3 0.1 0 0.3 0.2 0.2z"/>
			<path class="st7" d="m103.1 17.4c0.2-0.1 0.4-0.3 0.6-0.5 0.2-0.1 0.3-0.3 0.3-0.5 0-0.1-0.1-0.2-0.1-0.1-0.2 0-0.3 0.2-0.5 0.3-0.2 0.2-0.4 0.3-0.6 0.5-0.1 0.1 0.1 0.4 0.3 0.3z"/>
			<path class="st7" d="m111.2 19.7c0.3-0.1 0.6-0.3 1-0.4 0.3-0.1 0.6-0.2 0.7-0.4 0-0.1 0-0.2-0.1-0.2-0.3 0-0.6 0.2-0.8 0.3-0.3 0.2-0.6 0.3-1 0.5-0.1 0 0 0.3 0.2 0.2z"/>
			<path class="st7" d="m112.4 20.8c0.4-0.2 0.8-0.3 1.3-0.4 0.1 0 0.2-0.1 0.2-0.2v-0.1c0-0.1-0.1-0.1-0.2-0.1-0.5 0-1 0.2-1.4 0.5-0.2 0.1 0 0.4 0.1 0.3z"/>
			<path class="st7" d="m114.1 22.2c0.3-0.1 0.6-0.2 0.8-0.5 0-0.1 0-0.2-0.1-0.2-0.3 0-0.6 0.2-0.9 0.3-0.2 0.2 0 0.5 0.2 0.4z"/>
			<path class="st7" d="m91.8 20.9c-0.1-0.2-0.1-0.4-0.2-0.6s-0.1-0.3-0.2-0.5c-0.1-0.1-0.1 0-0.2 0.1 0 0.2 0 0.3 0.1 0.5s0.1 0.4 0.2 0.6c0 0.2 0.3 0.1 0.3-0.1z"/>
			<path class="st7" d="m90.9 21.2l-0.6-0.6c-0.1-0.2-0.3-0.3-0.5-0.4-0.1 0-0.1 0.1-0.1 0.1 0 0.2 0.2 0.4 0.4 0.5 0.2 0.2 0.4 0.4 0.5 0.6 0.1 0.1 0.4-0.1 0.3-0.2z"/>
			<path class="st7" d="m89.3 21.4c-0.3-0.1-0.5-0.3-0.8-0.4-0.1 0-0.1 0.1-0.1 0.1 0.2 0.2 0.5 0.3 0.8 0.5 0.2 0.1 0.3-0.1 0.1-0.2z"/>
			<path class="st7" d="m118.6 26.7c0.2-0.1 0.5-0.2 0.7-0.3s0.3-0.1 0.4-0.3v-0.1c-0.2-0.1-0.3 0-0.5 0-0.2 0.1-0.5 0.2-0.7 0.3-0.3 0.1-0.1 0.4 0.1 0.4z"/>
			<path class="st7" d="m119.3 27.6c0.3 0.1 0.5 0.1 0.8 0.2 0.2 0 0.4 0.2 0.6 0 0 0 0.1-0.1 0-0.1-0.1-0.2-0.3-0.2-0.5-0.2-0.3 0-0.6-0.1-0.8-0.1-0.3-0.2-0.3 0.2-0.1 0.2z"/>
			<path class="st7" d="m120.8 29.4c0.2 0 0.4 0 0.6-0.1 0.1-0.1 0-0.2 0-0.2-0.2-0.1-0.4-0.1-0.6-0.1-0.3 0-0.2 0.4 0 0.4z"/>
			<path class="st7" d="m107 28.4c0.3 0.2 0.5 0.4 0.6 0.7 0.1 0.2 0.2 0.4 0.4 0.3 0.1 0 0.1-0.1 0.1-0.2-0.1-0.5-0.4-0.9-0.9-1.1-0.2-0.1-0.4 0.2-0.2 0.3z"/>
			<path class="st7" d="m108.9 28.8c0.2 0.1 0.3 0.3 0.5 0.5 0.1 0.1 0.2 0.3 0.4 0.4 0.1 0 0.1 0 0.1-0.1 0.1-0.4-0.5-0.8-0.7-1.1-0.2-0.2-0.5 0.2-0.3 0.3z"/>
			<path class="st7" d="m110.7 29.5c0.2 0.1 0.5 0.4 0.8 0.3 0.1 0 0.1-0.1 0.1-0.1-0.1-0.3-0.5-0.4-0.7-0.5-0.3-0.1-0.4 0.2-0.2 0.3z"/>
			<path class="st7" d="m120.2 31.4c0.3 0.1 0.6 0.4 0.9 0.3 0.1 0 0.1-0.1 0.1-0.2-0.1-0.3-0.6-0.4-0.9-0.5-0.1 0-0.3 0.3-0.1 0.4z"/>
			<path class="st7" d="m120 32.6c0.2 0 0.3-0.4 0.1-0.4-0.3-0.1-0.3 0.3-0.1 0.4z"/>
			<path class="st7" d="m91.2 15.5c-0.1 0-0.2 0.1-0.2 0.1v0.2s0.1 0.1 0.2 0.1c0.3 0 0.4-0.4 0.5-0.6 0.2-0.2 0.4-0.5 0.3-0.8 0-0.1-0.1-0.1-0.2-0.1-0.2 0.1-0.3 0.3-0.4 0.5-0.1 0.1-0.1 0.2-0.2 0.4v0.2c-0.1 0-0.1 0.1 0 0 0 0.1 0.1 0.1 0.1 0.1s0-0.1-0.1-0.1c0.1 0.1 0.1 0.2 0.2 0.2l-0.1 0.1c0.2-0.1 0.1-0.4-0.1-0.3z"/>
			<path class="st7" d="m93.4 15.6c0.2-0.1 0.5-0.2 0.7-0.4 0.2-0.1 0.4-0.2 0.4-0.4 0-0.1 0-0.1-0.1-0.1-0.2 0-0.4 0.1-0.6 0.2l-0.6 0.3c-0.2 0.1-0.1 0.5 0.2 0.4z"/>
			<path class="st7" d="m95.1 15.7c0.2 0 0.2-0.3 0-0.3s-0.2 0.3 0 0.3z"/>
			<path class="st7" d="m76.5 25.2c-0.5 0.1-1.1 0.4-1.4 0.8-0.2 0.2 0.1 0.5 0.3 0.3l1.2-0.9c0.2 0 0-0.2-0.1-0.2z"/>
			<path class="st7" d="m77.8 26c-0.2 0.1-0.4 0.3-0.5 0.4s-0.3 0.2-0.3 0.4c0 0.1 0 0.1 0.1 0.2 0.2 0 0.3-0.1 0.4-0.2 0.2-0.1 0.3-0.3 0.5-0.4 0.2-0.3 0-0.6-0.2-0.4z"/>
			<path class="st11" d="m51.7 136.5c-2.1 1.3-2.5 4.6-2.5 6.9 0.1 2.1 0.8 6.1 3.2 6.9 0.1 0 0.2-0.1 0.1-0.2-0.7-0.9-1.4-1.6-1.9-2.6-0.5-1.2-0.8-2.4-0.9-3.7-0.2-2.2 0.1-5.7 2.1-7 0.3-0.1 0.1-0.4-0.1-0.3z"/>
			<path class="st11" d="m47.2 137.7z"/>
			<path class="st11" d="m47.8 135.1c-2 1.8-3.3 3.6-3.4 6.4-0.1 2.4 0.3 5.6 1.8 7.5 0.1 0.2 0.4 0 0.3-0.2-0.3-1.2-0.9-2.2-1.2-3.4s-0.4-2.5-0.4-3.8c0.1-2.7 1.3-4.4 3.1-6.2 0.1-0.2-0.1-0.5-0.2-0.3z"/>
			<path class="st11" d="m42.6 133.9c-2.1 1.3-3.1 3.7-3.1 6.1 0 1.6 0.3 3.1 0.7 4.7 0.3 1.1 0.5 2.3 1.5 2.9 0.2 0.1 0.4-0.1 0.3-0.3-2.2-3.6-3.2-10.4 0.8-13.1 0.2-0.1 0-0.4-0.2-0.3z"/>
			<path class="st11" d="m14.2 121.7c-2.2 1.2-2.8 4-2.9 6.3-0.1 1.7 0.3 5.9 2.6 6.1 0.2 0 0.3-0.2 0.1-0.3-1.9-1.3-2.3-4.3-2-6.4 0.2-1.9 0.7-4.1 2.4-5.2 0.2-0.2 0-0.6-0.2-0.5z"/>
			<path class="st11" d="m10 120.6c-1.8 1.4-2.2 3.7-2.2 5.8 0 2.2 0.4 4.8 2.1 6.4 0.1 0.1 0.4-0.1 0.3-0.2-1-1.8-1.7-3.5-1.8-5.6-0.1-2.2 0.1-4.7 1.9-6.2 0.1 0-0.1-0.3-0.3-0.2z"/>
			<path class="st11" d="m7.8 119.8c-3 2.8-3.8 7.7-2.1 11.4 0.1 0.2 0.4 0.1 0.3-0.1-0.4-2.1-0.9-4-0.5-6.1 0.3-1.9 1.2-3.6 2.5-5 0.1-0.1-0.1-0.3-0.2-0.2z"/>
			<path class="st8" d="m86.1 11.8c0-0.3 0-0.6 0.1-1 0-0.2 0.1-0.5 0-0.7 0-0.1-0.1-0.1-0.2 0-0.2 0.2-0.2 0.5-0.2 0.8s0 0.7 0 1c0 0.2 0.3 0.1 0.3-0.1z"/>
			<path class="st8" d="m87.3 10.4c0.1-0.2 0.2-0.5 0.3-0.7s0.3-0.4 0.3-0.6c0-0.1-0.1-0.2-0.2-0.1-0.2 0.1-0.3 0.3-0.4 0.5-0.1 0.3-0.2 0.5-0.3 0.8 0 0.1 0.3 0.3 0.3 0.1z"/>
			<path class="st8" d="m88.5 9.7c0.2-0.3 0.4-0.7 0.7-1 0.2-0.3 0.4-0.5 0.4-0.8 0-0.1-0.1-0.1-0.1-0.1-0.3 0.1-0.4 0.5-0.6 0.7-0.2 0.3-0.4 0.7-0.6 1-0.2 0.2 0.1 0.4 0.2 0.2z"/>
			<path class="st8" d="m105.1 3.2c0.1-0.3 0.3-0.5 0.5-0.7 0.1-0.2 0.5-0.3 0.5-0.5 0-0.1 0-0.1-0.1-0.2-0.3-0.1-0.5 0.2-0.7 0.4s-0.4 0.5-0.5 0.8c-0.1 0.3 0.2 0.4 0.3 0.2z"/>
			<path class="st8" d="m106.5 3.1c0.1-0.2 0.3-0.4 0.5-0.6 0.1-0.1 0.3-0.2 0.3-0.4 0-0.1 0-0.1-0.1-0.1-0.4-0.1-0.8 0.6-1 0.9-0.1 0.1 0.2 0.3 0.3 0.2z"/>
			<path class="st8" d="m107.9 2.9c0.2-0.2 0.5-0.3 0.7-0.6 0-0.1 0-0.2-0.1-0.1-0.3 0.1-0.5 0.2-0.8 0.4-0.2 0.1 0 0.4 0.2 0.3z"/>
			<path class="st8" d="m118 22.7c0-0.3 0.1-0.5 0.2-0.8 0.1-0.2 0.2-0.4 0.2-0.6 0-0.1-0.1-0.1-0.1-0.1-0.3 0.1-0.3 0.3-0.4 0.6s-0.2 0.6-0.2 0.9c0 0.2 0.3 0.2 0.3 0z"/>
			<path class="st8" d="m118.7 22.3c0.1-0.3 0.2-0.5 0.4-0.8 0.1-0.2 0.3-0.4 0.3-0.6 0-0.1-0.1-0.1-0.1-0.1-0.2 0.1-0.3 0.3-0.5 0.5-0.2 0.3-0.3 0.6-0.4 0.9-0.1 0.2 0.2 0.3 0.3 0.1z"/>
			<path class="st8" d="m119.9 22c0.1-0.2 0.3-0.4 0.4-0.6s0.2-0.3 0.3-0.5c0-0.1-0.1-0.1-0.2-0.1-0.2 0.1-0.3 0.3-0.4 0.5s-0.2 0.4-0.4 0.6c0 0.1 0.2 0.3 0.3 0.1z"/>
			<path class="st8" d="m121.7 21.6c0.2-0.2 0.6-0.4 0.7-0.7 0-0.1 0-0.2-0.1-0.1-0.3 0.1-0.6 0.3-0.8 0.5-0.1 0.1 0.1 0.4 0.2 0.3z"/>
			<path class="st8" d="m121.8 24.8c0.3 0 0.7-0.1 1-0.1s0.5 0 0.7-0.2v-0.2c-0.2-0.1-0.5-0.1-0.8 0s-0.6 0.1-1 0.2c-0.2 0.1-0.1 0.3 0.1 0.3z"/>
			<path class="st8" d="m123.2 23.2c0.2 0 0.4 0.1 0.6 0.1s0.3 0.1 0.5 0c0.1-0.1 0.1-0.2 0-0.3s-0.3-0.1-0.5-0.1-0.4 0-0.6-0.1c-0.2 0-0.3 0.4 0 0.4z"/>
			<path class="st8" d="m124.5 22.8c0.2 0.1 0.6 0.1 0.8-0.1 0-0.1 0-0.2-0.1-0.2-0.2-0.1-0.5 0-0.7-0.1-0.2 0-0.2 0.4 0 0.4z"/>
			<path class="st8" d="m125.8 8.9c0.3 0 0.5-0.1 0.8-0.1 0.2 0 0.5 0 0.6-0.2 0.1-0.1 0.1-0.2 0-0.2-0.2-0.1-0.4 0-0.6 0-0.3 0-0.5 0.1-0.8 0.1-0.3 0.1-0.3 0.4 0 0.4z"/>
			<path class="st8" d="m127 9.7c0.3 0 0.5-0.1 0.8-0.1 0.2 0 0.4 0 0.5-0.2v-0.1c-0.2-0.1-0.4-0.1-0.6 0-0.3 0.1-0.5 0.1-0.8 0.2-0.2-0.1-0.2 0.2 0.1 0.2z"/>
			<path class="st8" d="m128.2 10.4c0.3 0 0.6 0 0.9-0.1 0.2-0.1 0.6-0.2 0.6-0.4 0-0.1-0.1-0.2-0.1-0.2-0.2-0.1-0.4 0.1-0.6 0.2-0.3 0.1-0.5 0.1-0.8 0.1-0.2 0-0.2 0.4 0 0.4z"/>
			<path class="st8" d="m67.3 60.6c-0.3 0.1-0.6 0.2-0.9 0.2-0.2 0.1-0.6 0.1-0.7 0.3-0.1 0.1 0 0.2 0.1 0.3 0.3 0.1 0.5 0 0.8-0.1s0.6-0.2 0.9-0.3c0.1-0.1 0-0.5-0.2-0.4z"/>
			<path class="st8" d="m66.5 62.8c-0.3 0.1-0.7 0.2-1 0.3-0.1 0.1-0.1 0.1-0.1 0.2v0.1c0.1 0.1 0.1 0.1 0.2 0.1 0.4-0.1 0.7-0.3 1-0.4 0.3 0 0.1-0.4-0.1-0.3z"/>
			<path class="st8" d="m65.5 64.4c-0.5 0-1 0.1-1.3 0.5-0.2 0.2 0.1 0.4 0.3 0.3 0.4-0.2 0.7-0.4 1.1-0.4 0.2 0 0.2-0.4-0.1-0.4z"/>
			<path class="st8" d="m64.4 65.7c-0.2 0.1-0.4 0.2-0.6 0.2s-0.3 0-0.4 0.2v0.2c0.3 0.3 0.9 0 1.3-0.1 0.1-0.3 0-0.7-0.3-0.5z"/>
			<path class="st8" d="m61.8 72c-0.4 0.3-0.8 0.6-1.2 1-0.1 0.1-0.1 0.2 0 0.3 0 0 0 0.1 0.1 0.1 0.1 0.1 0.2 0.1 0.3 0 0.4-0.3 0.8-0.7 1.1-1 0.1-0.3-0.1-0.6-0.3-0.4z"/>
			<path class="st8" d="m61.4 73.6l-0.6 0.3c-0.2 0.1-0.3 0.1-0.4 0.3 0 0.1 0 0.2 0.1 0.2 0.2 0.1 0.3-0.1 0.5-0.2s0.4-0.2 0.6-0.4c0.2 0.1 0-0.3-0.2-0.2z"/>
			<path class="st8" d="m60.4 74.9c-0.2 0.2-0.4 0.4-0.7 0.6-0.2 0.2 0 0.6 0.3 0.4s0.6-0.4 0.8-0.7c0.2-0.2-0.2-0.5-0.4-0.3z"/>
			<path class="st0" d="m106.6 69c-0.2 0.2-0.4 0.4-0.7 0.6-0.2 0.2-0.4 0.3-0.4 0.5 0 0.1 0.1 0.2 0.2 0.2 0.2 0 0.4-0.2 0.6-0.4s0.4-0.4 0.6-0.5c0.1-0.2-0.2-0.5-0.3-0.4z"/>
			<path class="st0" d="m105.7 71.1c-0.2 0.2-0.4 0.3-0.7 0.5-0.2 0.1-0.4 0.2-0.5 0.5 0 0.1 0 0.2 0.2 0.2s0.4-0.2 0.6-0.4c0.2-0.2 0.4-0.3 0.6-0.5s0-0.5-0.2-0.3z"/>
			<path class="st0" d="m104.4 73.1c-0.2 0.2-0.3 0.4-0.5 0.6-0.1 0.2-0.3 0.3-0.2 0.5 0 0.1 0.1 0.1 0.2 0.1 0.2 0 0.2-0.1 0.4-0.3 0.1-0.2 0.3-0.4 0.4-0.5 0.2-0.2-0.1-0.6-0.3-0.4z"/>
			<path class="st0" d="m119.6 62.7c0.3 0.1 0.5 0.2 0.8 0.3 0.2 0.1 0.4 0.3 0.6 0.2 0.1 0 0.1-0.1 0.1-0.1s0 0 0-0.1-0.1-0.1-0.1-0.2c-0.4-0.2-0.8-0.3-1.2-0.4-0.3 0-0.4 0.3-0.2 0.3z"/>
			<path class="st0" d="m119.7 64.1c0.2 0.4 0.3 0.8 0.4 1.2 0 0.1 0.1 0.2 0.2 0.2s0.1 0 0.2-0.1 0.1-0.2 0.1-0.3c-0.1-0.5-0.4-1-0.7-1.4 0 0-0.3 0.2-0.2 0.4z"/>
			<path class="st0" d="m120 65.7c0.1 0.3 0.2 0.7 0.3 1 0 0.1 0.1 0.1 0.2 0.2h0.2c0.1-0.1 0.1-0.2 0.1-0.3-0.1-0.3-0.2-0.7-0.4-1-0.1-0.3-0.5-0.1-0.4 0.1z"/>
			<path class="st0" d="m86.7 88.2c-0.1 0.1-0.3 0.3-0.5 0.4-0.1 0.1-0.3 0.2-0.3 0.4 0 0.1 0.1 0.2 0.2 0.2 0.2-0.1 0.3-0.2 0.4-0.3l0.4-0.4c0.2-0.2 0-0.4-0.2-0.3z"/>
			<path class="st0" d="m88.2 88.2c-0.3 0.3-0.6 0.6-1 0.9-0.3 0.2-0.6 0.4-0.8 0.7-0.1 0.1 0.1 0.3 0.2 0.2 0.4-0.1 0.7-0.4 0.9-0.7 0.3-0.3 0.6-0.7 0.9-1 0.1-0.1-0.1-0.2-0.2-0.1z"/>
			<path class="st0" d="m89.7 88.3c-0.3 0.4-0.6 0.8-0.9 1.2-0.3 0.3-0.7 0.6-0.8 1 0 0.1 0.1 0.2 0.2 0.2 0.4-0.1 0.7-0.6 1-0.9 0.3-0.4 0.6-0.9 0.8-1.3 0.1-0.2-0.2-0.4-0.3-0.2z"/>
			<path class="st0" d="m90.9 88.5c-0.1 0.6-0.4 1.1-0.8 1.6-0.3 0.4-0.7 0.7-1.1 1.1-0.1 0.1 0 0.3 0.2 0.3 1.1-0.4 1.8-1.9 2-2.9 0.1-0.3-0.2-0.4-0.3-0.1z"/>
			<path class="st0" d="m92.3 89.2c-0.1 0.4-0.2 0.8-0.4 1.1s-0.5 0.5-0.5 0.9c0 0.1 0.1 0.2 0.3 0.2 0.4-0.1 0.6-0.6 0.7-0.9 0.2-0.4 0.3-0.8 0.4-1.3-0.1-0.2-0.4-0.2-0.5 0z"/>
			<path class="st0" d="m93.5 89.7c0 0.3-0.1 0.6-0.1 0.9 0 0.1 0 0.4 0.2 0.4s0.2-0.2 0.3-0.3c0.1-0.3 0.1-0.6 0.1-1-0.1-0.2-0.5-0.2-0.5 0z"/>
			<path class="st0" d="m94.5 90.6c0.3 0 0.4-0.4 0.1-0.4s-0.4 0.4-0.1 0.4z"/>
			<path class="st0" d="m95.3 90.3c0 0.2-0.1 0.4 0 0.6 0.1 0.1 0.2 0.1 0.2 0 0.2-0.2 0.2-0.4 0.2-0.6 0.1-0.2-0.3-0.2-0.4 0z"/>
			<path class="st0" d="m103.5 75.9c1.9 0.4 3.6 1.1 4.9 2.6 1.1 1.2 1.3 2.6 2 4 0.1 0.2 0.3 0.1 0.3 0 0.3-1.6-0.9-3.5-1.9-4.6-1.4-1.4-3.2-2.3-5.2-2.4-0.3 0.1-0.4 0.4-0.1 0.4z"/>
			<path class="st0" d="m105.1 76.4c1.3 0 2.7 0.1 3.9 0.7 1 0.5 1.6 1.3 2.4 2 0.1 0.1 0.3 0 0.3-0.1-0.5-2.7-4.3-3.3-6.5-3-0.4 0-0.3 0.4-0.1 0.4z"/>
			<path class="st0" d="m115 61.6c-0.1-0.3 0.1-0.5 0.3-0.7s-0.1-0.4-0.3-0.3c-0.4 0.2-0.6 0.7-0.4 1.2 0.1 0.1 0.5 0 0.4-0.2z"/>
			<path class="st0" d="m115.5 61.7c0.2-0.2 0.3-0.4 0.5-0.6 0.2-0.1 0.4-0.2 0.4-0.5 0-0.1 0-0.1-0.1-0.1-0.2-0.1-0.5 0.1-0.6 0.3-0.2 0.2-0.4 0.5-0.5 0.7s0.2 0.4 0.3 0.2z"/>
			<path class="st0" d="m116.3 61.7c0.3-0.1 1-0.4 1.1-0.8 0-0.1-0.1-0.1-0.1-0.1-0.2 0-0.3 0.2-0.5 0.3s-0.4 0.2-0.6 0.3c-0.2 0-0.1 0.4 0.1 0.3z"/>
			<path class="st0" d="m117.7 61.7c0.2-0.2 0.5-0.4 0.6-0.7 0-0.1-0.1-0.1-0.1-0.1-0.3 0-0.5 0.4-0.7 0.6-0.2 0.1 0.1 0.3 0.2 0.2z"/>
			<path class="st0" d="m100.3 76.7c0.2 0 0.4 0.1 0.6 0.3 0.1 0.1 0.2 0.1 0.4 0.1l0.1-0.1c0-0.4-0.7-0.5-1-0.6-0.3 0-0.3 0.3-0.1 0.3z"/>
			<path class="st0" d="m101.6 76.6c0.3 0 0.5 0.1 0.7 0.2 0.2 0.2 0.5-0.2 0.3-0.4-0.3-0.3-0.7-0.3-1-0.3-0.3 0.2-0.3 0.5 0 0.5z"/>
			<path class="st0" d="m102.8 76.8c0.1 0.1 0.2 0.1 0.4 0.2h0.2c0.1-0.1 0.1-0.1 0.1-0.2s-0.1-0.1-0.1-0.2c-0.1-0.1-0.2-0.1-0.4-0.2-0.3-0.1-0.4 0.3-0.2 0.4z"/>
			<path class="st0" d="m96.6 90.9c-0.1 0.1-0.2 0.3-0.2 0.4s0 0.2 0.1 0.2h0.1c0.1 0 0.2 0 0.2-0.1 0.1-0.1 0.1-0.3 0.2-0.4 0-0.2-0.3-0.4-0.4-0.1z"/>
			<path class="st0" d="m97.3 90.7c0 0.2 0 0.3-0.1 0.5-0.1 0.3 0.3 0.4 0.4 0.2s0.1-0.4 0.1-0.6c-0.1-0.3-0.4-0.3-0.4-0.1z"/>
			<path class="st0" d="m98.3 90.6c0 0.3 0 0.6-0.1 0.9 0 0.1 0 0.2 0.1 0.2h0.1c0.1 0 0.2-0.1 0.2-0.2 0.1-0.4 0.1-0.7 0-1.1 0.1-0.1-0.3 0-0.3 0.2z"/>
			<path class="st7" d="m79.6 73.1v-0.6c0-0.1 0.1-0.2 0-0.3 0 0 0-0.1-0.1-0.1-0.4 0-0.4 0.7-0.4 1 0.2 0.3 0.5 0.3 0.5 0z"/>
			<path class="st7" d="m80.4 72.6c0-0.2 0.1-0.3 0.2-0.5 0.1-0.1 0.1-0.2 0.1-0.3s0-0.1-0.1-0.1c-0.3 0-0.5 0.5-0.5 0.8-0.1 0.3 0.3 0.4 0.3 0.1z"/>
			<path class="st7" d="m81 72.6c0.1-0.2 0.4-0.4 0.5-0.6 0-0.1 0-0.1-0.1-0.1-0.3 0-0.5 0.3-0.6 0.6-0.1 0.1 0.1 0.3 0.2 0.1z"/>
			<path class="st7" d="m85.4 72.6c0.3-0.1 0.6-0.2 0.6-0.4 0-0.1-0.1-0.1-0.1-0.1-0.2 0-0.3 0.2-0.5 0.2-0.3 0-0.2 0.3 0 0.3z"/>
			<path class="st7" d="m75.4 79.3c0-0.3 0-0.6-0.2-0.9 0-0.1-0.2-0.1-0.2 0-0.1 0.3 0 0.6 0.1 0.9 0.1 0.2 0.4 0.1 0.3 0z"/>
			<path class="st7" d="m76.1 78c0.1 0 0.1-0.1 0 0-0.1-0.2-0.1 0 0 0z"/>
			<path class="st7" d="m76.6 77.5c0.1 0 0.2-0.2 0-0.2-0.1 0-0.2 0.2 0 0.2z"/>
			<path class="st7" d="m75.9 89.5c0 0.3-0.1 0.5-0.1 0.8 0 0.1 0.2 0.1 0.2 0 0.1-0.2 0.1-0.5 0.1-0.8 0.1-0.1-0.1-0.1-0.2 0z"/>
			<path class="st7" d="m76.4 89.7c-0.1 0.3-0.2 0.6-0.1 0.9 0 0.2 0.1 0.6 0.4 0.6 0.1 0 0.1 0 0.1-0.1 0-0.2-0.1-0.4-0.2-0.6-0.1-0.3-0.1-0.5 0-0.8 0.1-0.1-0.2-0.2-0.2 0z"/>
			<path class="st7" d="m77 90.5c0.2 0.2 0.3 0.5 0.5 0.7 0.1 0.2 0.2 0.4 0.5 0.5 0.1 0 0.2 0 0.2-0.1 0-0.2-0.2-0.4-0.3-0.6-0.2-0.2-0.4-0.5-0.6-0.7-0.2-0.1-0.4 0.1-0.3 0.2z"/>
			<path class="st7" d="m78.3 91.1c0.2 0.2 0.4 0.3 0.5 0.5 0.1 0.1 0.3 0.3 0.5 0.3 0.1 0 0.1 0 0.1-0.1 0-0.2-0.2-0.3-0.3-0.4-0.2-0.2-0.4-0.3-0.6-0.5s-0.4 0.1-0.2 0.2z"/>
			<path class="st7" d="m80 91.5c0.2 0 0.2-0.3 0-0.3s-0.2 0.3 0 0.3z"/>
			<path class="st7" d="m80.9 91.6c0.2 0 0.3-0.3 0-0.4-0.2 0-0.2 0.4 0 0.4z"/>
			<path class="st10" d="m60.1 79.5c-0.1-0.2-0.2-0.4-0.3-0.7 0-0.2 0-0.3-0.2-0.3h-0.1c-0.2 0.3 0.2 0.9 0.3 1.1s0.4 0.1 0.3-0.1z"/>
			<path class="st10" d="m59 80c-0.2-0.2-0.3-0.4-0.5-0.6-0.1-0.1-0.2-0.3-0.4-0.3-0.1 0-0.1 0-0.1 0.1 0 0.2 0.1 0.3 0.3 0.4 0.2 0.2 0.3 0.4 0.5 0.5 0.1 0.2 0.4 0 0.2-0.1z"/>
			<path class="st10" d="m58.1 80.3c-0.3-0.2-0.7-0.5-1-0.7-0.2-0.1-0.5-0.1-0.6 0.1 0 0.1 0 0.2 0.1 0.2h0.1 0.1c-0.1 0-0.1 0 0 0s0.1 0 0.2 0.1 0.2 0.1 0.3 0.2c0.2 0.1 0.4 0.3 0.6 0.4s0.4-0.2 0.2-0.3z"/>
			<path class="st10" d="m57.1 81.1h-0.6s-0.2-0.1-0.4 0c-0.1 0-0.1 0.1-0.1 0.2 0.2 0.3 0.8 0.2 1.1 0.2 0.3-0.1 0.2-0.4 0-0.4z"/>
			<path class="st10" d="m62 89.2c-0.3 0.1-0.6 0.2-0.8 0.3s-0.5 0.2-0.5 0.4c0 0.1 0 0.1 0.1 0.1 0.2 0.1 0.4-0.1 0.6-0.2 0.3-0.1 0.5-0.3 0.8-0.4 0.1 0.1 0-0.2-0.2-0.2z"/>
			<path class="st10" d="m62.1 90.4c-0.3 0.1-0.6 0.3-0.9 0.6-0.1 0.1-0.1 0.2-0.1 0.2 0 0.1 0.1 0.1 0.1 0.1h0.2c0.2-0.2 0.5-0.4 0.7-0.6 0.3 0 0.2-0.4 0-0.3z"/>
			<path class="st10" d="m61.9 91.5c0 0.2-0.1 0.4 0 0.6 0 0.1 0.1 0.1 0.2 0 0.2-0.2 0.1-0.4 0.2-0.6 0-0.1-0.4-0.2-0.4 0z"/>
			<path class="st10" d="m89.8 97.8c-0.6 0.6-1.7 1.8-1.6 2.8 0 0.1 0.2 0.1 0.2 0.1 0.3-0.3 0.4-0.8 0.6-1.3 0.3-0.5 0.6-1 1-1.4 0.1-0.2-0.1-0.3-0.2-0.2z"/>
			<path class="st10" d="m89.6 99.7c-0.1 0.3-0.2 0.5-0.2 0.8 0 0.2-0.1 0.4 0 0.6 0 0.1 0.1 0 0.2 0 0.1-0.2 0.1-0.4 0.1-0.6 0-0.3 0.1-0.5 0.1-0.7 0.1-0.2-0.2-0.3-0.2-0.1z"/>
			<path class="st10" d="m90.3 100.4c0.1 0.3 0 0.5 0 0.8 0 0.1 0 0.2 0.1 0.2h0.1c0.1 0 0.1-0.1 0.2-0.1 0.1-0.3 0.1-0.6 0-0.9 0-0.3-0.4-0.3-0.4 0z"/>
			<path class="st10" d="m91.3 101.3c0.3 0 0.3-0.4 0.1-0.4-0.3-0.1-0.4 0.3-0.1 0.4z"/>
			<path class="st10" d="m92 101.4c0.2 0 0.3-0.3 0-0.3-0.1-0.1-0.2 0.3 0 0.3z"/>
			<path class="st10" d="m93 101.3c0.3 0 0.3-0.4 0.1-0.4-0.3-0.1-0.3 0.4-0.1 0.4z"/>
			<path class="st10" d="m100.8 96.2c0.2 0.1 0.5 0.4 0.8 0.3l0.1-0.1c0-0.3-0.4-0.4-0.6-0.5-0.3-0.2-0.5 0.2-0.3 0.3z"/>
			<path class="st10" d="m102 96.4c0.2 0.1 0.3 0.1 0.5 0.2 0.1 0 0.1-0.1 0.1-0.1-0.1-0.1-0.3-0.2-0.4-0.3-0.3-0.2-0.4 0.1-0.2 0.2z"/>
			<path class="st10" d="m103 96.4c0.2 0.1 0.5 0.3 0.8 0.2 0.1 0 0.1-0.1 0.1-0.2-0.2-0.2-0.5-0.3-0.7-0.4-0.3-0.1-0.4 0.3-0.2 0.4z"/>
		<path class="st1" d="m75.8 72.3c-0.8-0.6-1.7-1.2-2.7-1.4-1-0.1-2.2 0.3-2.6 1.2-0.1 0.3-0.2 0.7-0.4 0.9-0.3 0.4-0.8 0.4-1.3 0.5-1.9 0.1-4.1 0.5-5.3 2-0.8 1-1 2.2-1.3 3.4-0.2 1.3-0.5 2.6-0.2 3.9 0.6 2.7 3.5 4.5 6.3 4.7s5.5-0.8 8.2-1.7c0.6-0.2 1.2-0.5 1.5-1 0.2-0.4 0.3-0.8 0.3-1.2 0.2-1.7 0.4-3.3 0.6-5 0.4-3-0.7-4.4-3.1-6.3z"/>
		<path class="st7" d="m86.7 78c-1.7 3.6-2.8 7.5-2.9 11.5 0 0.7 0.2 1.8-0.4 2.4-0.3 0.3-0.7 0.4-1 0.6-1.1 0.4-2.3 0.9-3.5 0.8-4.3-0.2-5.3-5.9-5.1-9.2 0.1-1.2 0.2-2.5 0.5-3.7 0.4-1.5 1.1-2.9 1.9-4.2 0.7-1.2 1.4-2.4 2.5-3.2 2.2-1.6 6.8-1.6 8.6 0.6 0.3 0.4 0.6 0.9 0.6 1.5 0 0.5-0.3 1-0.5 1.4s-0.4 0.9-0.7 1.5z"/>
	<path class="st1" d="m77 73.3s-3.3-3-5.2-2.2c-1.8 0.8-1.3 2.3-2.5 2.4s-3.7 0-5.4 1.6c-1.7 1.7 7.7 7.4 7.7 7.4l2.5-3.9 2.9-5.3z"/>
</svg>
