<?xml version="1.0" encoding="UTF-8" standalone="no"?>
<!-- Generator: Adobe Illustrator 24.0.0, SVG Export Plug-In . SVG Version: 6.00 Build 0)  -->
<svg id="圖層_1" style="enable-background:new 0 0 722.3 152" xmlns="http://www.w3.org/2000/svg" xml:space="preserve" viewBox="0 0 722.3 152" version="1.1" y="0px" x="0px" xmlns:xlink="http://www.w3.org/1999/xlink">
<style type="text/css">
	.st0{clip-path:url(#SVGID_2_);fill:#FFFFFF;}
	.st1{clip-path:url(#SVGID_4_);fill:#FFFFFF;}
	.st2{clip-path:url(#SVGID_6_);fill:#FFFFFF;}
	.st3{clip-path:url(#SVGID_8_);}
	.st4{fill:#E1EBF2;}
	.st5{clip-path:url(#SVGID_10_);}
	.st6{clip-path:url(#SVGID_12_);}
	.st7{fill:#C63E46;}
	.st8{display:none;opacity:0.7;}
	.st9{display:inline;opacity:0.78;}
	.st10{fill:#FBF2F3;}
	.st11{opacity:0.5;}
	.st12{clip-path:url(#SVGID_14_);}
	.st13{fill:#AC6730;}
	.st14{fill:#C9D9E7;}
	.st15{fill:#E1A43C;}
	.st16{fill:#5EA1B5;}
	.st17{fill:#C2793A;}
	.st18{clip-path:url(#SVGID_16_);}
	.st19{fill:#A42532;}
	.st20{fill:#E5A0AC;}
	.st21{fill:#DB6F7D;}
	.st22{fill:#3D6B7B;}
	.st23{clip-path:url(#SVGID_18_);}
	.st24{fill:#5EA19A;}
	.st25{fill:#6CB5C3;}
	.st26{clip-path:url(#SVGID_20_);}
	.st27{fill:#996B43;}
	.st28{fill:#FFFFFF;}
	.st29{clip-path:url(#SVGID_22_);}
	.st30{fill:#D7A769;}
	.st31{fill:#2E5173;}
	.st32{fill:#2F5360;}
</style>
<g id="OBJECTS">
			<defs>
				<rect id="SVGID_1_" y="-563.9" x="-35.6" height="803.9" width="809.4"/>
			</defs>
			<clipPath id="SVGID_2_">
				<use xlink:href="#SVGID_1_"/>
			</clipPath>
			<path class="st0" d="m140.1 608.8c162.1-53.9 336.4-31.7 485.7 76.8 54 39.2 77.1 12.9 117.9 41.2 18.1 12.5 37.9 23.8 57.5 19 24.5-5.9 43.6 32 54.1-1.4 12.8-40.8 15.4-87.1 17.6-132.2 3.2-67.7 6-136.8-5.2-202.7-19-111.1-1.8-172.7-74.4-211.3-74.5-39.7-198.5-123.7-274.5-142.1-100.5-24.4-219.2-40.4-319-10.9-46.4 13.6-93.3 53-137.2 83.8-50.5 35.5-101.1 20.7-147.9 77.2-45.9 55.3-17.1 231.8-32.6 316.6-10.5 57.1 1.4 144.5 43.2 158.8 46.8 15.9 91-29.1 137.1-44.9 25.9-8.8 51.7-19.4 77.7-27.9z"/>
			<defs>
				<rect id="SVGID_3_" y="-563.9" x="-35.6" height="803.9" width="809.4"/>
			</defs>
			<clipPath id="SVGID_4_">
				<use xlink:href="#SVGID_3_"/>
			</clipPath>
			<path class="st1" d="m130.4 126.3c38.7-20.6 82.1-10.1 122-25.6 36.4-14.1 74-19.9 111.5-23.6 65.7-6.4 132.4-6.3 196.6 15.9 50.3 17.4 98.1 47.9 148.2 66.4 67.6 25.1 138 27.8 206.1 49.4 4.6 1.4 9.4 3.2 12.8 8 5.6 7.9 5.4 22.2 1.3 32-4 10-10.9 16.4-17.7 22-63.9 53.4-139.7 61.6-212.7 70.1-161.2 18.8-322.3 44.5-483.9 47.6-84 1.6-169-3.2-249.6-38.4-16.9-7.4-34.5-17-45.2-37.9-9.4-18.3-11.7-54 3.1-68 7.6-7.1 16-42.9 24.5-45.5 12.3-3.9 24.5-7.9 36.8-11.9 49.4-16.4 98.5-35.1 146.2-60.5z"/>
			<defs>
				<rect id="SVGID_5_" y="-563.9" x="-35.6" height="803.9" width="809.4"/>
			</defs>
			<clipPath id="SVGID_6_">
				<use xlink:href="#SVGID_5_"/>
			</clipPath>
			<path class="st2" d="m250.3 81.8c3.7-5.1 7.4-10.3 11.9-13.7 5.6-4 12-5 18.1-5.8 45.5-6.1 91.2-10 137-11.4 15.1-0.5 30.2-0.6 45.3 1.3 8.3 1.1 16.8 3.1 24.4 8.5 5.2 3.7 9.8 9 14.4 14.3 27.3 31.2 54.5 62.4 81.8 93.6 6.3 7.2 13.3 16.4 12.7 28.3-26-3.1-52-5.9-78-9-16.3-1.9-32.6-3.7-48.9-3.5-24.8 0.3-49.5 5.3-74.4 7.2-56.6 4.3-113.2-7.2-169.9-7.7-5.2 0-27.2 4-30-2.9-3.2-7.7 10.8-27 13.7-32.3 13.1-23.7 27.1-45.9 41.9-66.9z"/>
			<defs>
				<rect id="SVGID_7_" y="-563.9" x="-35.6" height="803.9" width="809.4"/>
			</defs>
			<clipPath id="SVGID_8_">
				<use xlink:href="#SVGID_7_"/>
			</clipPath>
			<g class="st3">
				<path class="st4" d="m718.8 188.5c-4.6 0.6-9.3 1.8-14 1.3-11.1-1.3-20.7-11.7-31.1-17.8-14.8-8.8-31.9-8.5-46.7 0.6 4 4.7 8 9.3 12 14 5.1-9.3 14.8-9.5 22.3-5.5 7.6 4 14.1 11.6 21.7 15.6 9 4.8 19.2 4.7 27.4 12.1 3.3 3.1 6.3 7.4 9.7 10.3 10.3 8.4 24.1 2.7 33.7 12.9 4.7 5 8.8 13.8 14.6 12.7 2.5-0.5 4.6-2.9 6.3-5.9 21-40.9-42.1-52.2-55.9-50.3z"/>
				<path class="st4" d="m644.8 249c-14.5-9.5-25.1-28.6-38.9-40.2-16.1-13.7-36.3-16.9-49.6-36 3.5-1.8 7.3-0.3 10.9 1.1 19.3 8 39 16.2 55.9 32.5 7.2 7.1 14.1 15.6 22.6 18.6 4.6 1.6 9.6 1.6 14.2 3.2 8.1 2.7 14.9 10.5 21.5 18 3.6 4.2 7.2 8.4 9.7 14.1 1.5 3.5 2.4 7.2 2.1 11.4-6.9-0.2-15.5-9-22.8-12.1-8.6-3.4-17.5-5.3-25.6-10.6z"/>
				<path class="st4" d="m622.4 126.8c-6.2-3.1-12-7.2-17.5-12.2 3.7-5.1 9.1-7.6 14-6.1 5 1.4 9.4 6.6 11.5 13.3 0.2 0.8 0.5 1.8 0.5 2.6 0.1 2.9-2.2 5-4.1 4.8s-3.7-2.1-5.2-3.7"/>
			</g>
			<defs>
				<rect id="SVGID_9_" y="-563.9" x="-35.6" height="803.9" width="809.4"/>
			</defs>
			<clipPath id="SVGID_10_">
				<use xlink:href="#SVGID_9_"/>
			</clipPath>
			<g class="st5">
				<path class="st4" d="m1.8 200.1c4.6 0 9.4 0.6 14-0.3 11-2.6 20.1-14 30.1-21.4 14.4-10.5 31.4-12.2 46.6-4.7-3.8 5.1-7.4 10.3-11.2 15.3-5.5-8.7-15.2-7.9-22.6-2.9-7.3 5-13.5 13.2-20.8 18-8.7 5.8-18.9 6.9-26.7 15.3-3.2 3.5-5.8 8-9.2 11.3-9.8 9.5-23.9 5.6-32.9 16.7-4.5 5.5-8.1 14.8-13.9 14.3-2.5-0.2-4.9-2.4-6.5-5.1-23.2-38.3 39.2-56.7 53.1-56.5z"/>
				<path class="st4" d="m78.6 252c13.9-11.1 23.5-31.4 36.7-44.5 15.3-15.4 35.3-21.1 47.7-41.6-3.6-1.4-7.3 0.5-10.8 2.4-18.9 10.3-38.1 20.7-54 38.9-6.9 7.9-13.4 17.2-21.6 21.2-4.5 2.3-9.5 2.7-14 4.8-7.9 3.7-14.4 12.2-20.5 20.4-3.3 4.5-6.8 9.2-9 15.1-1.3 3.7-1.9 7.6-1.4 11.6 6.9-1 15-10.8 22.1-14.6 8.4-4.7 17-7.4 24.8-13.7z"/>
				<path class="st4" d="m94.8 127.4c5.9-3.7 11.5-8.5 16.7-14.1-3.9-4.7-9.4-6.4-14.2-4.5-4.9 1.9-9.1 7.6-10.8 14.6-0.2 0.8-0.4 1.8-0.3 2.7 0.1 2.9 2.4 4.8 4.3 4.3s3.6-2.4 5-4.3"/>
			</g>
			<defs>
				<rect id="SVGID_11_" y="-563.9" x="-35.6" height="803.9" width="809.4"/>
			</defs>
			<clipPath id="SVGID_12_">
				<use xlink:href="#SVGID_11_"/>
			</clipPath>
			<g class="st6">
					<path class="st7" d="m808.1-180.4c6.4 0 6.4-14.6 0-14.6-6.3-0.1-6.3 14.6 0 14.6z"/>
			</g>
	<g class="st8">
		<g class="st9">
			<path class="st10" d="m163.9-494.2c0 1.2-1 2.1-2.1 2.1-1.2 0-2.1-0.9-2.1-2.1s1-2.1 2.1-2.1c1.2 0 2.1 0.9 2.1 2.1z"/>
			<path class="st10" d="m115.1-447.2c0 3.5-2.8 6.3-6.3 6.3s-6.3-2.8-6.3-6.3 2.8-6.3 6.3-6.3 6.3 2.8 6.3 6.3z"/>
			<path class="st10" d="m107.3-395c0 1.4-1.1 2.5-2.5 2.5s-2.5-1.1-2.5-2.5 1.1-2.5 2.5-2.5c1.4-0.1 2.5 1 2.5 2.5z"/>
			<path class="st10" d="m52.2-379.2c0 1.4-1.1 2.5-2.5 2.5s-2.5-1.1-2.5-2.5 1.1-2.5 2.5-2.5 2.5 1.1 2.5 2.5z"/>
			<path class="st10" d="m111.5-340.8c0 1.9-1.5 3.4-3.4 3.4s-3.4-1.5-3.4-3.4 1.5-3.4 3.4-3.4 3.4 1.5 3.4 3.4z"/>
			<path class="st10" d="m532.2-500.3c0 1.4-1.2 2.6-2.6 2.6s-2.6-1.2-2.6-2.6 1.2-2.6 2.6-2.6 2.6 1.1 2.6 2.6z"/>
			<path class="st10" d="m664.5-455.1c0 1.9-1.6 3.5-3.5 3.5s-3.5-1.6-3.5-3.5c0-1.9 1.6-3.5 3.5-3.5 1.9 0.1 3.5 1.6 3.5 3.5z"/>
			<path class="st10" d="m606.5-401.2c0 3.2-2.6 5.7-5.7 5.7-3.2 0-5.7-2.6-5.7-5.7 0-3.2 2.6-5.7 5.7-5.7 3.2 0 5.7 2.5 5.7 5.7z"/>
			<path class="st10" d="m52.2-533.7c0 1.4-1.1 2.5-2.5 2.5s-2.5-1.1-2.5-2.5c0-1.4 1.1-2.5 2.5-2.5s2.5 1.1 2.5 2.5z"/>
			<path class="st10" d="m19.1-456.2c0 1.3-1 2.3-2.3 2.3s-2.3-1-2.3-2.3c0-1.3 1-2.3 2.3-2.3s2.3 1 2.3 2.3z"/>
			<path class="st10" d="m25.4-325.1c0 1.7-1.4 3.2-3.2 3.2s-3.2-1.4-3.2-3.2c0-1.7 1.4-3.2 3.2-3.2s3.2 1.5 3.2 3.2z"/>
			<path class="st10" d="m112.9-289.5c0 1.6-1.3 2.8-2.8 2.8-1.6 0-2.8-1.3-2.8-2.8 0-1.6 1.3-2.8 2.8-2.8 1.6 0 2.8 1.3 2.8 2.8z"/>
			<path class="st10" d="m204.5-538.6c0 1.6-1.3 3-3 3-1.6 0-3-1.3-3-3 0-1.6 1.3-3 3-3s3 1.3 3 3z"/>
			<path class="st10" d="m220.2-447.8c0 2.4-2 4.4-4.4 4.4s-4.4-2-4.4-4.4 2-4.4 4.4-4.4 4.4 2 4.4 4.4z"/>
			<path class="st10" d="m298.7-544.9c0 1.1-0.9 2-2 2s-2-0.9-2-2c0-1.1 0.9-2 2-2s2 0.9 2 2z"/>
			<path class="st10" d="m321.6-551.2c0 0.6-0.5 1.1-1.1 1.1s-1.1-0.5-1.1-1.1c0-0.6 0.5-1.1 1.1-1.1s1.1 0.5 1.1 1.1z"/>
			<path class="st10" d="m442-542c0 0.5-0.4 1-1 1-0.5 0-1-0.4-1-1 0-0.5 0.4-1 1-1s1 0.5 1 1z"/>
			<path class="st10" d="m144.3-396.3c0 0.7-0.6 1.3-1.3 1.3s-1.3-0.6-1.3-1.3c0-0.7 0.6-1.3 1.3-1.3s1.3 0.6 1.3 1.3z"/>
			<path class="st10" d="m533.5-446.5c0 1-0.8 1.8-1.8 1.8s-1.8-0.8-1.8-1.8 0.8-1.8 1.8-1.8 1.8 0.8 1.8 1.8z"/>
			<path class="st10" d="m298-494c0 1.7-1.4 3.2-3.2 3.2s-3.2-1.4-3.2-3.2c0-1.7 1.4-3.2 3.2-3.2s3.2 1.4 3.2 3.2z"/>
			<path class="st10" d="m329.7-515.2c0 2.1-1.7 3.9-3.9 3.9-2.1 0-3.9-1.7-3.9-3.9s1.7-3.9 3.9-3.9c2.1 0 3.9 1.8 3.9 3.9z"/>
			<path class="st10" d="m202.6-390.5c0 1.1-0.9 2-2 2s-2-0.9-2-2 0.9-2 2-2c1.1 0 2 0.9 2 2z"/>
			<path class="st10" d="m181.3-367.3c0 2-1.6 3.7-3.7 3.7-2 0-3.7-1.6-3.7-3.7 0-2 1.6-3.7 3.7-3.7 2 0 3.7 1.7 3.7 3.7z"/>
			<path class="st10" d="m568.1-375.2c0 2.2-1.8 4-4 4s-4-1.8-4-4c0-2.2 1.8-4 4-4 2.1 0 4 1.8 4 4z"/>
			<g class="st11">
				<path class="st10" d="m122.7-497.4c0 1.3-1 2.3-2.3 2.3s-2.3-1-2.3-2.3 1-2.3 2.3-2.3 2.3 1 2.3 2.3z"/>
				<path class="st10" d="m611-521.8c0 2.5-2 4.5-4.5 4.5s-4.5-2-4.5-4.5 2-4.5 4.5-4.5 4.5 2 4.5 4.5z"/>
				<path class="st10" d="m648.1-361c0 3.6-2.9 6.5-6.5 6.5s-6.5-2.9-6.5-6.5 2.9-6.5 6.5-6.5c3.6 0 6.5 2.9 6.5 6.5z"/>
				<circle cy="-513.9" cx="22.6" r="3.4" class="st10"/>
				<circle cy="-442.7" cx="39.9" r="2.2" class="st10"/>
				<path class="st10" d="m12.2-396.3c0 0.7-0.6 1.3-1.3 1.3s-1.3-0.6-1.3-1.3c0-0.7 0.6-1.3 1.3-1.3 0.8 0 1.3 0.6 1.3 1.3z"/>
				<path class="st10" d="m101.7-261.4c0 0.2-0.1 0.3-0.3 0.3s-0.3-0.1-0.3-0.3c0-0.2 0.1-0.3 0.3-0.3s0.3 0.1 0.3 0.3z"/>
				<path class="st10" d="m230.1-511.1c0 1.6-1.3 2.9-2.9 2.9s-2.9-1.3-2.9-2.9 1.3-2.9 2.9-2.9 2.9 1.4 2.9 2.9z"/>
				<circle cy="-437.8" cx="517.2" r="2.8" class="st10"/>
				<path class="st10" d="m635.1-481.9c0 1.1-0.9 2-2 2s-2-0.9-2-2 0.9-2 2-2c1.1 0 2 0.9 2 2z"/>
				<path class="st10" d="m690.1-541.8c0 1.7-1.4 3.2-3.2 3.2-1.7 0-3.2-1.4-3.2-3.2s1.4-3.2 3.2-3.2c1.8 0.1 3.2 1.5 3.2 3.2z"/>
			</g>
			<path class="st10" d="m544.2-547.2c0 2.2-1.8 4-4 4s-4-1.8-4-4c0-2.2 1.8-4 4-4s4 1.8 4 4z"/>
			<path class="st10" d="m722.9-469.7c0 2.2-1.8 3.9-3.9 3.9-2.2 0-3.9-1.8-3.9-3.9 0-2.2 1.8-3.9 3.9-3.9 2.2 0 3.9 1.8 3.9 3.9z"/>
			<path class="st10" d="m711.7-390.5c0 1.1-0.9 2-2 2s-2-0.9-2-2 0.9-2 2-2 2 0.9 2 2z"/>
			<path class="st10" d="m664.5-399.5c0 1-0.8 1.7-1.7 1.7-1 0-1.7-0.8-1.7-1.7s0.8-1.7 1.7-1.7 1.7 0.8 1.7 1.7z"/>
			<path class="st10" d="m582.2-460.4c0 1-0.8 1.9-1.9 1.9-1 0-1.9-0.8-1.9-1.9 0-1 0.8-1.9 1.9-1.9s1.9 0.9 1.9 1.9z"/>
			<path class="st10" d="m631.4-319.1c0 1-0.8 1.8-1.8 1.8s-1.8-0.8-1.8-1.8 0.8-1.8 1.8-1.8 1.8 0.8 1.8 1.8z"/>
			<path class="st10" d="m598.3-285c0 0.9-0.7 1.6-1.6 1.6s-1.6-0.7-1.6-1.6 0.7-1.6 1.6-1.6 1.6 0.7 1.6 1.6z"/>
			<path class="st10" d="m601.4-359.2c0 0.8-0.7 1.5-1.5 1.5s-1.5-0.7-1.5-1.5c0-0.8 0.7-1.5 1.5-1.5s1.5 0.7 1.5 1.5z"/>
		</g>
		<g class="st9">
			<path class="st10" d="m560.3-291.2c0 3.5 2.8 6.3 6.3 6.3s6.3-2.8 6.3-6.3-2.8-6.3-6.3-6.3-6.3 2.9-6.3 6.3z"/>
			<path class="st10" d="m633.7-238c0 1.4 1.1 2.5 2.5 2.5s2.5-1.1 2.5-2.5-1.1-2.5-2.5-2.5-2.5 1.1-2.5 2.5z"/>
			<path class="st10" d="m688.7-222.2c0 1.4 1.1 2.5 2.5 2.5s2.6-1.1 2.6-2.5-1.1-2.5-2.6-2.5c-1.3 0-2.5 1.1-2.5 2.5z"/>
			<path class="st10" d="m629.5-183.8c0 1.9 1.5 3.4 3.4 3.4s3.4-1.5 3.4-3.4-1.5-3.4-3.4-3.4c-1.9 0.1-3.4 1.6-3.4 3.4z"/>
			<path class="st10" d="m208.8-343.3c0 1.4 1.2 2.6 2.6 2.6s2.6-1.2 2.6-2.6-1.2-2.6-2.6-2.6-2.6 1.2-2.6 2.6z"/>
			<path class="st10" d="m76.5-298c0 1.9 1.6 3.5 3.5 3.5s3.5-1.6 3.5-3.5-1.6-3.5-3.5-3.5c-1.9 0-3.5 1.6-3.5 3.5z"/>
			<path class="st10" d="m134.4-244.1c0 3.2 2.6 5.7 5.7 5.7 3.2 0 5.7-2.6 5.7-5.7 0-3.2-2.6-5.7-5.7-5.7-3.1-0.1-5.7 2.5-5.7 5.7z"/>
			<path class="st10" d="m134.1-158.1c0 1.7 1.4 3 3 3s3-1.4 3-3-1.4-3-3-3-3 1.3-3 3z"/>
			<path class="st10" d="m688.7-376.6c0 1.4 1.1 2.5 2.5 2.5s2.6-1.1 2.6-2.5-1.1-2.5-2.6-2.5c-1.3-0.1-2.5 1.1-2.5 2.5z"/>
			<path class="st10" d="m721.8-299.1c0 1.3 1 2.3 2.3 2.3s2.3-1 2.3-2.3-1-2.3-2.3-2.3c-1.2-0.1-2.3 1-2.3 2.3z"/>
			<path class="st10" d="m715.5-168c0 1.7 1.4 3.2 3.2 3.2 1.7 0 3.2-1.4 3.2-3.2 0-1.7-1.4-3.2-3.2-3.2s-3.2 1.4-3.2 3.2z"/>
			<path class="st10" d="m628-132.4c0 1.6 1.3 2.8 2.8 2.8 1.6 0 2.8-1.3 2.8-2.8 0-1.6-1.3-2.8-2.8-2.8s-2.8 1.2-2.8 2.8z"/>
			<path class="st10" d="m470.8-503.2c0 1.6 1.3 3 3 3 1.6 0 3-1.3 3-3 0-1.6-1.3-3-3-3-1.6 0-3 1.4-3 3z"/>
			<path class="st10" d="m498.8-314c0 2.4 2 4.4 4.4 4.4s4.4-2 4.4-4.4-2-4.4-4.4-4.4-4.4 2-4.4 4.4z"/>
			<path class="st10" d="m418.8-411.7c0 1.1 0.9 2 2 2s2-0.9 2-2-0.9-2-2-2-2 0.9-2 2z"/>
			<path class="st10" d="m404.1-417.2c0 0.6 0.5 1.1 1.1 1.1s1.1-0.5 1.1-1.1-0.5-1.1-1.1-1.1-1.1 0.5-1.1 1.1z"/>
			<path class="st10" d="m299-384.9c0 0.5 0.4 1 1 1 0.5 0 1-0.4 1-1 0-0.5-0.4-1-1-1s-1 0.5-1 1z"/>
			<path class="st10" d="m596.7-239.2c0 0.7 0.6 1.3 1.3 1.3s1.3-0.6 1.3-1.3-0.6-1.3-1.3-1.3-1.3 0.5-1.3 1.3z"/>
			<path class="st10" d="m207.5-289.4c0 1 0.8 1.8 1.8 1.8s1.8-0.8 1.8-1.8-0.8-1.8-1.8-1.8-1.8 0.8-1.8 1.8z"/>
			<path class="st10" d="m324.6-421.2c0 1.7 1.4 3.2 3.2 3.2s3.2-1.4 3.2-3.2c0-1.7-1.4-3.2-3.2-3.2s-3.2 1.5-3.2 3.2z"/>
			<path class="st10" d="m381.9-531.3c0 2.1 1.7 3.9 3.9 3.9s3.9-1.7 3.9-3.9-1.7-3.9-3.9-3.9c-2.1 0-3.9 1.7-3.9 3.9z"/>
			<path class="st10" d="m516.6-233.4c0 1.1 0.9 2 2 2s2-0.9 2-2-0.9-2-2-2-2 0.9-2 2z"/>
			<path class="st10" d="m538.7-210.2c0 2 1.6 3.7 3.7 3.7 2 0 3.7-1.6 3.7-3.7 0-2-1.6-3.7-3.7-3.7s-3.7 1.7-3.7 3.7z"/>
			<path class="st10" d="m172.9-218.1c0 2.2 1.8 4 4 4s4-1.8 4-4-1.8-4-4-4c-2.2-0.1-4 1.7-4 4z"/>
			<g class="st11">
				<path class="st10" d="m618.3-340.3c0 1.3 1 2.3 2.3 2.3s2.3-1 2.3-2.3c0-1.3-1-2.3-2.3-2.3-1.2-0.1-2.3 1-2.3 2.3z"/>
				<path class="st10" d="m130-364.7c0 2.5 2 4.5 4.5 4.5s4.5-2 4.5-4.5-2-4.5-4.5-4.5-4.5 2-4.5 4.5z"/>
				<path class="st10" d="m92.9-204c0 3.6 2.9 6.5 6.5 6.5s6.5-2.9 6.5-6.5-2.9-6.5-6.5-6.5c-3.6 0.1-6.5 3-6.5 6.5z"/>
				<path class="st10" d="m715-356.8c0 1.9 1.5 3.4 3.4 3.4s3.4-1.5 3.4-3.4-1.5-3.4-3.4-3.4c-1.9-0.1-3.4 1.5-3.4 3.4z"/>
				<circle cy="-285.7" cx="701.1" r="2.2" class="st10"/>
				<path class="st10" d="m728.7-239.2c0 0.7 0.6 1.3 1.3 1.3s1.3-0.6 1.3-1.3-0.6-1.3-1.3-1.3-1.3 0.5-1.3 1.3z"/>
				<path class="st10" d="m639.3-104.3c0 0.2 0.1 0.3 0.3 0.3s0.3-0.1 0.3-0.3c0-0.2-0.1-0.3-0.3-0.3s-0.3 0.1-0.3 0.3z"/>
				<path class="st10" d="m510.9-354c0 1.6 1.3 2.9 2.9 2.9s2.9-1.3 2.9-2.9-1.3-2.9-2.9-2.9c-1.6 0.1-2.9 1.3-2.9 2.9z"/>
				<circle cy="-325.4" cx="259.8" r="2.8" class="st10"/>
				<path class="st10" d="m265.8-425.2c0 1.1 0.9 2 2 2s2-0.9 2-2-0.9-2-2-2-2 0.9-2 2z"/>
				<path class="st10" d="m50.9-384.7c0 1.7 1.4 3.2 3.2 3.2 1.7 0 3.2-1.4 3.2-3.2 0-1.7-1.4-3.2-3.2-3.2s-3.2 1.4-3.2 3.2z"/>
			</g>
			<path class="st10" d="m196.8-390.1c0 2.2 1.8 4 4 4s4-1.8 4-4c0-2.2-1.8-4-4-4-2.3 0-4 1.8-4 4z"/>
			<path class="st10" d="m18-312.6c0 2.2 1.8 3.9 3.9 3.9s3.9-1.8 3.9-3.9c0-2.2-1.8-3.9-3.9-3.9s-3.9 1.7-3.9 3.9z"/>
			<path class="st10" d="m29.2-233.4c0 1.1 0.9 2 2 2s2-0.9 2-2-0.9-2-2-2c-1.1 0-2 0.9-2 2z"/>
			<circle cy="-242.4" cx="78.3" r="1.7" class="st10"/>
			<path class="st10" d="m158.8-303.3c0 1 0.8 1.9 1.9 1.9 1 0 1.9-0.8 1.9-1.9s-0.8-1.9-1.9-1.9-1.9 0.8-1.9 1.9z"/>
			<circle cy="-162" cx="111.4" r="1.8" class="st10"/>
			<path class="st10" d="m142.6-127.9c0 0.9 0.7 1.6 1.6 1.6s1.6-0.7 1.6-1.6-0.7-1.6-1.6-1.6c-0.8-0.1-1.6 0.7-1.6 1.6z"/>
			<circle cy="-202.1" cx="141.1" r="1.5" class="st10"/>
		</g>
	</g>
			<defs>
				<rect id="SVGID_13_" y="-38.2" x="276.5" height="95.5" width="143.2"/>
			</defs>
			<clipPath id="SVGID_14_">
				<use xlink:href="#SVGID_13_"/>
			</clipPath>
			<g class="st12">
				<path class="st13" d="m372 18.2c1.1-0.1 2.1-0.4 3.2-0.1s2.2 0.6 3.3 0.9c0.5 0.2 1.1 0.3 1.6 0.6 0.2 0.1 1.3 0.7 1.4 0.6-0.7 0.6-1.5 0.9-2.3 1.1-0.9 0.3-1.7 0.8-2.6 1.1-1.7 0.5-3.5 0.6-5.1 0.1-0.7-0.2-1.4-0.6-2-1-1.1-0.7-2-1.3-2.9-2.2-0.4-0.4 0.7-0.5 0.9-0.5 1.4-0.3 3-0.4 4.5-0.6z"/>
				<path class="st14" d="m378.5 19c-0.9-0.3-1.9-0.6-2.8-0.8-0.2 0.1-0.3 0.1-0.5 0.2-1.1 0.3-2.1 0.6-3.3 0.8-1 0.2-2.2 0.2-3.2 0.5 0.1 0.4 0.9 0.6 1.2 0.7 0.8 0.3 1.6 1 2.5 0.7 2.1-0.5 4.2-1.2 6.2-1.9 0.1-0.1 0-0.2-0.1-0.2z"/>
				<path class="st14" d="m377.6 20c-1.3-0.6-2.6-1.1-4-1.7-0.2-0.1-0.3-0.2-0.5-0.2-0.4 0-0.7 0.1-1.1 0.1-0.7 0.1-1.5 0.2-2.2 0.2 0.7 0.4 1.4 0.7 2.2 1.1 0.9 0.4 1.8 0.7 2.8 1 0.3 0.1 0.7 0.2 1 0.3 0.1 0 0.2 0.1 0.3 0.2 0.2 0.2 0.5 0.3 0.8 0.3 0.2 0 0.4 0 0.6-0.1 0.5-0.1 1-0.3 1.4-0.5-0.4-0.3-0.9-0.5-1.3-0.7z"/>
				<path class="st15" d="m379.1 37c0 0.2-0.1 0.3-0.1 0.4-1.6 0.4-3.2 1-4.9 1.5-1.1 0.3-2.2 0.6-3.1 1.3 0.2-1.7 0.3-3.3 0.3-5 0-2.1-0.1-4.3 0-6.4s0.4-4.3 1.4-6.2c0.7-1.5 2.2-1.3 3.7-1.6 1.6-0.2 3.2-0.5 4.9-0.9 0.1 1.1-0.1 2.3-0.2 3.4-0.5 4.5-1.1 9-2 13.5z"/>
				<path class="st16" d="m383.4 17.4c-0.5 0.6-1.3 0.9-2.1 1.1-2 0.6-4.1 1.2-6.1 1.7 0.1-0.4 0.2-0.9 0.3-1.3 0-0.1 0.1-0.3 0.2-0.3s0.2-0.1 0.2-0.1c0.9-0.1 1.8-0.1 2.7-0.2s1.8-0.1 2.5-0.7c0.8-0.6 1.1-1.8 0.7-2.7 0.6 0 1.4-0.2 1.8 0.4 0.5 0.7 0.3 1.6-0.2 2.1z"/>
				<path class="st16" d="m370.1 15.2c0 0.7 0.1 1.4 0.3 2.1 0.4 0.9 1.1 1.6 1.9 2.2 0.7 0.6 1.5 1.1 2.4 1.1 0.1-0.5 0.2-1 0.2-1.5-0.5 0-1.1-0.1-1.5-0.3-0.6-0.4-1-1.1-1.3-1.8-0.3-0.8-0.5-1.7-0.2-2.5 0-0.1 0.1-0.2 0.1-0.4 0-0.3-0.3-0.5-0.6-0.6-1-0.1-1.3 0.8-1.3 1.7z"/>
				<path class="st17" d="m364.2 33c-0.2 0.9-0.3 1.8-0.2 2.8 0 0.7 0.2 1.5 0.1 2.2v0.3c0.1 0.1 0.2 0.1 0.3 0.1l6.9 1.8c0-1.1 0.2-2.3 0.5-3.4 1.1-5.1 1.8-10.2 2-15.4-1.2-0.5-2.4-0.9-3.7-1.4-1.1-0.4-2.5-1-3.7-1-0.6 2.2-0.8 4.7-1.1 7-0.3 2.4-0.7 4.7-1.1 7z"/>
				<path class="st14" d="m375.8 16.9c0.5-1 1.3-2 2.3-2.4 1.8-0.8 3.9-0.2 5.5 0.9-1.6-0.1-3.3 0.5-4.6 1.5-0.7 0.6-1.3 1.3-1.9 2-0.3 0.4-0.6 0.7-1 1-0.2 0.2-0.8 0.4-1.1 0.3-0.4-0.2-0.2-0.5-0.1-0.9 0.3-0.8 0.5-1.6 0.9-2.4z"/>
				<path class="st14" d="m375.3 16.4c-0.3-1.3-1-2.6-2.1-3.3-0.1-0.1-0.3-0.2-0.5-0.2s-0.3 0.1-0.5 0.1c-0.6 0.2-1.1 0.4-1.6 0.6 1.1 0.4 2 1.3 2.6 2.3s0.9 2.2 1 3.4c0.1 0.4 0.1 1 0.6 1.1 1.3 0.6 0.6-3.4 0.5-4z"/>
				<path class="st14" d="m374.1 39.1c0.8-0.1 1.6-0.3 2.5-0.4 0.2 0 0.3-0.1 0.4-0.2s0.1-0.2 0.1-0.4c0.5-2.4 0.6-4.9 0.6-7.4s0.4-5.1 0.7-7.6c0.1-0.8 0.3-1.7 0.2-2.6-0.6 0.1-1.6 0.1-2.1 0.4s-0.4 1-0.5 1.4c-0.2 1.3-0.3 2.7-0.5 4-0.3 2.7-0.6 5.4-1 8.1-0.1 1.6-0.2 3.2-0.4 4.7z"/>
				<path class="st14" d="m371.7 24.3c-0.2 0.9-0.4 1.7-0.6 2.6-0.2 1.1-0.4 2.1-0.6 3.2-0.2 1-0.2 2.1-0.3 3.1-0.1 0.6-1.6 6.5-1.6 6.4-0.8-0.2-1.7-0.5-2.5-0.7-0.1 0-0.2-0.1-0.2-0.1-0.1-0.1-0.1-0.3-0.1-0.4 0.3-3.1 0.6-6.2 0.9-9.2 0.1-1.1 0.2-2.1 0.4-3.1 0.3-2.1 0.9-4.1 1.6-6.2 0 0 0-0.1 0.1-0.1 0 0 0.1 0 0.2-0.1 0.5 0 1 0.1 1.5 0.3 0.6 0.2 1.2 0.4 1.8 0.7 0.3 0.1 0.4 0.1 0.4 0.4 0 0.4-0.2 0.8-0.3 1.2-0.4 0.6-0.6 1.3-0.7 2z"/>
				<path class="st16" d="m376.4 23.8c0.5 1.3 0.7 2.6 1 4 0.9-0.6 1.9-1.2 2.9-1.6-0.4-1.2-0.9-2.4-1.5-3.4-0.6-1.1-1.5-2.1-2.6-2.7-0.2-0.1-0.3-0.2-0.5-0.2s-1.2 0.2-1.3 0.5c-0.2 0.4 0.3 0.7 0.5 1 0.7 0.6 1.2 1.5 1.5 2.4z"/>
				<path class="st16" d="m368 21.5c0.7 0.4 1.4 0.8 2.2 1.1 0.1 0 0.2 0.1 0.3 0 0.1 0 0.1-0.1 0.2-0.2 0.3-0.4 0.6-0.7 1-1 0.9-0.7 1.8-0.9 2.8-1 0.4-0.1 0.8-0.2 0.2-0.6-0.2-0.2-0.8-0.1-1.1-0.1-2.1-0.2-4.1 0.4-5.6 1.8z"/>
			</g>
			<defs>
				<rect id="SVGID_15_" y="-38.2" x="276.5" height="95.5" width="143.2"/>
			</defs>
			<clipPath id="SVGID_16_">
				<use xlink:href="#SVGID_15_"/>
			</clipPath>
			<g class="st18">
				<path class="st19" d="m317.7 23.6c0.2-0.1 0.3-0.2 0.5-0.3 0.3-0.2 0.7-0.2 1.1-0.3 1.3-0.2 2.6-0.2 3.9-0.3h2c0.3 0 0.7 0 1 0.1 0.1 0 0.9 0.2 1 0.1-1.4 1.4-1.8 3.6-3.3 4.8-0.8 0.6-1.8 0.9-2.8 1.1-0.7 0.1-1.4 0.2-2.1 0.2-0.9-0.1-1.8-0.3-2.7-0.3-0.6 0-1.2 0.1-1.8 0.3-0.4 0.1-0.8 0.3-1.2 0.2-0.2-0.1-0.5-0.2-0.7-0.4-0.3-0.2-0.4-0.2-0.1-0.6 0.4-0.5 0.9-0.9 1.4-1.2 1.2-1 2.4-2 3.7-3.1-0.1-0.1 0-0.2 0.1-0.3z"/>
				<path class="st14" d="m320.9 22.9s-0.2 0.1-0.3 0.1c-0.6 0.5-0.9 1-1.5 1.5-0.8 0.7-1.6 1.5-2.4 2.2-0.3 0.3-0.7 0.5-1 0.8-0.4 0.3-0.7 0.7-1.1 1.1 0.9 0.2 1.7 0 2.6-0.2 0.4-0.1 0.6-0.5 0.9-0.7 0.3-0.3 0.6-0.6 1-0.9l0.6-0.6 1.9-1.9c0.3-0.3 0.6-0.7 1-1l0.3-0.3c-0.6-0.2-1.3-0.2-2-0.1z"/>
				<path class="st14" d="m316.1 24.9l-1.5 1.2h1.3c0.6 0 1.1-0.1 1.7-0.1 2.3-0.2 4.7-0.3 7.1-0.3 0.1 0 0.2-0.1 0.3-0.2l0.6-0.9c-1.6-0.3-3.3-0.2-5-0.1-1.5 0-3 0.1-4.5 0.4z"/>
				<path class="st20" d="m329.5 33c0.1 0.3 0.2 0.6 0.2 0.8v0.2 0.1c-0.3 0.5-1 1-1.5 1.5-1 1-2.4 1.9-3.3 3.1 0 0 0 0.1-0.1 0.1h-0.1-0.3c-0.3-1.3-0.5-2.5-0.9-3.7-0.4-1.4-0.9-2.8-1.3-4.1 0-0.1-0.1-0.3 0-0.4 0-0.1 0.1-0.1 0.2-0.2 0.8-0.8 1.6-1.5 2.5-2.1 0.7-0.5 1.5-0.8 2.2-1.3 0.5-0.3 0.6-0.6 0.8 0.1 0.2 0.5 0.3 1 0.4 1.5 0.3 1 0.6 1.9 0.8 2.9 0.1 0.2 0.3 0.9 0.4 1.5z"/>
				<path class="st21" d="m315.3 38.3c0 0.1 0.1 0.2 0.1 0.3s2 0 2.3 0h2.4c1.6-0.1 3.2 0 4.8 0.1-0.1-1.2-0.6-2.4-0.8-3.6-0.2-0.6-0.3-1.3-0.5-1.9-0.1-0.2-0.3-1.8-0.5-1.8-1.3-0.4-2.6-0.4-4-0.3-1 0-2 0.1-3 0.1-0.7 0-1.4 0-2.1 0.1-0.2 0-0.6 0-0.7 0.2s0.2 0.8 0.3 1c0.2 0.7 0.4 1.4 0.6 2 0.3 1.2 0.7 2.5 1.1 3.8z"/>
				<path class="st7" d="m322.5 27.4c0.3 1.6 0.6 3.2 0.9 4.7 0.1 0.3-8.9 0.3-9.7 0.3-0.1 0-0.2 0-0.3-0.1s-0.1-0.2-0.2-0.2c-0.4-1.2-0.7-2.4-1-3.7v-0.1l0.1-0.1c0.5-0.2 1.2-0.1 1.7-0.1 2.9-0.1 5.7-0.4 8.5-0.7z"/>
				<path class="st21" d="m327.2 22.9s0.2 0.7 0.2 0.8c0.1 0.4 0.2 0.7 0.2 1.1 0.1 0.5 0.2 1 0.4 1.6 0.1 0.2 0.2 0.5 0.1 0.7 0 0.1-0.2 0.3-0.3 0.4-0.6 0.8-1.4 1.6-2.1 2.4-0.4 0.5-0.9 1-1.3 1.5-0.1 0.1-1.1 1-1.1 1-0.3-1.6-0.6-3.1-1-4.7 1-0.7 1.9-1.7 2.7-2.6 0.7-0.9 1.5-1.6 2.2-2.2z"/>
				<path class="st14" d="m317.7 27.8c-0.1-0.1-0.1 0-0.3 0-0.8 0.1-1.5 0.2-2.3 0.2 0.3 0.9 0.7 1.8 1 2.8 0.2 0.8 0.6 1.6 0.9 2.4 0.3 0.9 0.6 1.8 0.9 2.8 0.2 0.5 0.3 0.9 0.5 1.4 0 0.1 0.3 1.3 0.4 1.3 0.8 0.1 1.7 0.1 2.5 0.1-0.2-1.5-0.7-3-1.1-4.5l-1.5-4.5c-0.2-0.4-0.3-0.8-0.5-1.2-0.1-0.2-0.1-0.4-0.2-0.6-0.3-0.1-0.3-0.1-0.3-0.2z"/>
				<path class="st14" d="m327.1 36.6c0.5-0.3 0.9-0.6 1.2-1 0.1-0.1 0.2-0.2 0.2-0.3v-0.3c-0.1-0.6-0.3-1.1-0.5-1.6-0.7-2.1-1.3-4.3-1.9-6.5-0.2-0.8-0.4-1.6-0.7-2.4 0 0-0.7 0.8-0.8 0.9-0.3 0.3-0.3 0.4-0.2 0.8 0.2 0.9 0.3 1.7 0.5 2.6 0.4 1.7 0.8 3.4 1.3 5.1 0.3 0.8 0.6 1.8 0.9 2.7z"/>
				<path class="st16" d="m325.5 26.8c-0.4 0.1-0.9 0.2-1.3 0.3 0.1 0.6 0.1 1.2 0.2 1.9-0.3-0.2-0.5-0.5-0.8-0.7-0.9-1-2.1-1.9-3.5-2-0.3 0-0.8-0.3-0.3-0.5 0.3-0.2 0.9-0.2 1.3-0.2 1 0 2 0.2 3 0.5 0.2 0.1 0.5 0.2 0.7 0.3 0.1 0 0.6 0.4 0.7 0.4z"/>
				<path class="st22" d="m320.9 20.5c-0.2 0.3-0.5 0.6-0.7 1-0.6 1.1-0.7 2.3-0.7 3.6 0 0.3 0 0.6 0.1 0.9 0.5-0.3 0.9-0.6 1.4-0.8-0.3-0.5-0.4-1.1-0.3-1.7s0.3-1.1 0.5-1.7c0.1-0.2 0.2-0.5 0.3-0.7 0.3-0.6 0.8-0.9 1.5-1.1-1-0.4-1.6-0.2-2.1 0.5z"/>
				<path class="st22" d="m314.6 23.9c0.2 0.3 0.5 0.5 0.8 0.6 1.2 0.8 2.7 1.3 4.1 1.4-0.2-0.6-0.4-1.3-0.7-1.8-0.7 0.3-1.5 0.4-2.2 0.1-0.6-0.3-1.1-0.8-1.5-1.5-0.3-0.5-0.5-1.1-0.3-1.7 0 0.1-0.8 0.2-0.9 0.3-0.2 0.2-0.1 0.5-0.1 0.7 0.2 0.7 0.4 1.4 0.8 1.9z"/>
				<path class="st16" d="m321.2 24.6c0.9-1.4 1.1-3.2 0.7-4.8h1.8c0.2 0.6 0.2 1.4 0 2-0.2 1.1-0.4 2.3-1.2 3.1-0.4 0.3-0.8 0.5-1.3 0.7-0.4 0.1-1.1 0.3-1.4 0.2 0.6-0.2 1-0.7 1.4-1.2z"/>
				<path class="st16" d="m316.3 20.4h0.2c0.1 0 0.2 0.1 0.3 0.2 1.3 1.5 2.2 3.4 2.7 5.3-0.1-0.3-0.4-0.6-0.5-0.8-0.2-0.3-0.3-0.6-0.5-1-0.4-0.6-0.9-1.1-1.5-1.6-0.5-0.3-1-0.6-1.5-0.8-0.3-0.1-0.6-0.1-0.8-0.2h-0.7c0.1-0.2 0.2-0.4 0.4-0.5 0.2-0.2 0.3-0.2 0.6-0.3s0.8-0.2 1.3-0.3z"/>
				<path class="st16" d="m314.1 27.3c0.3 0.1 0.5 0.2 0.8 0.3 0.1 0 0.1 0 0.1 0.1v0.1c0 0.5-0.1 1-0.1 1.5 1-0.6 1.9-1.3 2.8-1.9 0.5-0.4 1.1-0.7 1.6-1 0.3-0.1 0.9-0.5 0.5-0.9-0.2-0.2-0.9-0.1-1.2 0-1.1 0.1-2.1 0.4-3 0.9-0.5 0.2-1 0.5-1.5 0.9z"/>
						<path class="st22" d="m324.4 25.7l0.6-0.6c0.2-0.2 0.4-0.4 0.5-0.6 0 0 0-0.1-0.1-0.1-0.4 0.4-0.8 0.9-1 1.3-0.1 0-0.1 0 0 0z"/>
						<path class="st22" d="m316.8 28.1c0.3 0 0.6-0.1 1-0.1 0.1 0 0.1-0.1 0-0.1-0.3 0-0.7 0-1 0.2v0z"/>
			</g>
			<defs>
				<rect id="SVGID_17_" y="-38.2" x="276.5" height="95.5" width="143.2"/>
			</defs>
			<clipPath id="SVGID_18_">
				<use xlink:href="#SVGID_17_"/>
			</clipPath>
			<g class="st23">
				<path class="st19" d="m334.4 25.5c0.2 0.4 0.2 0.9 0 1.3-0.1 0.4-0.4 0.8-0.6 1.1-0.5 0.6-1 1.2-1.6 1.8-0.1 0.1-0.2 0.2-0.4 0.2-0.2 0.1-0.5-0.1-0.7 0 0.2-0.5 0.6-0.8 1-1.1 0.7-0.8 0.9-2.1 0.6-3.2 0-0.1-0.1-0.2 0-0.3 0-0.1 0.1-0.1 0.2-0.1 0.5-0.2 1.1-0.6 1.5 0.3z"/>
				<path class="st19" d="m324.2 26.4c0 0.3 0 0.6 0.1 0.9 0.3 1.1 1 2.2 1.9 2.8 0.3 0.3 0.7 0.5 1.1 0.6s0.8 0 1.2-0.3c-1.3-0.3-2.4-1.6-2.7-3.1-0.1-0.5-0.1-1 0.2-1.3 0.1-0.1-1-0.3-1.1-0.3-0.5 0.1-0.7 0.3-0.7 0.7z"/>
				<path class="st24" d="m328.8 38.2c0.4 0.6 0.8 0.5 1.5 0.4 0.9-0.2 1.9-0.3 2.8-0.5 0.5-0.1 1.1-0.1 1.6-0.3 0.9-0.3 0.7-0.8 0.5-1.7-0.4-2-0.7-4-1.1-6.1 0 0.2-6.8 1.2-7.3 1.5 0.4 2.1 0.9 4.6 1.9 6.6 0 0 0.1 0 0.1 0.1z"/>
				<path class="st25" d="m326.8 35c2.8-0.7 5.7-1.5 8.5-2.2-0.2-1.2-0.4-2.5-0.7-3.7-0.1-0.6-7.9 1.1-8.7 1.4-0.1 0-0.2 0.1-0.2 0.2v0.3c0.1 0.2 1.1 4 1.1 4z"/>
				<path class="st7" d="m330.8 38.1c0 0.1 0.1 0.2 0.2 0.3s0.2 0.1 0.4 0.1c0.6 0 1.3-0.2 1.9-0.5-0.6-1.7-0.8-3.7-1.2-5.4-0.1-0.3-0.7-3.6-0.8-3.6-1 0.2-1.9 0.2-2.8 0.5 0.1 0 2.1 8 2.3 8.6z"/>
				<path class="st7" d="m330.9 25.6c0.2-0.4 0.5-0.8 0.9-0.9 0.2-0.1 0.5 0 0.7 0.1 0.5 0.1 0.9 0.2 1.4 0.3-1.7 0.7-2.9 2.7-2.8 4.7-0.2 0.1-0.5 0.2-0.7 0.3-0.5 0.2-0.2-1.9-0.1-2.2 0-0.8 0.3-1.6 0.6-2.3z"/>
				<path class="st7" d="m326.4 25.3c0.2 0 0.3-0.1 0.5 0 0.4 0 0.8 0.3 1.1 0.6 1 1.1 1.5 2.7 2 4.2-0.2 0.1-0.5 0.2-0.7 0.2h-0.2c-0.1 0-0.2-0.2-0.2-0.2-0.9-1.9-2.5-3.5-4.3-4.2 0.2-0.5 1.2-0.5 1.8-0.6z"/>
				<path class="st19" d="m330.5 29.7c1.1 0.7 2 1.9 2.4 3.2 0.3-0.2 0.6-0.5 0.8-0.9 0-0.1 0.1-0.1 0.1-0.2s0-0.1-0.1-0.2c-0.7-1.3-1.8-2.3-3.1-2.8-0.3-0.1-0.6-0.2-0.9-0.1-0.3 0-0.6 0.2-0.6 0.5 0.4 0.2 0.9 0.2 1.4 0.5z"/>
			</g>
			<defs>
				<rect id="SVGID_19_" y="-38.2" x="276.5" height="95.5" width="143.2"/>
			</defs>
			<clipPath id="SVGID_20_">
				<use xlink:href="#SVGID_19_"/>
			</clipPath>
			<g class="st26">
				<path class="st17" d="m334.8 37.9c0.1 0.6 0.2 1.2 0.3 1.7 0 0.3 0.1 0.6 0.3 0.7 0.1 0.1 0.3 0.1 0.5 0.1 1.1 0 2 0.1 3-0.3 1.6-0.5 3.3-0.3 5-0.4 2.4-0.1 5-0.8 7.4-0.5 3 0.5 5.9 0.8 8.9 1 0.5 0 1 0 1.3-0.5 0.1-0.2 0.2-0.5 0.2-0.8 0.4-2.7 0.7-5.4 0.9-8.1 0.1-1.4 0.2-2.7 0.3-4.1 0-0.6 0.2-1.6 0.1-2.2-0.2-0.9 0.1-0.5-0.5-0.9-0.7-0.6-2.2-0.5-3-0.6-1-0.1-2-0.2-3.1-0.2-1.9-0.1-3.8-0.1-5.7-0.2-3.7-0.2-7.5-0.7-11.2-0.5-1.4 0.1-3.9 0-5.1 1.1-1.1 1-0.5 3.6-0.4 5.1 0 3.4 0.3 6.5 0.8 9.6z"/>
							<path class="st27" d="m337.6 32.5c0 0.5 0.1 1.1 0.1 1.6 0.1 0.6 0.1 1.2 0.2 1.7 0 0.1 0.1 0.1 0.1 0 0-0.5-0.1-1-0.2-1.5 0-0.5-0.1-1.1-0.2-1.8 0.1 0 0 0 0 0z"/>
								<path class="st27" d="m362.9 26.2c-0.4 2.9-0.6 5.9-0.9 8.8 0 0.1 0.1 0.1 0.2 0 0.3-2.9 0.6-5.8 0.9-8.8-0.1 0-0.2-0.1-0.2 0z"/>
									<path class="st27" d="m334.9 29.1c3.5-0.2 7-0.4 10.5-0.5s7-0.1 10.5-0.3c2-0.1 4-0.2 5.9-0.4 0.1 0 0.1-0.2 0-0.2-7 0.7-14 0.6-21 0.9-2 0.1-4 0.2-5.9 0.4v0.1z"/>
									<path class="st27" d="m334.8 32.5c3.4 0.1 6.8 0.1 10.2 0 3.4 0 6.8-0.1 10.2-0.2 1.9-0.1 3.9-0.1 5.8-0.2 0.1 0 0.1-0.2 0-0.2-6.8 0.2-13.6 0.4-20.4 0.4-2 0.1-3.9 0.1-5.8 0.2-0.1-0.1-0.1 0 0 0z"/>
									<path class="st27" d="m335.9 36.5c3.3 0 6.6-0.3 9.9-0.6 3.3-0.2 6.6-0.5 9.9-0.6 1.9-0.1 3.8-0.1 5.6-0.1 0.1 0 0.1-0.2 0-0.2-3.3-0.1-6.6 0.1-9.9 0.3s-6.6 0.5-9.9 0.7c-1.9 0.1-3.8 0.2-5.6 0.3-0.1 0-0.1 0.2 0 0.2z"/>
									<path class="st27" d="m337.1 26.5c0 0.6 0 1.4 0.1 2 0 0.1 0.1 0 0.1 0 0-0.6-0.1-1.3-0.2-2 0.1-0.1 0-0.1 0 0z"/>
									<path class="st27" d="m342.1 28.6c0.1 1.2-0.1 2.5 0.1 3.6 0 0.1 0.1 0.1 0.1 0 0-0.6-0.1-1.2-0.1-1.8s0-1.2-0.1-1.8c0.1-0.1 0-0.1 0 0z"/>
									<path class="st27" d="m346.1 26.1c0 0.8 0 1.6 0.1 2.4 0 0.1 0.1 0.1 0.1 0 0-0.8-0.1-1.6-0.2-2.4 0.1-0.1 0-0.1 0 0z"/>
									<path class="st27" d="m350.5 28.5v1.8c0 0.6-0.1 1.2 0 1.8 0 0.1 0.1 0.1 0.1 0 0.1-0.6 0-1.1 0-1.7 0-0.7 0-1.3-0.1-1.9 0.1-0.1 0-0.1 0 0z"/>
									<path class="st27" d="m358.7 28.3c0.2 1.3-0.1 2.6 0 3.9 0 0.1 0.1 0.1 0.1 0 0.1-0.7 0-1.4 0-2.1 0-0.6 0.1-1.3-0.1-1.8v0z"/>
									<path class="st27" d="m346.5 32.5c0 0.5 0.1 1 0.1 1.5s0 0.9 0.1 1.4c0 0.1 0.1 0.1 0.1 0 0.1-0.5 0-1 0-1.5-0.1-0.5-0.1-0.9-0.3-1.4 0.1-0.1 0-0.1 0 0z"/>
									<path class="st27" d="m354.6 32.2c0.1 1 0 2 0.1 2.9 0 0.1 0.1 0.1 0.1 0 0.1-0.9 0-1.9-0.2-2.9 0.1-0.1 0-0.1 0 0z"/>
									<path class="st27" d="m342.4 36c0 0.6 0 1.3 0.2 1.8 0 0.1 0.1 0.1 0.1 0 0-0.3-0.1-0.6-0.1-0.9s0-0.6-0.2-0.9c0.1-0.1 0-0.1 0 0z"/>
				<path class="st27" d="m337 25c0.2 0.1 0.3 0.3 0.5 0.4 0.8 0.5 1.8 0.1 2.7-0.1 1.2-0.4 2.5-0.6 3.8-0.4 1.2 0.1 2.3 0.6 3.5 0.6 0.8 0 1.7-0.1 2.5-0.1 1 0.1 1.9 0.5 2.9 0.7 0.3 0.1 0.7 0.2 1.1 0.1s0.8-0.3 1.2-0.5c1.7-0.9 3.7-1.3 5.6-1 0.4 0.1 0.8 0.1 1.2 0.1s0.8-0.2 0.9-0.6c0.2-0.5-0.1-1-0.5-1.3-0.3-0.2-0.7-0.2-1.1-0.4-0.3-0.1-0.5-0.3-0.8-0.4-0.9-0.3-1.9-0.5-2.9-0.4-1.5 0.1-2.8 0.9-4.1 1.4-0.8 0.2-1.6 0.4-2.4 0.4s-1.6-0.3-2.5-0.4c-2.3-0.3-4.7-0.3-7.1-0.2-1.4 0-2.8 0.1-4.2 0.3-1.2 0.2-2.8 0.2-3.8 0.9 0.8 0.2 1.7 0.4 2.5 0.6 0.3 0.1 0.6 0.2 0.9 0.3h0.1z"/>
					<path class="st28" d="m332.7 20.2c-0.1 0.6 0.2 1.1 0.2 1.7 0 0.7-0.3 1.4 0.1 1.9 0.3 0.3 0.8 0.6 1.3 0.5 0.5 0 0.9-0.2 1.3-0.4 2-0.6 4.3 0.1 6.5-0.1 1.3-0.1 2.5-0.5 3.7-0.4 0.8 0.1 1.6 0.4 2.5 0.4 0.8 0 1.7-0.3 2.5-0.2 1.1 0.1 1.9 0.8 3 0.8s1.9-0.8 2.8-1.3c1-0.5 2.4-0.7 3.6-0.5 0.5 0.1 0.9 0.3 1.4 0.3 0.5 0.1 1.1 0 1.4-0.3 0.6-0.5 0.2-1.2 0.5-1.8 0.1-0.2 0.3-0.5 0.5-0.7 0.3-0.7-0.4-1.5-1.4-1.8s-2-0.1-3 0c-1 0.2-2 0.4-3 0.2-0.6-0.1-1.1-0.3-1.7-0.3-0.7 0-1.4 0.3-2.1 0.5-2 0.5-4.2 0-6.3 0.2-0.7 0-1.3 0.2-2 0.1-0.7 0-1.4-0.2-2-0.3-1-0.1-2 0.2-3 0.2-0.8 0-1.7-0.2-2.5-0.2-0.5 0-1.1 0.2-1.6 0.3-0.7 0.1-1.3-0.3-1.9-0.1-0.4 0.4-0.8 0.8-0.8 1.3z"/>
					<path class="st14" d="m334.4 21.6c0.3 0.4 0.9 0.8 1.6 0.7s1.4-0.6 2.1-0.5c0.5 0.1 0.8 0.5 1.2 0.6 0.4 0.2 0.8 0.2 1.2 0.1 0.2-0.1 0.3-0.1 0.5-0.2 0.2 0 0.4 0 0.5 0.2s-0.1 0.3-0.3 0.3c-0.1 0-0.2-0.1-0.3-0.1-0.4-0.1-0.8 0.2-1.2 0.2s-0.8-0.2-1.1-0.5c-0.3-0.2-0.8-0.5-1.2-0.4-0.3 0.1-0.5 0.4-0.8 0.5-0.5 0.2-1.2-0.2-1.8-0.1-0.3 0.2-0.1 0.6-0.4 0.8-0.2 0.1-0.4 0-0.6-0.1s-0.2-0.3-0.2-0.4c0-0.4 0.1-0.7 0.2-1.1v-0.5c0-0.1-0.1-1.2 0.3-0.9 0.1 0.1 0 0.5 0.1 0.6 0 0.4 0.1 0.6 0.2 0.8z"/>
					<path class="st14" d="m350.9 22.9c0.3 0 0.6-0.1 0.9 0 0.2 0.1 0.3 0.2 0.5 0.3 0.4 0.2 0.9 0.3 1.4 0.3 0.1 0 0.3 0 0.3-0.1 0.1-0.2-0.1-0.3-0.3-0.4s-0.5 0-0.7 0c-0.4-0.1-0.7-0.4-1.1-0.6-0.5-0.1-1 0.1-1.4 0.2-0.6 0.2-1.3 0-1.9 0.1-0.2 0.7 1.9 0.3 2.3 0.2z"/>
					<path class="st14" d="m362.3 20.8c-0.1 0-0.2 0-0.3 0.1s-0.2 0.2-0.2 0.3c-0.1 0.2-0.1 0.4-0.2 0.5-0.1 0.2-0.3 0.3-0.6 0.3h-0.3c-0.1 0-0.2 0.1-0.1 0.2 0.2 0.1 0.5 0.1 0.7 0.1s0.5-0.1 0.6-0.3c0.1-0.1 0.1-0.3 0.1-0.5s0.1-0.3 0.3-0.4c0.1-0.1 0.3-0.1 0.4-0.1 0.2-0.1 0.4-0.2 0.5-0.4s0.2-0.6-0.1-0.7c0 0.4-0.2 0.8-0.8 0.9z"/>
					<path class="st14" d="m345.8 21.5c0.2 0.2 0.3 0.4 0.7 0.4 0.2 0 0.4 0 0.5-0.1 0-0.1 0-0.1 0.1-0.2v-0.1c0-0.1-0.2-0.1-0.2-0.1s-0.2 0.1-0.3 0.1c-0.5 0-0.8-0.5-1-0.8-0.1-0.1-0.2-0.2-0.3-0.2-0.2-0.1-0.4 0-0.5-0.1-0.2-0.1-0.1-0.4-0.3-0.5 0 0.2 0 0.5 0.2 0.6 0.1 0.1 0.2 0.1 0.3 0.1 0.5 0.2 0.6 0.6 0.8 0.9z"/>
					<path class="st28" d="m331.4 37.5h0.2c1-0.1 1.9 0.4 2.8 0.6 0.8 0.2 1.6 0.1 2.4-0.1 1.7-0.5 3.3-1.8 5-1.4 0.9 0.2 1.7 0.7 2.6 0.7 0.9-0.1 1.8-0.9 2.7-0.8 1.3 0.1 2.2 1.8 2.7 3.5-1.2 0.9-2.5 0.9-3.8 0.9-1.7 0-3.4-0.1-5.1-0.1h-3.8c-0.8 0-1.7 0.1-2.5 0.2-0.9 0.1-1.9 0.2-2.8 0.3l-1.5 0.3c-0.2 0-1.6-0.1-1.6-0.1 0.4-0.7 0.7-1.5 1.1-2.3 0.2-0.7 0.8-1.6 1.6-1.7z"/>
					<path class="st14" d="m330.4 39.8c0 0.2 0 0.4 0.2 0.6 0.3 0.2 0.7-0.2 1.1-0.1 0.1 0 0.2 0.1 0.2 0.2 0.3 0.2 0.6 0.4 1 0.3 0.1 0 0.2-0.1 0.4-0.1s0.2 0.2 0.3 0.3c0.2 0.4 0.4 0.8 0.5 1.3 0 0.1 0 0.3-0.1 0.4s-0.3 0.1-0.4 0-0.2-0.2-0.3-0.4-0.2-0.3-0.2-0.5c0-0.1-0.1-0.2-0.1-0.2-0.2-0.1-0.4 0-0.6-0.1-0.3-0.1-0.4-0.4-0.7-0.5-0.2-0.1-0.3 0-0.5 0s-0.3 0.1-0.5 0.1-0.3-0.1-0.4-0.2l-0.1-0.1c-0.1 0-0.1 0-0.2 0.1l-0.2 0.2c-0.1 0-0.2 0.1-0.2 0-0.2-0.1 0-0.7 0.1-0.8 0.1-0.2 0.3-0.4 0.4-0.6 0.1-0.1 0.1-0.3 0.2-0.4s0.2-0.3 0.4-0.3h0.2c0.2-0.1 0.4-0.5 0.6-0.5-0.5 0.3-1 0.6-1.1 1.3z"/>
					<path class="st14" d="m338.6 39.8c0 0.1 0.1 0.2 0.2 0.3s0.2 0.2 0.3 0.1c0.1 0 0.2-0.1 0.3-0.1 0.2-0.1 0.5 0.1 0.6 0.3l0.3 0.6c0.1 0.2 0.3 0.4 0.6 0.4 0.2 0 0.4-0.1 0.6-0.1 0.3 0 0.6 0.4 0.9 0.4 0.3 0.1 0.7-0.2 0.8-0.6 0.1-0.3 0-0.7-0.1-1-0.1-0.1-0.2-0.3-0.3-0.2-0.1 0-0.1 0.2-0.1 0.3v0.6c0 0.1 0 0.2-0.1 0.3s-0.3 0.1-0.5 0-0.2-0.2-0.4-0.3c-0.1-0.1-0.3-0.2-0.5-0.1-0.1 0-0.1 0.1-0.2 0.1-0.2 0.1-0.5 0-0.6-0.2-0.2-0.2-0.2-0.4-0.4-0.6-0.1-0.2-0.4-0.4-0.6-0.3-0.2 0-0.3 0.2-0.5 0.2-0.1 0-0.1-0.1-0.2-0.1-0.1-0.1-0.2-0.3-0.3-0.4 0.2 0.2 0.2 0.3 0.2 0.4z"/>
					<path class="st14" d="m349.3 40.6c0.1 0.1 0.2 0.2 0.3 0.2s0.2-0.1 0.3-0.1h0.4c0.2 0 0.4 0.2 0.5 0.2 0.2 0.1 0.4 0.2 0.6 0.1 0.1 0 0.2-0.1 0.3-0.2 0-0.1-0.1-0.2-0.2-0.3s-0.2-0.1-0.4-0.1c-0.2-0.1-0.4-0.3-0.6-0.4h-0.1v0.1c0.1 0.1 0.2 0.2 0.2 0.3-0.1 0-0.2 0-0.3-0.1s-0.2 0-0.4 0c-0.1 0-0.2 0.1-0.2 0.1-0.1 0-0.2 0-0.2-0.1-0.2-0.1-0.4-0.3-0.5-0.5 0 0-0.2-0.3-0.3-0.2-0.1 0 0 0.2 0.1 0.2 0.1 0.4 0.3 0.6 0.5 0.8z"/>
			</g>
			<defs>
				<rect id="SVGID_21_" y="-38.2" x="276.5" height="95.5" width="143.2"/>
			</defs>
			<clipPath id="SVGID_22_">
				<use xlink:href="#SVGID_21_"/>
			</clipPath>
			<g class="st29">
				<path class="st7" d="m354.9 37.1c0.5-1.9 1.7-3.5 3.4-4.5 0.9-0.5 1.8-0.9 2.6-1.5 0.7-0.5 1.3-1.2 2.1-1.3 0.6 0 1.2 0.3 1.6 0.7s0.8 0.9 1.2 1.3c0.9 1 2.1 1.6 3.2 2.2 2.6 1.5 5.2 3.4 6.6 6.1 0.3 0.6 0.5 1.1 0.6 1.8 0.2 1.4-0.5 2.7-1.5 3.6-1.1 0.9-2.4 1.3-3.8 1.2-2.1 0-4.2-1-6.3-1.1-2.1 0-4.3 0.9-6.2 0-3.1-1.2-4.3-5.5-3.5-8.5z"/>
				<path class="st13" d="m362.7 32.2c0.6 0.2 1.3 0.4 1.9 0.5s1.4 0 1.9-0.2c0.1-0.1 0-0.3-0.2-0.4s-0.3 0-0.5 0c-0.8 0.2-2-0.1-2.8-0.4-0.7-0.3-1.3-0.9-2-1-0.3 0-0.5 0.2-0.4 0.5 0.1 0.2 0.4 0.4 0.6 0.5 0.6 0.1 1 0.3 1.5 0.5z"/>
				<path class="st30" d="m364.4 32.1c1 0.6 2.1 1 3.2 1 0.2 0 0.6 0.1 0.6 0.3s-0.2 0.3-0.4 0.3c-1 0.2-2 0-2.8-0.4-1.2-0.6-2.3-1.5-3.2-2.5-0.1-0.1-0.2-0.2-0.2-0.3v-0.3c0.1-0.1 0.2-0.1 0.3-0.1s0.2 0.1 0.3 0.2c0.8 0.5 1.3 1.3 2.2 1.8z"/>
				<path class="st7" d="m365.9 28.1c0.1-0.2 0.2-0.4 0.2-0.6-0.1-0.2-0.3-0.3-0.6-0.3-0.2 0-0.5 0.1-0.7 0-0.5-0.2-0.6-0.7-0.8-1.1-0.4-0.5-1.2-0.6-1.8-0.3-0.2 0.1-0.4 0.3-0.4 0.5-0.1 0.2 0.1 0.5-0.1 0.7-0.1 0.2-0.3 0.2-0.5 0.3s-0.4 0.2-0.3 0.4c0 0.1 0.1 0.2 0.2 0.3 0.7 0.6 1.2 1.3 1.6 2 0.1 0.3 0.3 0.5 0.4 0.8 0.2 0.3 0.6 0.5 1 0.6 0.6 0.1 0.5-0.3 0.6-0.8 0.3-0.9 0.7-1.8 1.2-2.5z"/>
					<path class="st31" d="m360.2 39.4c-0.5 0.8-0.2 1.9 0.2 2.7 0.2 0.5 0.5 1 0.8 1.5 0.2 0.3 0.5 0.7 1 0.7 0 0 0.1-0.1 0-0.1-0.4-0.1-0.7-0.5-0.9-0.8-0.3-0.4-0.5-0.8-0.7-1.3-0.4-0.8-0.8-1.9-0.4-2.7 0.1 0 0-0.1 0 0z"/>
					<path class="st31" d="m361 42c0.2 0.9 0.9 1.9 1.9 2.1 0 0 0.1 0 0-0.1-0.4-0.2-0.8-0.4-1.1-0.8-0.3-0.3-0.6-0.7-0.8-1.2 0.1 0 0 0 0 0z"/>
					<path class="st31" d="m364.4 41.8c0.1 1.1 0.4 2.1 1.1 2.9 0.5 0.6 1.3 1.5 2.2 1.4 0.1 0 0-0.1 0-0.1-1-0.1-1.7-0.7-2.2-1.5-0.6-0.8-0.9-1.8-1.1-2.7 0.1-0.1 0 0 0 0z"/>
					<path class="st31" d="m365.9 44.1c0.2 0.6 0.6 1 1.1 1.4 0.4 0.3 1.1 0.6 1.6 0.6 0 0 0.1-0.1 0-0.1-0.6-0.2-1.1-0.3-1.5-0.6-0.5-0.3-0.9-0.7-1.2-1.3 0.1 0 0 0 0 0z"/>
					<path class="st31" d="m361.7 26.9c0.4 0.5 0.6 1 0.8 1.5 0.2 0.6 0.3 1.1 0.4 1.7 0 0.1 0.1 0.1 0.1 0-0.1-1.1-0.5-2.4-1.3-3.2v0z"/>
					<path class="st31" d="m364.3 26.9c0.1 0.6 0 1.3 0 1.9s-0.1 1.2-0.1 1.8c0 0.1 0.1 0 0.1 0 0.1-0.6 0.1-1.3 0.1-1.9 0-0.7 0.1-1.3-0.1-1.8 0.1-0.1 0-0.1 0 0z"/>
					<path class="st31" d="m363.2 29.4c0.1 0.6 0.3 1.1 0.4 1.6 0 0.1 0.1 0.1 0.1 0v-0.4h-0.1v0.3h0.1c-0.2-0.5-0.3-1-0.5-1.5 0-0.1-0.1-0.1 0 0z"/>
					<path class="st31" d="m363.9 30.6s0 0.1 0.1 0.1v0.1c0 0.1 0.1 0.1 0.1 0 0 0 0-0.1-0.1-0.1 0 0-0.1 0-0.1-0.1z"/>
					<path class="st31" d="m364.4 30.9c0-0.2 0.1-0.4 0.1-0.6s0.1-0.3 0.1-0.5c-0.1 0.1-0.1 0.3-0.2 0.5v0.6c-0.1 0.1 0 0.1 0 0z"/>
					<path class="st31" d="m363.5 29.8v0.2s0 0.2 0.1 0.2v-0.2s0-0.1-0.1-0.2c0.1 0 0 0 0 0z"/>
					<path class="st31" d="m362.5 29.9c0.1 0.3 0.3 0.6 0.4 0.8h0.1c-0.1-0.2-0.2-0.3-0.2-0.5h-0.1c-0.1 0-0.2-0.1-0.2-0.2h-0.1c0 0.2 0.2 0.4 0.3 0.2h-0.1c0.1 0.2 0.1 0.3 0.2 0.5 0 0.1 0.1 0 0.1 0-0.1-0.3-0.2-0.6-0.4-0.8v0z"/>
			</g>
			<path class="st19" d="m348.3 22.4c-0.3 0-0.7 0.1-0.9 0.4-0.6 0.6-0.3 2.1 0.7 2.1 0.2 0 0.4-0.1 0.6-0.2s0.4-0.2 0.6-0.4c0.3-0.3 0.2-0.6 0.2-0.9-0.2-0.6-0.6-1-1.2-1z"/>
			<path class="st32" d="m350 23.2c0.3-0.1 0.5-0.1 0.8-0.1 0.6 0 1.2 0.2 1.8 0.5-0.3 0.1-0.5 0.1-0.8 0.2 0.9 0.3 1.7 0.8 2.5 1.3-0.3 0.1-0.7 0.1-1 0.2 0.6 0.4 1 1 1.4 1.5 0.3 0.5 0.6 0.9 1 1.4-0.9-0.2-1.9-0.4-2.8-0.6 0.2 0.2 0.4 0.5 0.5 0.8-1.1-0.1-2.2-0.7-2.9-1.6 0.1 0.3 0.2 0.7 0.3 1-1.1-0.4-1.8-1.6-1.9-2.8 0-0.9 0.4-1.6 1.1-1.8z"/>
			<path class="st32" d="m348.3 25c0 0.2-0.1 0.5-0.2 0.7-0.2 0.5-0.6 0.9-1 1.2 0-0.2 0.1-0.4 0.1-0.7-0.6 0.6-1.2 1.1-1.9 1.5 0.1-0.3 0.2-0.6 0.2-0.8-0.5 0.3-1.1 0.5-1.7 0.6-0.5 0.1-0.9 0.2-1.4 0.3 0.4-0.7 0.9-1.3 1.4-1.9-0.2 0.1-0.5 0.1-0.8 0.1 0.5-0.9 1.3-1.5 2.3-1.7-0.3 0-0.6-0.1-0.9-0.1 0.7-0.7 1.9-0.9 2.8-0.6 0.7 0.2 1.1 0.7 1.1 1.4z"/>
					<path class="st16" d="m349.7 24.5c1.1 0.1 2 0.6 2.9 1.2l1.2 0.9c0.4 0.3 0.7 0.7 1.1 1 0 0 0.1 0 0.1-0.1-0.3-0.4-0.7-0.7-1.1-1-0.4-0.4-0.9-0.7-1.3-1-0.9-0.6-1.8-0.9-2.8-1.1-0.2 0-0.2 0.1-0.1 0.1z"/>
					<path class="st16" d="m351.9 25.2c0.1 0.5 0.3 1.1 0.4 1.5 0.1 0.3 0.2 0.7 0.6 0.9 0 0 0.1 0 0.1-0.1-0.2-0.3-0.4-0.6-0.5-1.1-0.2-0.3-0.3-0.8-0.6-1.2 0.1-0.1 0-0.1 0 0z"/>
					<path class="st16" d="m352.5 25.6c0.2 0 0.3 0.1 0.5 0.1s0.3 0.1 0.4 0v-0.1c-0.1-0.1-0.3-0.1-0.4-0.1-0.2 0-0.3 0-0.5-0.1v0.2z"/>
					<path class="st16" d="m350.3 24.6c0 0.3 0.1 0.6 0.2 0.8s0.2 0.5 0.4 0.7h0.1c-0.1-0.3-0.2-0.5-0.3-0.8-0.2-0.2-0.2-0.5-0.4-0.7 0.1-0.1 0-0.1 0 0z"/>
					<path class="st16" d="m351 24.7c0.3-0.1 0.6-0.2 0.9-0.2h0.8v-0.1c-0.5-0.1-1.2 0-1.7 0.3-0.1 0-0.1 0.1 0 0z"/>
					<path class="st16" d="m343.3 27.3c0.6-0.6 1.3-1.1 1.9-1.5 0.3-0.2 0.6-0.4 1-0.6s0.8-0.4 1.1-0.6v-0.1c-0.7 0.2-1.5 0.7-2.1 1.2-0.7 0.4-1.3 0.9-1.9 1.6-0.1-0.1 0 0 0 0z"/>
					<path class="st16" d="m344.8 26.8c0.1-0.2 0.2-0.5 0.3-0.7s0.3-0.3 0.4-0.5c0 0 0-0.1-0.1 0-0.4 0.2-0.6 0.8-0.6 1.2-0.1 0.1-0.1 0.1 0 0z"/>
					<path class="st16" d="m343.9 25.6c0.3-0.1 0.7-0.2 1-0.2 0.3-0.1 0.7-0.1 1-0.1 0.1 0 0.1-0.1 0-0.1-0.6-0.1-1.3 0.1-2 0.4v0z"/>
					<path class="st16" d="m346.1 26.6c0.1-0.3 0.2-0.7 0.3-1 0.2-0.3 0.4-0.5 0.5-0.8 0 0 0-0.1-0.1-0.1-0.4 0.5-0.7 1.3-0.7 1.9-0.1 0.1 0 0.1 0 0z"/>
					<path class="st16" d="m345.7 24.4h1.1c0.3 0 0.6 0.1 1 0.1 0.1 0 0.1-0.1 0-0.1-0.6-0.2-1.4-0.2-2.1-0.2-0.1 0.1-0.1 0.2 0 0.2z"/>
			<path class="st7" d="m348.7 24c-0.4 0-0.8 0.2-1 0.6-0.2 0.3-0.3 0.8-0.1 1.1 0.1 0.3 0.4 0.5 0.7 0.6 0.2 0.1 0.5 0.2 0.7 0.2 0.1 0 0.2-0.1 0.4-0.1 0.3-0.2 0.6-0.4 0.8-0.8 0.3-1-0.6-1.6-1.5-1.6z"/>
</g>
</svg>
