<?xml version="1.0" encoding="UTF-8" standalone="no"?>
<!-- Generator: Adobe Illustrator 24.0.0, SVG Export Plug-In . SVG Version: 6.00 Build 0)  -->
<svg id="圖層_1" style="enable-background:new 0 0 1366 768" xmlns="http://www.w3.org/2000/svg" xml:space="preserve" viewBox="0 0 1366 768" version="1.1" y="0px" x="0px" xmlns:xlink="http://www.w3.org/1999/xlink">
<style type="text/css">
	.st0{fill:#0F604F;}
	.st1{fill:none;}
	.st2{fill:#22B290;}
</style>
			<path class="st0" d="m91.6 547.8c14.3 2.6 28.6 5.1 42.8 7.7-10.9-19.7-21.9-39.4-32.7-59.1 9.6 2.4 19.2 4.5 29 6.1-13-18.1-26.1-36.2-39.1-54.2 10.9 3.8 22.3 6.5 33.7 7.9-3.1-0.4-10.3-10.8-12.5-13.2-4.2-4.7-8.4-9.3-12.4-14.1-8.2-9.7-16.1-19.6-23.5-29.9-1.9-2.6-7.7-14-10.8-14.4-3.6-0.5-6.8 8.3-8.1 10.8-6.5 11.4-13.3 22.7-20.3 34-7.9 12.6-16.1 24.9-24.6 37.1 8.3-3.4 16.4-7.2 24.3-11.2-4.8 8.9-9.6 17.7-14.4 26.5-1.8 3.2-12.5 28-15.3 28.1 6.7-0.3 12.9-3 19-5.6 4.4-2 8.7-4 13-6.2-5.7 10.4-11.5 20.7-17.4 30.9-6.1 10.7-12.3 21.4-18.5 32 13.4 2 26.9-1.9 39.5-7.5-4.6 32.1-10 64.1-16.3 95.9-0.2 1-0.4 2.3 0 3.3 0.3 0.9 1 1.5 1.8 2.1 5.6 4.3 13.3 4.1 20.4 3.7 20.7-1.1 41.6-2.3 62.3-3.4-4.9-26.6-9.8-53.4-14.8-80-1.6-9.4-3.2-18.3-5.1-27.3z"/>
			<path class="st0" d="m753.7 771.7c11.9 2.1 23.9 4.3 35.8 6.4-9.1-16.5-18.3-32.9-27.4-49.4 8 2 16.1 3.7 24.3 5-10.9-15.1-21.8-30.3-32.7-45.4 9.1 3.1 18.6 5.4 28.2 6.7-2.7-0.4-8.6-9-10.5-11.1-3.5-3.9-6.9-7.8-10.4-11.8-6.9-8.1-13.4-16.5-19.7-25-1.5-2.1-6.5-11.7-8.9-12-3-0.4-5.6 6.9-6.8 8.9-5.4 9.6-11.1 19-16.9 28.4-6.6 10.5-13.5 20.8-20.6 31 6.9-2.9 13.6-6 20.3-9.4-4 7.4-8 14.8-12.1 22.2-1.5 2.8-10.4 23.4-12.8 23.5 5.6-0.3 10.8-2.5 15.9-4.8 3.6-1.6 7.2-3.3 10.8-5.1-4.8 8.7-9.6 17.2-14.6 25.9-5.1 8.9-10.3 17.9-15.4 26.7 11.2 1.6 22.6-1.6 33-6.3-3.8 26.8-8.4 53.6-13.6 80.2-0.2 1-0.4 1.9 0 2.8 0.3 0.8 0.9 1.2 1.5 1.7 4.7 3.6 11.1 3.4 17 3.1 17.3-1 34.7-1.9 52.1-2.9l-12.3-66.9c-1.3-7.4-2.6-14.9-4.2-22.4z"/>
			<path class="st0" d="m583.6 805.6c14.3 2.6 28.6 5.1 42.8 7.7-10.9-19.7-21.9-39.4-32.7-59.1 9.6 2.4 19.2 4.5 29 6.1-13-18.1-26.1-36.2-39.1-54.2 10.9 3.8 22.3 6.5 33.7 7.9-3.1-0.4-10.3-10.8-12.5-13.2-4.2-4.7-8.4-9.3-12.4-14.1-8.2-9.7-16.1-19.6-23.5-29.9-1.9-2.6-7.7-14-10.8-14.4-3.6-0.5-6.8 8.3-8.1 10.8-6.5 11.4-13.3 22.7-20.3 34-7.9 12.6-16.1 24.9-24.6 37.1 8.3-3.4 16.4-7.2 24.3-11.2-4.8 8.9-9.6 17.7-14.4 26.5-1.8 3.2-12.5 28-15.3 28.1 6.7-0.3 12.9-3 19-5.6 4.4-2 8.8-4 13-6.2-5.7 10.4-11.5 20.7-17.4 30.9-6.1 10.7-12.3 21.4-18.5 32 13.4 2 26.9-1.9 39.5-7.5-4.6 32.1-10 64.1-16.3 95.9-0.2 1-0.4 2.3 0 3.3 0.3 0.9 1 1.5 1.8 2.1 5.6 4.3 13.3 4.1 20.4 3.7 20.7-1.1 41.6-2.3 62.3-3.4-4.9-26.6-9.8-53.4-14.8-80-1.7-9.3-3.3-18.3-5.1-27.3z"/>
			<path class="st0" d="m834.7 762.9c14.3 2.6 28.6 5.1 42.8 7.7-10.9-19.7-21.9-39.4-32.7-59.1 9.6 2.4 19.2 4.5 29 6.1-13-18.1-26.1-36.2-39.1-54.2 10.9 3.8 22.3 6.5 33.7 7.9-3.1-0.4-10.3-10.8-12.5-13.2-4.2-4.7-8.4-9.3-12.4-14.1-8.2-9.7-16.1-19.6-23.5-29.9-1.9-2.6-7.7-14-10.8-14.4-3.6-0.4-6.8 8.3-8.1 10.8-6.5 11.4-13.3 22.7-20.3 34-7.9 12.6-16.1 24.9-24.6 37.1 8.3-3.4 16.4-7.2 24.3-11.2-4.8 8.9-9.6 17.7-14.4 26.5-1.8 3.2-12.5 28-15.3 28.1 6.7-0.3 12.9-3 19-5.6 4.4-2 8.7-4 13-6.2-5.7 10.4-11.5 20.7-17.4 30.9-6.1 10.7-12.3 21.4-18.5 32 13.4 2 26.9-1.9 39.5-7.5-4.6 32.1-10 64.1-16.3 95.9-0.2 1.1-0.4 2.3 0 3.3 0.3 0.9 1 1.5 1.8 2.1 5.6 4.3 13.3 4.1 20.4 3.7 20.7-1.1 41.6-2.3 62.3-3.4-4.9-26.6-9.8-53.4-14.8-80-1.7-9.3-3.3-18.3-5.1-27.3z"/>
			<path class="st0" d="m1002.7 684.8c14.3 2.6 28.6 5.1 42.8 7.7-10.9-19.7-21.9-39.4-32.7-59.1 9.6 2.4 19.2 4.5 29 6.1-13-18.1-26.1-36.2-39.1-54.2 10.9 3.8 22.3 6.5 33.7 7.9-3.1-0.4-10.3-10.8-12.5-13.2-4.2-4.7-8.4-9.3-12.4-14.1-8.2-9.7-16.1-19.6-23.5-29.9-1.8-2.6-7.7-14-10.8-14.4-3.6-0.5-6.8 8.3-8.1 10.8-6.5 11.4-13.3 22.7-20.3 34-7.9 12.6-16.1 24.9-24.6 37.1 8.3-3.4 16.4-7.2 24.3-11.2-4.8 8.9-9.6 17.7-14.4 26.5-1.8 3.2-12.5 28-15.3 28.1 6.7-0.3 12.9-3 19-5.6 4.4-2 8.8-4 13-6.2-5.7 10.4-11.5 20.7-17.4 30.9-6.1 10.7-12.3 21.4-18.5 32 13.4 2 26.9-1.9 39.5-7.5-4.6 32.1-10 64.1-16.3 95.9-0.2 1-0.4 2.3 0 3.3 0.3 0.9 1 1.5 1.8 2.1 5.6 4.3 13.3 4.1 20.4 3.7 20.7-1.1 41.6-2.3 62.3-3.4-4.9-26.6-9.8-53.4-14.8-80-1.6-9.3-3.3-18.4-5.1-27.3z"/>
			<path class="st0" d="m913.8 724.9c14.3 2.6 28.6 5.1 42.8 7.7-10.9-19.7-21.9-39.4-32.7-59.1 9.6 2.4 19.2 4.5 29 6.1-13-18.1-26.1-36.2-39.1-54.2 10.9 3.8 22.3 6.5 33.7 7.9-3.1-0.4-10.3-10.8-12.5-13.2-4.2-4.7-8.4-9.3-12.4-14.1-8.2-9.7-16.1-19.6-23.5-29.9-1.9-2.6-7.7-14-10.8-14.4-3.6-0.4-6.8 8.3-8.1 10.8-6.5 11.4-13.3 22.7-20.3 34-7.9 12.6-16.1 24.9-24.6 37.1 8.3-3.4 16.4-7.2 24.3-11.2-4.8 8.9-9.6 17.7-14.4 26.5-1.8 3.2-12.5 28-15.3 28.1 6.7-0.3 12.9-3 19-5.6 4.4-2 8.7-4 13-6.2-5.7 10.4-11.5 20.7-17.4 30.9-6.1 10.7-12.3 21.4-18.5 32 13.4 2 26.9-1.9 39.5-7.5-4.6 32.1-10 64.1-16.3 95.9-0.2 1-0.4 2.3 0 3.3 0.3 0.9 1 1.5 1.8 2.1 5.6 4.3 13.3 4.1 20.4 3.7 20.7-1.1 41.6-2.3 62.3-3.4-4.9-26.6-9.8-53.4-14.8-80-1.6-9.3-3.3-18.2-5.1-27.3z"/>
			<path class="st0" d="m1109.1 598.6c14.3 2.6 28.6 5.1 42.8 7.7-10.9-19.7-21.9-39.4-32.7-59.1 9.6 2.4 19.2 4.5 29 6.1-13-18.1-26.1-36.2-39.1-54.2 10.9 3.8 22.3 6.5 33.7 7.9-3.1-0.4-10.3-10.8-12.5-13.2-4.2-4.7-8.4-9.3-12.4-14.1-8.2-9.7-16.1-19.6-23.5-29.9-1.9-2.6-7.7-14.1-10.8-14.4-3.6-0.5-6.8 8.3-8.1 10.8-6.5 11.4-13.3 22.7-20.3 34-7.9 12.6-16.1 24.9-24.6 37.1 8.3-3.4 16.4-7.2 24.3-11.2-4.8 8.9-9.6 17.7-14.4 26.5-1.8 3.2-12.5 28-15.3 28.1 6.7-0.3 12.9-3 19-5.6 4.4-2 8.8-4 13-6.2-5.7 10.4-11.5 20.7-17.4 30.9-6.1 10.7-12.3 21.4-18.5 32 13.4 2 26.9-1.9 39.5-7.5-4.6 32.1-10 64.1-16.3 95.9-0.2 1.1-0.4 2.3 0 3.3 0.3 0.9 1 1.5 1.8 2.1 5.6 4.3 13.3 4.1 20.4 3.7 20.7-1.1 41.6-2.3 62.3-3.4-4.9-26.6-9.8-53.4-14.8-80-1.6-9.4-3.3-18.3-5.1-27.3z"/>
			<path class="st0" d="m1204.1 539.9c14.3 2.6 28.6 5.1 42.8 7.7-10.9-19.7-21.9-39.4-32.7-59.1 9.6 2.4 19.2 4.5 29 6.1-13-18.1-26.1-36.2-39.1-54.2 10.9 3.8 22.3 6.5 33.7 7.9-3.1-0.4-10.3-10.8-12.5-13.2-4.2-4.7-8.4-9.3-12.4-14.1-8.2-9.7-16.1-19.6-23.5-29.9-1.9-2.6-7.7-14-10.8-14.4-3.6-0.4-6.8 8.3-8.1 10.8-6.5 11.4-13.3 22.7-20.3 34-7.9 12.6-16.1 24.9-24.6 37.1 8.3-3.4 16.4-7.2 24.3-11.2-4.8 8.9-9.6 17.7-14.4 26.5-1.8 3.2-12.5 28-15.3 28.1 6.7-0.3 12.9-3 19-5.6 4.4-2 8.7-4 13-6.2-5.7 10.4-11.5 20.7-17.4 30.9-6.1 10.7-12.3 21.4-18.5 32 13.4 2 26.9-1.9 39.5-7.5-4.6 32.1-10 64.1-16.3 95.9-0.2 1.1-0.4 2.3 0 3.3 0.3 0.9 1 1.5 1.8 2.1 5.6 4.3 13.3 4.1 20.4 3.7 20.7-1.1 41.6-2.3 62.3-3.4-4.9-26.6-9.8-53.4-14.8-80-1.7-9.4-3.3-18.3-5.1-27.3z"/>
			<path class="st0" d="m1320.2 484.9c14.3 2.6 28.6 5.1 42.8 7.7-10.9-19.7-21.9-39.4-32.7-59.1 9.6 2.4 19.2 4.5 29 6.1-13-18.1-26.1-36.2-39.1-54.2 10.9 3.8 22.3 6.5 33.7 7.9-3.1-0.4-10.3-10.8-12.5-13.2-4.2-4.7-8.4-9.3-12.4-14.1-8.2-9.7-16.1-19.6-23.5-29.9-1.8-2.6-7.7-14-10.8-14.4-3.6-0.4-6.8 8.3-8.1 10.8-6.5 11.4-13.3 22.7-20.3 34-7.9 12.6-16.1 24.9-24.6 37.1 8.3-3.4 16.4-7.2 24.3-11.2-4.8 8.9-9.6 17.7-14.4 26.5-1.8 3.2-12.5 28-15.3 28.1 6.7-0.3 12.9-3 19-5.6 4.4-2 8.8-4 13-6.2-5.7 10.4-11.5 20.7-17.4 30.9-6.1 10.7-12.3 21.4-18.5 32 13.4 2 26.9-1.9 39.5-7.5-4.6 32.1-10 64.1-16.3 95.9-0.2 1.1-0.4 2.3 0 3.3 0.3 0.9 1 1.5 1.8 2.1 5.6 4.3 13.3 4.1 20.4 3.7 20.7-1.1 41.6-2.3 62.3-3.4-4.9-26.6-9.8-53.4-14.8-80-1.6-9.3-3.3-18.3-5.1-27.3z"/>
			<path class="st0" d="m672.6 752.1c6.4 1.1 12.7 2.3 19 3.4-4.9-8.8-9.7-17.5-14.6-26.3 4.3 1 8.6 2 12.8 2.7-5.8-8-11.6-16.1-17.4-24.1 4.9 1.7 9.9 2.9 14.9 3.5-1.4-0.2-4.6-4.8-5.5-5.9-1.9-2.1-3.7-4.2-5.5-6.3-3.6-4.3-7.1-8.8-10.5-13.2-0.9-1.1-3.4-6.3-4.8-6.4-1.6-0.2-3 3.6-3.6 4.8-2.9 5-5.9 10.1-9 15-3.5 5.6-7.1 11-10.9 16.5 3.6-1.5 7.2-3.2 10.8-5-2.1 3.9-4.3 7.8-6.4 11.8-0.8 1.4-5.5 12.5-6.8 12.5 3-0.1 5.8-1.3 8.5-2.5 1.9-0.9 3.9-1.8 5.8-2.8-2.6 4.6-5.1 9.1-7.7 13.7-2.7 4.8-5.4 9.5-8.2 14.2 6 0.9 12-0.9 17.5-3.3-2 14.3-4.5 28.5-7.2 42.6-0.1 0.5-0.2 1 0 1.4s0.5 0.7 0.8 1c2.5 1.9 5.9 1.8 9 1.6 9.2-0.5 18.5-1 27.7-1.5-2.2-11.9-4.4-23.7-6.6-35.6-0.6-3.8-1.3-7.8-2.1-11.8z"/>
			<path class="st0" d="m180.2 641c6.2 1.1 12.8 1.2 18.8 2.7 3.6 0.9 7.1 2.9 10.8 3.9 1.2 0.4 9.5 1.3 9.9 2-4.3-9.1-9.5-17.8-15.4-26-3-4.1-6.2-8-9.5-11.8-0.9-1-6.4-9-7-9.2 4.3 1 8.7 1.4 12.9 2.7 2.1 0.7 14.3 3.8 15.1 5.4-8.3-17.1-21.9-31.3-35.6-44 3.9 0.8 7.8 1.2 11.8 2 1.9 0.4 14.3 3.1 14.8 4.3-6.1-12.8-16.3-23.3-24.4-35-7.3-10.6-12.9-22.3-16.7-34.5-10.8 29.4-35.1 52-52.2 77.7 5.3-0.9 9.9-3.2 14.9-4.8 3.6-1 8.9-0.6 11-4.6-8.2 15-18.4 29-27 43.8 5.5-0.8 10.5-3.1 15.3-5.7 2.9-1.4 12.2-3.8 13.6-6.4-9.6 17.3-20.2 34.1-28.6 52.1 1.9 0.3 3.9-0.5 5.7-1.1 8.5-3.2 17.3-5.8 25.5-9.5-3.4 24-7.5 48-12.1 71.8-0.2 0.9-0.3 1.7 0 2.5 0.3 0.7 0.8 1.1 1.3 1.5 4.2 3.2 10 3 15.2 2.8 15.5-0.9 31-1.7 46.6-2.6-3.7-20-7.3-39.9-11-59.9-1.2-6.7-2.4-13.4-3.7-20.1z"/>
			<path class="st0" d="m288.7 685.8c6.2 1.1 12.8 1.2 18.8 2.7 3.6 0.9 7.1 2.9 10.8 3.9 1.2 0.4 9.5 1.3 9.9 2-4.3-9.1-9.5-17.8-15.4-26-3-4.1-6.2-8-9.5-11.8-0.9-1-6.4-9-7-9.2 4.3 1 8.8 1.4 12.9 2.7 2.1 0.7 14.3 3.8 15.1 5.4-8.3-17.1-21.9-31.3-35.6-44 3.9 0.8 7.8 1.2 11.8 2 1.9 0.4 14.3 3.1 14.8 4.3-6.1-12.8-16.3-23.3-24.4-35-7.3-10.6-12.9-22.3-16.7-34.5-10.8 29.4-35.1 52.1-52.2 77.7 5.3-0.9 9.9-3.2 14.9-4.8 3.6-1 8.9-0.6 11-4.6-8.2 15-18.4 29-27 43.8 5.5-0.8 10.5-3.1 15.3-5.7 2.9-1.4 12.2-3.8 13.6-6.4-9.6 17.3-20.2 34.1-28.6 52.1 1.9 0.3 3.9-0.5 5.7-1.1 8.5-3.2 17.3-5.8 25.5-9.5-3.4 24-7.5 48-12.1 71.8-0.2 0.9-0.3 1.7 0 2.5 0.3 0.7 0.8 1.1 1.3 1.5 4.2 3.2 10 3 15.2 2.8 15.5-0.9 31-1.7 46.6-2.6-3.7-20-7.3-39.9-11-59.9-1.1-6.7-2.3-13.4-3.7-20.1z"/>
			<path class="st0" d="m371.9 716.6c6.2 1.1 12.8 1.2 18.8 2.7 3.6 0.9 7.1 2.9 10.8 3.9 1.2 0.4 9.5 1.3 9.9 2-4.3-9.1-9.5-17.8-15.4-26-3-4.1-6.2-8-9.5-11.8-0.9-1-6.4-9-7-9.2 4.3 1 8.7 1.4 12.9 2.7 2.1 0.7 14.3 3.8 15.1 5.4-8.3-17.1-21.9-31.3-35.6-44 3.9 0.8 7.8 1.2 11.8 2 1.9 0.4 14.3 3.1 14.8 4.3-6.1-12.8-16.3-23.3-24.4-35-7.3-10.6-12.9-22.3-16.7-34.5-10.8 29.4-35.1 52.1-52.2 77.7 5.3-0.9 9.9-3.2 14.9-4.8 3.6-1 8.9-0.6 11-4.6-8.2 15-18.4 29-27 43.8 5.5-0.8 10.5-3.1 15.3-5.7 2.9-1.4 12.2-3.8 13.6-6.4-9.6 17.3-20.2 34.1-28.6 52.1 1.9 0.3 3.9-0.5 5.7-1.1 8.5-3.2 17.3-5.8 25.5-9.5-3.4 24-7.5 48-12.1 71.8-0.2 0.9-0.3 1.7 0 2.5 0.3 0.7 0.8 1.1 1.3 1.5 4.2 3.2 10 3 15.2 2.8 15.5-0.9 31-1.7 46.6-2.6-3.7-20-7.3-39.9-11-59.9-1.1-6.7-2.3-13.5-3.7-20.1z"/>
			<path class="st0" d="m482.2 743.4c6.2 1.1 12.8 1.2 18.8 2.7 3.6 0.9 7.1 2.9 10.8 3.9 1.2 0.4 9.5 1.3 9.9 2-4.3-9.1-9.5-17.8-15.4-26-3-4.1-6.2-8-9.5-11.8-0.9-1-6.4-9-7-9.2 4.3 1 8.7 1.4 12.9 2.7 2.1 0.7 14.3 3.8 15.1 5.4-8.3-17.1-21.9-31.3-35.6-44 3.9 0.8 7.8 1.2 11.8 2 1.9 0.4 14.3 3.1 14.8 4.3-6.1-12.8-16.3-23.3-24.4-35-7.3-10.6-12.9-22.3-16.7-34.5-10.8 29.4-35.1 52-52.2 77.7 5.3-0.9 9.9-3.2 14.9-4.8 3.6-1 8.9-0.6 11-4.6-8.2 15-18.4 29-27 43.8 5.5-0.8 10.5-3.1 15.3-5.7 2.9-1.4 12.2-3.8 13.6-6.4-9.6 17.3-20.2 34.1-28.6 52.1 1.9 0.3 3.9-0.5 5.7-1.1 8.5-3.2 17.3-5.8 25.5-9.5-3.4 24-7.5 48-12.1 71.8-0.2 0.9-0.3 1.7 0 2.5 0.3 0.7 0.8 1.1 1.3 1.5 4.2 3.2 10 3 15.2 2.8 15.5-0.9 31-1.7 46.6-2.6-3.7-20-7.3-39.9-11-59.9-1.1-6.7-2.3-13.4-3.7-20.1z"/>
	<path class="st1" d="m750.5 650.4c2.6 3.6 5.2 7.3 7.9 10.9 1.1-2.6 2.2-5.2 3.3-7.9-3.9-0.7-7.6-1.7-11.2-3z"/>
	<path class="st1" d="m726.1 703.4c-6.2 2.8-12.9 4.7-19.5 3.8 4.4 6.2 8.9 12.3 13.3 18.5 1.2-1.8 2.4-3.7 3.6-5.5 1-5.7 1.8-11.2 2.6-16.8z"/>
	<path class="st1" d="m692.5 687.6c4.6 6.4 9.3 12.8 13.9 19.3 2.6-4.5 5.2-9 7.8-13.5-7.4-1.4-14.6-3.3-21.7-5.8z"/>
	<path class="st1" d="m717.7 678.5c-2.5 1.1-5.2 2.2-7.9 2.7 0.5 0.6 1 1.1 1.5 1.7 1 1.1 3 3.9 5.1 6.5 2.6-4.6 5.2-9.3 7.8-13.9-2.1 1-4.3 2-6.5 3z"/>
	<path class="st1" d="m791 634.8c-7.5 3.8-15.1 7.4-22.9 10.6 2.5 5.6 5.2 11.1 8.3 16.4 0.4-0.9 0.7-1.5 0.9-1.9 4.6-8.4 9.2-16.7 13.7-25.1z"/>
	<path class="st1" d="m793.3 675.4c-2 1-4.1 2-6.1 3 0.8 1.1 1.7 2.3 2.6 3.4 1.1-2.2 2.3-4.3 3.5-6.4z"/>
	<path class="st1" d="m587.7 656.1l-5.4 2.7c0.5 1.5 1 2.9 1.5 4.3 1.4-2.3 2.6-4.7 3.9-7z"/>
	<path class="st1" d="m855.9 615.7c2.2 2.5 4.5 5.1 6.7 7.6 0.3 0.3 0.6 0.7 1 1.2 3.1-5.7 6.1-11.3 9.2-17-5.5 2.9-11.1 5.6-16.9 8.2z"/>
	<path class="st1" d="m649.3 648.4c1.6 2.2 3.2 4.4 4.8 6.7 0.9-1.4 1.7-2.9 2.5-4.3-2.4-0.8-4.8-1.6-7.3-2.4z"/>
	<path class="st1" d="m1043 728.1c-2.3 1.5-4.6 2.9-6.9 4.3 2.5 13.4 4.9 26.9 7.4 40.3 0-14.9-0.1-29.8-0.5-44.6z"/>
	<path class="st1" d="m1207.2 544c1.3 6.6 2.6 13.3 3.8 19.9 2.2-6 4.5-12 6.8-18-3.5-0.7-7-1.3-10.6-1.9z"/>
	<path class="st1" d="m1136.5 656.8c-1.4 0.9-2.9 1.8-4.4 2.7l4.5 24.6c0-9.1 0-18.2-0.1-27.3z"/>
	<path class="st1" d="m1235.2 450.6c-0.1 0-0.1 0 0 0.1v-0.1z"/>
	<path class="st1" d="m701.5 730.5c2.4 4.3 4.8 8.6 7.2 13 2-3.3 4-6.6 6.1-9.9-4.4-1-8.9-2-13.3-3.1z"/>
	<path class="st1" d="m1043.5 528.4c3.6 3.8 7.5 8.8 9.1 10.4l0.1 0.1c3.6-6.7 7.3-13.4 10.9-20.1-6.5 3.4-13.3 6.6-20.1 9.6z"/>
	<path class="st1" d="m856.2 632.4c-4.6-1.2-9.2-2.5-13.7-4.1 3 4.2 6 8.3 9 12.5 0.3-0.5 0.6-1.1 0.9-1.6 0.8-1.3 2.2-4.8 3.8-6.8z"/>
	<path class="st1" d="m962.7 564.4c-4.3 2.2-8.6 4.3-12.9 6.3 1.5 2.9 3.1 5.7 4.8 8.5 2.8-4.9 5.5-9.8 8.1-14.8z"/>
	<path class="st1" d="m938 730.4l1.2 6.6c0.1-2.5 0.2-5 0.2-7.5-0.4 0.3-0.9 0.6-1.4 0.9z"/>
	<path class="st1" d="m1228 513.6c0.4 0.7 0.7 1.3 1.1 2 0.2-0.7 0.5-1.5 0.7-2.2-0.6 0-1.2 0.1-1.8 0.2z"/>
	<path class="st1" d="m1136.8 461.7c2 4 4.2 8 6.5 11.8 3.6-6.7 7.3-13.4 10.9-20.1-5.7 3-11.6 5.7-17.4 8.3z"/>
	<path class="st1" d="m1229.5 452.8c-3.9 1.3-7.8 2.3-11.9 2.4 0.8 0 2.1-1.7 3.6-4.3-4.8-1.2-9.5-2.6-14.1-4.2 6.1 8.4 12.2 16.9 18.3 25.3 3-6.1 5.9-12.3 8.6-18.5-1.6-0.1-3-0.4-4.5-0.7z"/>
	<path class="st1" d="m1226.6 561.6c-4.5 3.7-9.1 7.2-14.2 9.8l1.5 8.1c4.6 4.9 8.8 10.1 12.7 15.6-0.7-1-5.4-2-10.3-2.7 1.7 9 3.3 18.1 5 27.1 6.1-23.4 14.4-46.1 21.6-69.1h-0.2c-2.8 3.7-13 8.7-16.1 11.2z"/>
	<path class="st1" d="m718.8 754.5c-0.4-0.3-0.7-0.6-0.9-1.1s-0.1-1.1 0-1.7c0.4-1.8 0.7-3.7 1-5.5-2.3 1.1-4.6 2.2-7 3.2 3.5 6.2 6.9 12.5 10.4 18.7 2.1-3.9 4.2-7.9 6.2-11.8-3.3 0.2-7 0.2-9.7-1.8z"/>
	<path class="st1" d="m796.7 728z"/>
	<path class="st1" d="m560.1 668.9c3.4-4.9 6.8-9.9 10.2-14.8-4.5-1.7-11.2-3.4-12.8-3.9-4.8-1.4-9.8-1.8-14.6-3 0.8 0.2 7 9.4 8 10.5 3.8 4.3 7.4 8.7 10.8 13.3 2.1 2.9 4.2 5.9 6.1 9 3.6-6.1 6.9-12.3 9.7-18.8-5.7 2.6-11.5 5.2-17.4 7.7z"/>
	<path class="st1" d="m1024.8 671.7c0.2-0.6 0.4-1.1 0.6-1.7-0.3-0.1-0.6-0.1-1-0.2 0.2 0.6 0.3 1.2 0.4 1.9z"/>
	<path class="st1" d="m522.8 783.2v0s0 0 0 0z"/>
	<path class="st1" d="m201.6 678.2c-4.8 1.5-9.7 2.7-14.6 3.4 3.1 6.1 5.9 12.3 8.6 18.6 2.1-7.3 4.1-14.6 6-22z"/>
	<path class="st1" d="m338.4 584.9c-0.2-0.1-0.4-0.1-0.6-0.2s-0.5-0.1-0.7-0.2c0.2 0.5 0.4 0.9 0.5 1.4 0.3-0.3 0.5-0.6 0.8-1z"/>
	<path class="st1" d="m409.1 660.2c0.4 2 0.8 3.9 1.1 5.9 1.6-1.7 3.1-3.4 4.7-5.1-1.9-0.2-3.9-0.4-5.8-0.8z"/>
	<path class="st1" d="m255.7 552c-1.1 0.3-2.2 0.7-3.3 1.1 2 3.4 4.1 6.8 6.2 10.1 3.4-5.4 6.6-10.8 9.7-16.4-2.4 4.5-8.4 4-12.6 5.2z"/>
	<path class="st1" d="m447 624.3c-4.3-1.9-12.8-4.1-14.7-4.6-4.8-1.4-9.8-1.8-14.6-3 0.8 0.2 7 9.4 8 10.5 3.3 3.7 6.4 7.5 9.3 11.4 0.7-0.8 1.5-1.7 2.2-2.5 3.2-4 6.5-7.9 9.8-11.8z"/>
	<path class="st1" d="m347.9 606.4c5.2-8.1 10.3-16.2 15-24.7-2 3.7-6.5 4-10.3 4.7 0.8 1.5 1.6 3 2.4 4.6-0.4-0.9-3.6-2.1-7.2-3.3-2.7 0.9-5.4 2-8.1 2.9 2.4 5.4 5.1 10.7 8.2 15.8z"/>
	<path class="st1" d="m365 617.8c-0.8 1.4-3.7 2.8-6.8 4 0.9 1.2 1.8 2.3 2.6 3.5 1.4-2.6 2.8-5 4.2-7.5z"/>
	<path class="st1" d="m362.5 700.8c0.1-0.4 0.1-0.8 0.2-1.2-0.6-0.1-1.1-0.3-1.7-0.4 0.2 0 0.8 0.7 1.5 1.6z"/>
	<path class="st1" d="m261.8 634.6c-0.6 0.2-1.2 0.4-1.7 0.6 3.1 7.5 6.2 15 9.3 22.5 1-6.5 2-12.9 3-19.4-3.6-1.1-7.1-2.4-10.6-3.7z"/>
	<path class="st1" d="m323.1 581.7c0.3 0.1 1.7 1.8 3.2 3.9 0.5-1 1-1.9 1.4-2.9-1.5-0.3-3-0.6-4.6-1z"/>
	<path class="st1" d="m255.5 589.9c1.8 3.3 3.6 6.5 5.4 9.8 1.1-2 2.3-3.9 3.4-5.9-3-1.2-5.9-2.5-8.8-3.9z"/>
	<path class="st1" d="m411.7 673.3c0.6 3.3 1.2 6.5 1.8 9.8 0.4 2.3 0.8 4.6 1.3 6.9 5.8-7.7 11.5-15.3 17.3-23-6.8 2.3-13.6 4.4-20.4 6.3z"/>
	<path class="st1" d="m368.1 664.8c-1.1 0.5-2.1 0.9-3.2 1.4 0.9 0.9 1.8 1.8 2.6 2.7 0.2-1.3 0.4-2.7 0.6-4.1z"/>
	<path class="st1" d="m420.4 721.1c0.3 1.8 0.7 3.6 1 5.4 1.9-2.5 3.9-5 5.8-7.6-2.2 0.8-4.5 1.5-6.8 2.2z"/>
	<path class="st1" d="m191.3 574.5c0.8 4 1.6 8 2.3 12 3-3.5 6-7 8.9-10.5-3.7-0.5-7.5-0.9-11.2-1.5z"/>
	<path class="st1" d="m555.8 693.7c-6.8-1.6-14.4-1.7-21.4-3 1.5 7.6 2.9 15.3 4.3 22.9 0.4 1.9 0.7 3.8 1.1 5.7 6.4-8.2 12.8-16.4 18.6-24.9-0.8-0.2-1.7-0.5-2.6-0.7z"/>
	<path class="st1" d="m400.8 753.1c0.2-0.2 0.3-0.4 0.5-0.6-0.9 0-1.8 0.1-2.7 0.1 0.3 0.7 0.7 1.3 1 2l1.2-1.5z"/>
	<path class="st1" d="m214.5 533.9c-4.8-1.4-9.8-1.8-14.6-3 0.8 0.2 7 9.4 8 10.5 3.8 4.3 7.4 8.7 10.8 13.3 0.1 0.2 0.3 0.4 0.4 0.5 4-5.2 8-10.5 11.9-15.8-3.1-1.9-14.3-4.9-16.5-5.5z"/>
	<path class="st1" d="m204.2 628.5c-0.9 0.3-1.7 0.6-2.6 0.9 0.1 0.7 0.3 1.4 0.4 2.2 0.7-1 1.4-2 2.2-3.1z"/>
	<path class="st1" d="m195.1 594.3c0.2 1 0.4 2.1 0.6 3.1 0.4 2.2 0.8 4.4 1.2 6.5 3.2-4.5 6.4-9.1 9.6-13.6-3.8 1.4-7.6 2.7-11.4 4z"/>
	<path class="st2" d="m1311.9 603c-2-4.8-3.9-9.6-6-14.3 7.7-0.2 15.8-1.6 23.5-1.7h2.6c5.2 0.1 10.4 1.9 15.6 2.3 1.7 0.1 13.2-0.9 13.8 0-8.3-11.1-17.7-21.4-28-30.6-3.5-3.2-7.2-6.2-10.9-9.2-1.7-1.3-3.4-2.7-5.2-4-1.4-1-11.1-10.5-12-10.5 4.9 0.2 9.7-0.2 14.5-0.1 1.2 0 2.4 0.1 3.6 0.2 3.1 0.2 20.3 1.1 21.8 3.1-8.6-11.2-19-20.7-30.2-29.3-9.6-7.3-19.8-13.8-29.9-20 5.5 0 10.9-0.5 16.4-0.6 2.6-0.1 20 0.2 21.1 1.6-11.8-15.6-28.4-26.8-42.5-40.3-12.8-12.2-23.7-26.3-32.1-41.8-2.2 14.8-6.9 29-12.7 42.9v0.1c-0.4 1-0.8 2-1.2 2.9-2.7 6.2-5.6 12.4-8.6 18.5-8.9 18.3-18.6 36.2-26 54.6 6.9-2.7 12.4-7.1 18.8-10.5 1.7-0.9 3.7-1.6 5.7-2.4 1.2-0.5 2.3-1 3.4-1.6 2.1-1.2 3.8-2.8 4.6-5.3-0.6 2.1-1.3 4.2-2 6.4-0.2 0.7-0.5 1.5-0.7 2.2-3.4 10.2-7.3 20.3-11.2 30.3-2.3 6-4.6 12-6.8 18l-3.3 9.3c-11.9-11.4-25.3-21.3-38.7-30.3 5.5 0.2 10.9 0.1 16.4 0.2 2.6 0.1 20 1.2 21 2.7-11-16.2-27-28.2-40.4-42.4-8.6-9.1-16.2-19.1-22.7-29.9-2.3-3.9-4.5-7.8-6.5-11.8-0.3-0.6-0.6-1.1-0.8-1.7-0.2 0.8-0.3 1.5-0.5 2.3-1.5 6.8-3.5 13.4-5.8 19.8-11 30.3-30 57.8-44.3 86.4-11.2-9.5-22-19.5-32.5-29.7l-0.1-0.1c-1.6-1.6-5.4-6.6-9.1-10.4-1.1-1.1-2.2-2.2-3.2-3-1.3-1-2.4-1.7-3.3-1.6-2.5 0.1-4.3 3.8-5.5 7.5-0.9 2.7-1.5 5.4-2 6.7-5.5 14.8-11.3 29.6-17.4 44.2-6 14.2-12.3 28.3-18.8 42.2-7.5-8.6-16.2-16.4-23.8-25-5.5-6.3-10.5-13-14.8-20.1-1.7-2.8-3.3-5.6-4.8-8.5s-2.9-5.8-4.2-8.7c-0.1-0.2-0.2-0.5-0.3-0.7-0.2 0.6-0.3 1.3-0.5 1.9-1 3.7-2.1 7.3-3.3 10.8-0.1 0.2-0.1 0.4-0.2 0.6-10.9 30.1-31.9 56.3-46.2 84.5 6.1-1.8 11.1-5.1 16.8-7.6 4.1-1.8 10.3-1.9 12.3-6.8-7.6 18.7-17.5 36.4-25.6 54.8 6.3-1.7 11.8-5.1 17.1-8.7 2.1-1.4 7.7-3.7 11.5-6 1.8-1.1 3.2-2.2 3.6-3.2-0.5 1.1-0.9 2.3-1.4 3.4-6.2 14.8-12.9 29.4-18.7 44.4-5.3 1.2-10.5 2.4-15.7 3.5-2.9-5.2-5.7-10.3-8.6-15.5 7.4 1.9 14.9 3.4 22.4 4.7-10.1-14-20.1-27.9-30.2-41.9 8.4 2.9 17.2 5 26 6.1-2.5-0.3-7.9-8.3-9.7-10.2-3.2-3.6-6.4-7.2-9.6-10.9-6.3-7.5-12.4-15.2-18.2-23.1-0.9-1.3-3.2-5.5-5.3-8.4-0.7-0.9-1.3-1.6-1.9-2.1-0.4-0.3-0.8-0.6-1.1-0.6-0.9-0.1-1.7 0.5-2.5 1.4-1.7 2-3 5.5-3.7 6.8-0.3 0.5-0.6 1.1-0.9 1.6-4.7 8.3-9.7 16.5-14.8 24.6-6.1 9.7-12.4 19.3-19 28.7 6.4-2.6 12.6-5.6 18.7-8.7-3.7 6.8-7.4 13.6-11.1 20.5-0.6 1.2-2.8 6-5.1 10.7-8.6-10.7-18.7-20.3-27.4-30.9-1.1-1.3-2.1-2.6-3.1-3.9-0.9-1.1-1.7-2.3-2.6-3.4-3.9-5.3-7.5-10.8-10.8-16.5-3-5.3-5.8-10.8-8.3-16.4v-0.1c-0.7-1.7-1.5-3.4-2.1-5.1-0.9 3.3-1.9 6.5-3.1 9.6-0.4 1.2-0.9 2.4-1.3 3.5-1 2.7-2.1 5.3-3.3 7.9-9.1 20.7-22.2 39.8-34.8 58.8-1.2 1.8-2.4 3.7-3.6 5.5-4.4-6.2-8.9-12.3-13.3-18.5-0.1-0.1-0.2-0.2-0.2-0.3-4.6-6.4-9.3-12.8-13.9-19.3 7.1 2.5 14.3 4.4 21.7 5.7 2.7 0.5 5.5 0.9 8.3 1.3-1.4-0.2-3.8-2.7-6-5.3-2.1-2.6-4.2-5.4-5.1-6.5-0.5-0.6-1-1.1-1.5-1.7-0.2-0.3-0.5-0.5-0.7-0.8-3-3.3-5.9-6.7-8.8-10.1-7.3-8.6-14.3-17.5-20.9-26.6-1.7-2.3-6.8-12.5-9.5-12.8-1.4-0.2-2.7 1.2-3.9 3-1.5 2.3-2.6 5.3-3.3 6.5-2 3.4-3.9 6.9-5.9 10.3-0.8 1.4-1.7 2.9-2.5 4.3-3.1 5.2-6.3 10.4-9.6 15.6-7 11.2-14.3 22.2-21.9 33 7.3-3 14.5-6.4 21.6-10-4.3 7.9-8.5 15.7-12.8 23.6-0.8 1.4-3.3 7-6 12.6-7-9.7-14.9-19-21.8-28.9-8.1-11.7-14.8-24.5-19.7-37.8-0.5-1.4-1-2.9-1.5-4.3-0.6-1.7-1.2-3.5-1.7-5.3-0.9 2.6-2 5.1-3.1 7.6-2.8 6.5-6.1 12.8-9.7 18.8-2.9 5-6.1 9.8-9.4 14.6-5.9 8.5-12.2 16.7-18.6 24.9-3 3.8-6 7.6-9 11.4-10.7-20.7-21.4-41.5-32.2-62.2 12.5 6.5 25.6 11.7 39.2 15.6-3.8-1.1-10.4-14.8-12.7-18.2-4.2-6.3-8.4-12.7-12.4-19.2-8.1-13.1-15.8-26.5-23-40.2-1.3-2.4-4.2-10.9-7.1-15.7-1.1-1.9-2.2-3.2-3.2-3.5-4.3-1.2-9.6 8.7-11.7 11.4-6.4 8.2-13 16.3-19.6 24.3-0.3 0.4-0.7 0.8-1 1.3-3.3 3.9-6.5 7.8-9.9 11.7-0.7 0.8-1.5 1.7-2.2 2.5-6.6 7.6-13.2 15.1-20 22.6-1.6 1.7-3.1 3.4-4.7 5.1-3.1 3.4-6.3 6.8-9.4 10.1 3.6-0.9 7.2-1.9 10.8-2.9 6.9-1.9 13.7-4 20.4-6.3-5.8 7.7-11.5 15.3-17.3 23l-4.8 6.3c-1.5 2-7.7 11.8-13.4 19.8-9.1-1.9-18.1-3.7-27-5.6-1.4-1.8-5-7.1-7.1-9.8-0.7-0.9-1.3-1.6-1.5-1.6 0.6 0.1 1.1 0.3 1.7 0.4 5 1.1 10.1 1.6 14.9 3.1 2.8 0.8 18.4 4.9 19.5 7-7.4-15.2-18-28.6-29.6-40.7-0.9-0.9-1.7-1.8-2.6-2.7-4.5-4.6-9-8.9-13.6-13.2 5 1 10.1 1.7 15.2 2.6 2.4 0.4 18.3 4 19 5.5-6.2-13.1-15.7-24.3-24.6-35.9-0.9-1.2-1.8-2.3-2.6-3.5-1.4-1.9-2.8-3.8-4.1-5.7-2.2-3.1-4.2-6.3-6.2-9.6-3-5.1-5.8-10.4-8.2-15.8-0.7-1.5-1.4-3.1-2-4.6-0.2-0.5-0.4-0.9-0.5-1.4-1.7-4.3-3.3-8.7-4.6-13.1-1.4 3.8-3 7.5-4.7 11.2-0.5 1-0.9 2-1.4 2.9-14.1 28.1-36.6 51.8-54.9 77.2-0.7-1.7-1.4-3.4-2.1-5-3.1-7.5-6.2-15-9.3-22.5l-0.6-1.5c0.8 0.3 1.6 0.6 2.3 0.9 3.5 1.3 7 2.5 10.5 3.7 4.1 1.4 8.1 2.6 12.3 3.8-7.9-14.2-15.8-28.3-23.7-42.5-1.8-3.3-3.6-6.5-5.5-9.8h0.1c2.9 1.4 5.8 2.7 8.8 3.9 6.6 2.7 13.4 4.9 20.2 6.6-2.8-0.7-8-10.6-9.7-13.1-3.3-4.5-6.4-9.1-9.5-13.8-2.3-3.4-4.5-6.8-6.6-10.3-2.1-3.3-4.2-6.7-6.2-10.1-1.6-2.7-3.2-5.5-4.8-8.2-0.1-0.1-0.1-0.3-0.2-0.4-1.4-2.4-5.4-13.3-8-13.9-3.1-0.7-6.7 6.3-8.2 8.5 0 0.1-0.1 0.1-0.1 0.2l-0.1 0.1c-3.9 5.3-7.9 10.6-11.9 15.8-3.1 4.1-6.3 8.1-9.5 12.1-2.3 2.9-4.6 5.7-7 8.5-2.9 3.5-5.9 7.1-8.9 10.5-3.3 3.8-6.6 7.6-9.9 11.4 3.8-1.1 7.6-2.3 11.3-3.5 3.8-1.3 7.6-2.6 11.4-4-3.2 4.5-6.4 9.1-9.6 13.6-2 2.8-4 5.6-5.9 8.4-0.5 0.7-1.6 2.6-3.1 5-12.7-23-29.9-43.5-47.3-62.6 6.9 2 14 3.5 21 5.3 3.3 0.9 25.2 7.7 26.1 9.9-9.1-24.1-25.9-44.5-38.8-66.8-1.1-2-2.2-3.9-3.3-5.9-0.2-0.3-0.4-0.7-0.5-1-3.1-5.8-5.9-11.7-8.4-17.7-3-7-5.6-14.2-7.9-21.5-1.9-6.2-3.6-12.4-4.9-18.7-0.8 1.8-1.7 3.5-2.5 5.2-19.5 38.5-51.6 69.1-80.7 101.1-7.8 8.6-15.4 17.2-22.5 26.2 6.6-0.5 12.6-2.3 18.7-4 3-0.8 5.9-1.6 9-2.3 6.7-1.4 16.2 0.2 20.7-6.6-9.5 14.5-20 28.2-30.6 42-14.6-2-29-2.8-42.7-1.9l5.5 349v8.3l537.6-3.2 0.1 0.1c5.8 4.4 13.7 4.2 20.9 3.8 21.3-1.2 42.7-2.3 64-3.5-0.1-0.3-0.1-0.6-0.2-0.9l62.1-0.4 684.5 4.1v-8.3l5.5-349c-21.1-1.2-41.8 0.8-62.8 5.1zm-52.7 14.6c-10.9 3.7-21.6 7.7-32.3 11.9-1-1.2-2-2.5-3.1-3.7 1-0.5 1.9-1.1 2.9-1.7 4.2-2.7 8.4-5.2 12.7-7.8 6.5-3.9 12.9-7.8 19-12.1 0.3 4.5 0.5 8.9 0.8 13.4zm-240.8 62.1c-1.5-2.3-3-4.6-4.7-6.8 4.8-3.2 9.5-6.5 14.2-9.8-0.8 2.3-1.7 4.6-2.5 6.9-0.2 0.6-0.4 1.1-0.6 1.7-3.8 10.5-7.6 21-11.5 31.5 0 0.1-0.1 0.3-0.1 0.4-2.1-2.5-4.2-4.9-6.4-7.3-4-4.3-8.3-8.5-12.7-12.4l-0.7-0.7c5.2-1.3 9.9-3.7 14.5-6.4 4.7 0.7 9.9 1.8 10.5 2.9zm88.5-67.1c3.5-2.6 15.8-7.7 17.2-11.5-3.3 9.1-6.9 18-10.3 27-4-4-8-7.9-12-11.9 1.7-1.1 3.4-2.3 5.1-3.6zm-2.6 40.7c-1-1.3-2.1-2.6-3.1-4 1.5 0.1 3 0.2 4.4 0.3-0.5 1.3-0.9 2.5-1.3 3.7zm11.9 15.1c5.4-2.9 10.7-5.7 15.9-8.8 1.5-0.9 2.9-1.8 4.4-2.7 0 4.2 0.1 8.4 0.1 12.6-4.9 2.2-9.8 4.3-14.6 6.3-2-2.6-3.9-5-5.8-7.4zm-123.2 14.3c-2.4-2.6-7.7-8.6-8.4-8.7 4 0.5 8 0.5 11.9 0.9-1.2 3.7-2.5 6.6-3.5 7.8zm211.9-91.8c1.5 0.2 6.5 0.7 11.3 1.5 4.9 0.8 9.6 1.7 10.3 2.7-3.8-5.5-8.1-10.7-12.7-15.6-1.9-2.1-4-4.1-6-6.1 1.6-0.6 3.1-1.3 4.5-2 5.1-2.6 9.7-6.2 14.2-9.8 3.1-2.5 13.2-7.4 16-11.2 0.3-0.4 0.5-0.8 0.6-1.1-0.1 0.4-0.2 0.8-0.4 1.2-7.2 23-15.5 45.7-21.6 69.1-0.2 0.9-0.5 1.8-0.7 2.7-2.2-2.4-4.5-4.8-6.8-7.1-4.9-4.9-10-9.6-15.4-14-1.3-1.1-10.5-11-11.5-11.1 6.2 0.4 12.3 0 18.2 0.8zm-11.6 52.7l-7.5 3.3c-0.4-1-0.7-2.1-1.1-3.1 2.8 0 5.7-0.1 8.6-0.2zm-92.6-76.7c4.7-2.2 12-2.7 14.1-8.5-3.2 8.8-6.8 17.4-10.5 25.9-0.2-0.2-0.4-0.3-0.6-0.5-4.6-3.7-9.2-7.4-13.7-11.2 3.6-1.9 7-4 10.7-5.7zm-1.8 29.7c-1.7 3.9-3.4 7.7-5.1 11.6-4.7-4.7-9.4-9.3-14-14 6.3 1.2 12.7 1.9 19.1 2.4zm-96.2 40.3c-2.1-3.3-4.4-6.5-6.9-9.5 7.1-4.6 14.1-9.4 20.9-14.5-4 11.4-7.9 22.8-11.9 34.2-0.5 1.5-1.8 6.2-3.4 11.7-9.4-9.5-20-17.9-30.6-25.6 4.7 0.4 9.3 0.4 14 0.7 2.3 0.1 17.1 1.7 17.9 3zm-193.2 89.7c0.7 0.1 2.5 0.3 4.7 0.6-0.2 0.2-0.4 0.3-0.6 0.3 0.6 0 1.2-0.1 1.7-0.1 6 0.9 14.3 2.3 14.9 3.4-1.3-2.3-2.7-4.4-4.2-6.6 0.8-0.3 1.5-0.7 2.3-1 3.4-1.5 6.7-3.1 10-4.8-4.4 8-8.9 15.9-13.4 23.9-0.9 1.5-1.7 3.1-2.6 4.6-1.1 0.2-2.2 0.3-3.3 0.5-7.1-6.8-14.7-13.2-22.3-19.3-1.2-0.9-2.4-1.9-3.6-2.8 5.5 0.5 10.9 0.8 16.4 1.3zm-71.5 10.2c-2.9 6.6-6.1 13.1-9.4 19.5-0.2 0.3-0.4 0.7-0.5 1-3.8 0.2-7.6 0.4-11.4 0.5-1.6-2.8-3.1-5.6-4.7-8.5 2.3-1 4.6-2.1 7-3.2 1.4-0.7 2.9-1.3 4.4-1.9 4.8-1.8 12.1-1.7 14.6-7.4zm-23.2-3.3c-2.1 3.3-4.1 6.6-6.1 9.9-2.4-4.3-4.8-8.6-7.2-13 4.4 1.2 8.9 2.2 13.3 3.1zm-80 3.6c3.9-1.8 7.7-3.6 11.6-5.5-3.1 5.7-6.3 11.3-9.5 16.9-1.6-3.4-3.5-6.7-5.5-10 1.1-0.4 2.3-0.9 3.4-1.4zm-18 6c2.4 0.4 17.7 3.8 20 5.6-1.6 2.8-3.1 5.6-4.7 8.3-5.2-0.3-10.3-0.7-15.5-1.1-5.2-5.4-10.6-10.5-16-15.5 5.4 1.1 10.8 1.8 16.2 2.7zm-91.2-5.7c-1.4 1.9-2.9 3.7-4.3 5.6-4.9-0.9-9.8-1.8-14.7-2.8-1.5-3.9-2.9-7.8-4.4-11.8 7.7 3.2 15.5 6.2 23.4 9zm-105.2-16.3c2.3-0.7 4.6-1.4 6.8-2.1-0.8 1.1-1.7 2.2-2.5 3.3-1.6-0.4-3.1-0.7-4.7-1.1 0.2 0 0.3-0.1 0.4-0.1zm-135.9-55.6c4.7-1.4 11.5-0.8 14.3-5.9-5.3 9.7-11.1 19-17.1 28.2-2.6-6.2-5.1-12.4-7.7-18.6 3.5-1.3 6.9-2.7 10.5-3.7zm-82.9-36.1c0.9-0.3 1.7-0.6 2.6-0.9-0.7 1-1.5 2-2.2 3.1-1.5 2-2.9 4.1-4.4 6.1-0.8-2-1.7-4.1-2.6-6.1 2.2-0.6 4.4-1.4 6.6-2.2zm-22.1 0.8c-2.3 3.2-4.2 5.5-5 5.5 4.7 0.3 9.3-0.6 13.9-1.9 3.8 1.6 7.2 3.2 8.8 4.5-2.9 4.1-5.9 8.1-8.9 12.2-9.2-4.1-18.6-8.3-28.3-12.4-1.9-2.8-10-17.1-11.1-17.5 7.6 2.6 15.5 3.9 22.9 6.8 1.2 0.4 4.1 1.5 7.7 2.8z"/>
</svg>
